<?xml version="1.0" encoding="UTF-8"?>
<svg xmlns="http://www.w3.org/2000/svg" viewBox="0 0 1217 986" width="1217" height="986">
<path d="M487.67 459.84C486.43 460.81 485.19 461.79 483.95 462.77C479.48 466.11 475.46 470.17 470.87 473.38C458.75 481.88 444.59 489.32 430 492.37C427.68 492.81 425.35 493.26 423.03 493.7C418.71 493.97 414.4 494.23 410.09 494.5C419.91 470.32 440.54 449.76 464.12 438.53C468.88 436.27 473.65 433.88 478.66 432.18C483.02 430.71 488.15 429.92 492.17 428.07C494.33 427.79 496.5 427.52 498.66 427.25C501.94 427.08 505.22 426.92 508.5 426.75C508.39 436.95 493.43 451.58 487.67 459.84ZM715.43 426.22C716.62 426.42 717.81 426.63 719 426.83C719.33 426.95 719.67 427.08 720 427.2C721.64 427.47 723.28 427.75 724.93 428.02C726.55 428.8 728.25 428.96 730.05 429.47C735.51 431.03 740.82 433.36 746.08 435.45C761.76 441.69 776.09 453.8 787.59 465.91C793.29 471.91 802.48 483.19 803.02 491.5C799.93 491.58 796.83 491.66 793.74 491.74C792.16 491.54 790.58 491.33 789 491.12C788.62 491 788.23 490.89 787.85 490.77C786.26 490.51 784.67 490.25 783.08 489.98C780.32 488.54 776.65 488.08 773.55 487.01C767.51 484.93 761.5 482.53 755.78 479.66C733.65 468.57 713.09 449.34 703.21 426.5C707.29 426.41 711.36 426.31 715.43 426.22ZM852.39 470C852.86 471.61 853.32 473.23 853.78 474.84C854.5 478.29 855.22 481.73 855.94 485.18C856.18 488.81 856.43 492.45 856.68 496.08C856.82 497.72 856.97 499.36 857.11 501C857.11 504 857.12 507 857.12 510C856.97 511.64 856.82 513.27 856.68 514.91C856.25 518.27 855.82 521.64 855.4 525C853.86 533.93 851.21 543.29 846.5 551.1C839.51 545.79 832.21 530.59 829.38 522.2C827.85 517.7 827.17 512.07 825.01 507.97C824.77 506.34 824.52 504.7 824.28 503.06C823.78 498.71 823.28 494.35 822.77 490C821.09 483.57 821.11 474.45 822.71 468C823.23 463.63 823.74 459.26 824.26 454.89C824.52 453.3 824.79 451.7 825.05 450.11C827.54 444.08 830.02 438.06 832.5 432.03C842.77 441.99 848.81 456.38 852.39 470ZM388.95 467.15C389.21 469.73 389.46 472.31 389.72 474.89C389.86 476.26 390.01 477.63 390.15 479C390.16 482.33 390.17 485.67 390.18 489C390.02 491.68 389.86 494.36 389.7 497.04C389.45 500.31 389.2 503.59 388.95 506.86C387 510.97 386.12 519.35 384.74 524.29C381.95 534.19 375.66 549.56 367.5 556.07C361.55 549.68 361.82 540.25 357.92 533C357.71 531.32 357.51 529.65 357.3 527.97C357.15 527.31 356.99 526.66 356.83 526C356.7 524.17 356.57 522.33 356.44 520.5C356.38 520.47 356.33 520.45 356.28 520.42C356.29 511.28 356.3 502.14 356.31 493.01C356.5 491.34 356.69 489.67 356.87 488C357.02 487.38 357.18 486.77 357.33 486.15C357.56 484.45 357.8 482.74 358.04 481.04C358.74 478.59 359.45 476.13 360.16 473.68C360.46 472.18 360.76 470.68 361.06 469.18C362.48 466.6 363.18 463.54 364.2 460.7C366.64 453.92 372.75 441.75 378.5 437.56C383.11 443.99 386.1 452.97 387.65 460.71C388.1 462.99 388 465.13 388.95 467.15ZM739.08 499.67C742.36 499.65 745.64 499.63 748.92 499.61C749.61 499.66 750.31 499.71 751 499.76C781.29 502.17 812.98 517.81 829.55 544C823.23 547.06 808.67 545.11 801.22 544.9C798.89 543.8 796.17 543.58 793.6 542.88C787.82 541.3 781.98 539.6 776.43 537.28C767.89 533.71 759.52 528.91 752.03 523.49C748.82 521.17 746.23 518.05 742.99 515.82C742.05 514.9 741.11 513.98 740.17 513.05C737.45 508.81 732.6 505.3 731.5 500.36C734.03 500.13 736.56 499.9 739.08 499.67ZM465 502.74C466.31 502.69 467.62 502.64 468.92 502.58C471.27 502.6 473.62 502.61 475.97 502.62C476.65 502.66 477.32 502.7 478 502.74C479.68 502.99 481.35 503.25 483.03 503.5C475.39 519.97 456.73 533.04 440.55 540.21C433.93 543.15 426.25 544.58 419.98 547.97C418.15 548.11 416.33 548.25 414.5 548.39C414.36 548.58 414.22 548.78 414.08 548.97C412.16 549.24 410.24 549.51 408.32 549.78C407.22 549.92 406.11 550.06 405 550.2C401 550.23 397 550.26 393 550.3C390.69 550.03 388.39 549.77 386.08 549.5C387.56 543.51 393.95 537.24 398.38 532.89C408.59 522.84 421.78 514.77 435.19 509.64C439.43 508.02 444.25 507.08 448.19 505.07C449.74 504.8 451.3 504.53 452.85 504.25C456.9 503.75 460.95 503.25 465 502.74ZM898.97 535.93C899.22 538.26 899.47 540.58 899.72 542.9C899.86 543.94 900.01 544.97 900.15 546C900.14 550.33 900.12 554.67 900.11 559C899.97 560.32 899.83 561.63 899.69 562.95C899.2 566.3 898.71 569.65 898.22 573C896.16 587.67 890.26 603.25 882.11 615.65C879.06 620.3 875.51 625.82 870.89 628.96C870.76 628.79 870.63 628.62 870.5 628.45C869.83 629.11 869.17 629.78 868.5 630.44C867.98 630.44 867.46 630.45 866.93 630.45C866.56 629.63 866.18 628.82 865.81 628C865.3 626.02 864.8 624.03 864.29 622.05C863.79 619.03 863.29 616.02 862.79 613C862.75 606.33 862.71 599.67 862.67 593C863.21 588.98 863.74 584.96 864.27 580.95C864.53 579.3 864.78 577.66 865.04 576.02C867.92 570.28 868.96 562.9 871.27 556.76C876.21 543.63 884.29 532.16 894.5 522.66C895.99 527.09 897.48 531.51 898.97 535.93ZM351.93 586.19C352.18 587.83 352.43 589.48 352.68 591.13C354.26 603.17 354.74 615.38 352.77 627.42C352.49 629.22 352.22 631.01 351.95 632.81C351.13 634.56 350.32 636.31 349.5 638.06C337.14 630.04 327.56 611.36 322.58 597.9C320.91 593.38 320.24 587.91 318.07 583.79C317.8 581.9 317.52 580.02 317.24 578.13C317.13 577.75 317.01 577.38 316.9 577C316.69 575.41 316.47 573.82 316.26 572.23C316.08 569.82 315.9 567.41 315.71 565C315.72 559.33 315.73 553.67 315.75 548C316.39 542.07 316.91 534.19 320.5 529.6C331.26 538.22 339.65 550.93 344.7 563.69C347.55 570.88 348.62 579.47 351.93 586.19ZM853.62 630.5C847.42 629.27 841.45 628.41 835.48 626.1C807.01 615.1 773.96 585.55 768.04 554.5C795.81 555.49 827.09 580.91 842.12 603.26C847.14 610.73 853.88 621.35 853.62 630.5ZM447.14 558.13C447.08 559.71 447.03 561.3 446.98 562.88C445.49 565.41 444.75 568.43 443.72 571.25C441.91 576.2 439 581.15 436.01 585.46C425.11 601.14 411.5 614.75 395.02 624.51C389.2 627.96 382.95 630.07 377 633.14C375.01 633.69 373.03 634.24 371.04 634.78C368.53 635.05 366.01 635.32 363.5 635.58C363.41 634.98 363.32 634.37 363.23 633.76C363.5 632.23 363.78 630.7 364.05 629.17C367.02 624.2 368.39 618.17 371.54 613.13C383.33 594.24 397.02 581.04 415.88 569.39C424.76 563.91 436.49 558.03 447.14 558.13ZM919.85 622.28C919.65 628.86 919.45 635.43 919.24 642C918.77 645.04 918.29 648.08 917.82 651.12C917.53 652.73 917.24 654.34 916.95 655.95C915.42 658.78 914.67 662.13 913.68 665.24C911.48 672.06 908.41 679.13 904.88 685.36C897.96 697.55 888.92 710.55 877.52 719.03C874.44 721.32 871.03 723.11 868.02 725.5C867.02 725.29 866.02 725.08 865.02 724.87C865.05 717.66 865.08 710.45 865.11 703.24C866.88 699.33 866.88 693.89 868.01 689.54C869.19 684.99 870.81 680.37 872.48 675.97C878.61 659.81 888.92 642.99 901.66 631.17C906.78 626.43 912.94 623.18 918.5 619.05C918.95 620.13 919.4 621.21 919.85 622.28ZM852.2 690C852.73 691.96 853.25 693.92 853.77 695.88C854.49 700.92 855.21 705.95 855.92 710.99C855.93 713.6 855.94 716.22 855.95 718.83C855.47 719.86 854.98 720.9 854.5 721.93C849.67 719.25 844.87 716.35 840.48 713.02C818.64 696.42 798.73 659.32 798.3 632C798.54 631.83 798.77 631.67 799 631.5C799 630.17 799 628.83 799 627.5C798.76 627.33 798.52 627.17 798.28 627C798.36 625.29 798.43 623.58 798.5 621.86C806.18 622.49 814.68 630.08 819.82 635.65C835.63 652.81 845.21 667.46 852.2 690ZM418.87 626.28C418.65 632.52 418.43 638.76 418.21 645C417.59 648 416.97 651 416.35 654C415.97 656 415.6 658 415.22 660C413.16 664.99 411.91 670.28 409.74 675.25C403.82 688.81 395.15 701.73 384.95 712.43C381.35 716.2 377.18 719.56 372.84 722.42C370.47 723.98 367.9 725.01 365.86 726.99C365.11 726.83 364.37 726.66 363.62 726.5C363.76 719.33 363.9 712.17 364.04 705C364.96 703.06 364.97 701.12 365.43 699.01C366.61 693.5 368.34 688.04 370.26 682.75C376.12 666.63 386.5 651.17 398.49 639C402.64 634.79 407.58 631.18 412.68 628.22C414.87 626.95 416.59 624.8 418.87 626.28ZM351.94 700.19C352.2 701.75 352.47 703.31 352.73 704.87C353.81 713.72 355.17 723.33 353.5 732.15C334.91 724.78 317.65 701.75 309.44 684.09C306.08 676.87 303.91 669.3 300.86 662C300.47 660 300.09 658 299.7 656C299.47 655.33 299.24 654.66 299 653.99C298.74 652.44 298.48 650.89 298.22 649.34C298.09 648.56 297.96 647.78 297.84 647C297.59 641.08 297.35 635.16 297.11 629.25C297.57 628.18 298.04 627.1 298.5 626.03C303.95 630.02 309.84 633.06 315.04 637.46C326.21 646.92 335.42 660.62 341.88 673.62C344.59 679.05 346.99 684.84 348.87 690.6C349.89 693.74 350.49 697.39 351.94 700.19ZM824.2 726C824.74 727.62 825.29 729.24 825.83 730.86C826.54 733.6 827.25 736.33 827.96 739.07C828.23 740.99 828.5 742.92 828.77 744.84C828.89 745.23 829.01 745.61 829.14 746C829.34 747.58 829.54 749.17 829.74 750.75C829.91 752.5 830.08 754.25 830.25 756C830.24 762.67 830.22 769.33 830.21 776C829.73 780.03 829.24 784.05 828.76 788.08C828.25 790.38 827.74 792.69 827.23 795C824.99 800.29 822.74 805.57 820.5 810.86C810.84 803.95 806.03 786.69 801.83 776C801.46 774.33 801.08 772.67 800.71 771C796.27 754.72 796.95 736.31 799.22 719.73C799.5 718.19 799.77 716.64 800.04 715.1C802.53 709.1 805.01 703.1 807.5 697.11C815.28 705.07 820.32 715.64 824.2 726ZM418.13 717C418.51 718.67 418.9 720.33 419.28 722C419.92 725 420.56 728 421.2 731C421.4 732.19 421.59 733.38 421.79 734.57C422.55 746.56 422.17 758.44 420.77 770.32C420.51 771.91 420.25 773.5 420 775.09C417.94 781.75 415.88 788.41 413.82 795.08C413.28 796.39 412.75 797.69 412.21 799C408.33 804.21 406.4 811.99 400.5 815.23C397.7 808.74 394.91 802.24 392.11 795.74C391.84 793.79 391.58 791.85 391.31 789.9C391.2 789.6 391.1 789.3 390.99 789C390.75 787.02 390.51 785.05 390.27 783.07C390.12 780.71 389.97 778.36 389.81 776C389.81 770.67 389.81 765.33 389.81 760C389.96 757.88 390.1 755.76 390.25 753.63C390.51 751.39 390.77 749.16 391.02 746.92C391.22 746.78 391.41 746.64 391.6 746.5C391.74 745 391.88 743.5 392.02 742C392.79 739.39 393.56 736.77 394.33 734.16C394.82 732.44 395.31 730.72 395.81 729C399.76 719.05 404.41 710.6 410.5 701.8C413.04 706.87 415.59 711.93 418.13 717ZM840.96 805.95C839 806.23 837.04 806.51 835.08 806.79C834.72 806.91 834.36 807.03 834 807.15C832.39 807.15 830.77 807.15 829.16 807.16C830.06 798.33 836.27 788.93 841.29 781.78C857.82 758.27 881.06 742.97 908 733.84C910.67 733.45 913.33 733.05 916 732.65C917.83 732.37 919.67 732.08 921.5 731.8C921.66 739.65 914.61 750.24 910.21 756.71C898.07 774.55 880.86 788.53 861.72 798.26C858.45 799.92 854.78 801.63 851.29 802.77C847.92 803.87 844.07 804.38 840.96 805.95ZM297.18 738.98C300.45 739.22 303.73 739.47 307 739.71C335.21 745.31 361.31 763.03 378.52 785.94C384.15 793.44 390.62 802.67 391.92 812.09C388.28 811.8 384.64 811.51 381 811.23C371.16 808.53 362.19 805.05 352.88 800.87C351.64 800.24 350.4 799.61 349.16 798.98C347.26 797.18 344.87 796.3 342.68 794.86C338.15 791.88 333.79 788.41 329.64 784.91C315.8 773.21 301.68 756.86 297.18 738.98ZM784 753.86C784.58 755.91 785.16 757.96 785.75 760.01C785.87 760.34 785.98 760.67 786.1 761C786.33 762.53 786.56 764.05 786.79 765.58C787.14 767.16 787.49 768.75 787.84 770.33C787.67 781.89 787.51 793.44 787.34 805C784.29 824.68 778.15 844.81 764.5 859.85C759.21 853.74 756.72 843.14 755.31 835.33C754.8 832.48 755.18 829.64 754 827C753.99 818.33 753.98 809.67 753.97 801C755.7 797.01 755.11 791.89 756.16 787.55C759.38 774.23 766.1 749.07 778.5 741.57C780.33 745.66 782.16 749.76 784 753.86ZM442.98 745.17C443.93 746.41 444.88 747.66 445.82 748.9C448.89 753.59 451.95 758.28 455.01 762.97C455.63 764.58 456.24 766.19 456.86 767.8C459.87 774.12 461.77 780.92 463.71 787.62C464.52 790.44 464.78 793.63 465.93 796.17C466.18 798.15 466.43 800.13 466.68 802.12C466.95 806.93 467.85 811.67 467.95 816.5C468.08 822.93 467.14 829.06 466.78 835.42C466.52 837.6 466.25 839.77 465.98 841.95C462.97 848.33 463.08 858.03 457.5 862.92C450.65 855.02 444.8 846.28 441.12 836.41C438.93 830.53 437.95 823.25 435.03 817.89C434.76 816.28 434.49 814.66 434.22 813.05C434.11 812.7 433.99 812.35 433.87 812C433.67 810.38 433.47 808.75 433.27 807.13C432.88 804.69 432.49 802.25 432.1 799.82C432.33 791.54 432.55 783.27 432.77 775C432.94 773.29 433.1 771.58 433.27 769.88C433.52 768.22 433.76 766.56 434.01 764.91C434.2 764.77 434.39 764.64 434.58 764.5C434.96 762.67 435.35 760.83 435.73 759C437.65 754.27 439.58 749.53 441.5 744.8C441.99 744.92 442.49 745.04 442.98 745.17ZM738.92 801.19C738.9 808.7 738.88 816.21 738.86 823.72C738.17 827.2 737.47 830.68 736.78 834.16C736.51 835.73 736.24 837.29 735.97 838.85C733.28 843.77 732.62 850.25 730.24 855.55C724.85 867.52 718.47 878.13 710 888.13C709.04 889.05 708.08 889.98 707.11 890.91C704.91 892.65 702.7 894.39 700.5 896.13C700 895.37 699.51 894.62 699.01 893.87C698.78 892.25 698.54 890.63 698.3 889.01C697.95 880.86 697.6 872.71 697.25 864.57C697.29 864.54 697.32 864.52 697.36 864.5C697.52 863 697.68 861.5 697.83 860C697.98 859.28 698.12 858.56 698.26 857.84C698.55 855.66 698.84 853.48 699.13 851.29C702.31 844.45 703.65 836.1 706.42 828.87C710.46 818.33 717.33 806.78 725.22 798.7C728.44 795.41 732.19 792.86 735.5 789.74C736.64 793.55 737.78 797.37 738.92 801.19ZM497.96 803.2C498.91 804.44 499.87 805.68 500.82 806.91C508.53 819.18 516.27 830.88 520.35 845C520.82 846.62 521.3 848.23 521.77 849.85C522.3 852.23 522.83 854.62 523.36 857C523.83 859.56 524.3 862.12 524.77 864.68C524.89 865.12 525 865.56 525.12 866C525.33 868.67 525.53 871.33 525.74 874C525.42 879 525.11 884 524.79 889C524.51 891.61 524.23 894.21 523.95 896.82C523.51 897.07 523.05 897.67 522.5 897.66C519.72 897.64 511.42 888.42 509.33 886.19C502.01 878.4 495.17 867.22 491.4 857.18C488.99 850.75 486.8 839.31 483.97 834C483.75 832.28 483.54 830.57 483.33 828.85C483.17 828.23 483.02 827.62 482.86 827C482.68 824.98 482.5 822.95 482.32 820.93C482.32 815.27 482.31 809.62 482.3 803.97C482.5 802.31 482.71 800.66 482.91 799C483.77 796.76 484.64 794.52 485.5 792.28C489.65 795.92 493.81 799.56 497.96 803.2ZM860.97 821.05C866.98 821.03 872.99 821.02 879 821C879.3 821.1 879.6 821.21 879.9 821.31C882.93 821.74 885.97 822.16 889 822.58C891.36 823.13 893.72 823.68 896.08 824.23C897.65 824.51 899.22 824.79 900.79 825.07C901.45 825.88 902.11 826.69 902.77 827.5C895 836.41 884.91 841.99 875 848.11C873.65 848.65 872.29 849.19 870.94 849.73C869.62 850.28 868.31 850.82 867 851.37C865.7 851.85 864.4 852.33 863.09 852.81C855.4 854.9 847.7 856.99 840 859.07C837.83 859.27 835.67 859.46 833.5 859.66C833.48 859.7 833.46 859.74 833.43 859.78C832.29 859.93 831.14 860.07 830 860.21C828 860.39 826 860.58 824 860.76C819.86 860.77 815.72 860.77 811.57 860.77C810.38 860.59 809.19 860.41 808 860.23C806.86 860.08 805.71 859.94 804.57 859.79C802.73 859.52 800.9 859.25 799.07 858.98C795.23 857.19 790.18 857.63 787.09 854.5C794.82 844.08 808.68 835.73 820.72 831.22C826.05 829.22 832.28 827.79 837.2 825.09C838.76 824.79 840.33 824.49 841.89 824.18C844.93 823.68 847.96 823.18 851 822.68C854.17 822.34 857.33 822.01 860.5 821.68C860.66 821.47 860.81 821.26 860.97 821.05ZM343.82 827.01C349.88 826.99 355.94 826.98 362 826.96C362.39 827.07 362.77 827.18 363.16 827.29C367.11 827.75 371.05 828.21 375 828.67C377.68 829.19 380.35 829.71 383.03 830.22C385.02 830.77 387.01 831.31 389 831.85C395.28 834.06 401.74 835.85 407.81 838.64C415.05 841.98 421.34 846.96 427.99 851.22C429.92 852.83 431.84 854.45 433.77 856.07C434.39 856.88 435.02 857.69 435.64 858.5C431.59 861.24 425.39 863.15 420.47 863.89C417.83 864.28 415.45 863.9 413 865.03C404.37 865.01 395.73 864.99 387.1 864.96C382.93 864.24 378.77 863.52 374.61 862.79C372.41 862.27 370.2 861.75 368 861.23C351.25 856.38 329.65 847.96 318.88 833.5C323.59 831.92 328.29 830.33 333 828.75C336.61 828.17 340.21 827.59 343.82 827.01ZM788 880.72C790.67 880.7 793.33 880.68 796 880.66C800.32 881.17 804.7 880.96 809.04 881.51C818.77 882.74 828.23 885.44 837.19 889.31C840.94 890.94 845.19 892.5 848 895.5C839.61 904.61 825.21 905.82 814.79 910.92C812.67 911.2 810.55 911.49 808.43 911.77C804.62 912.26 800.81 912.75 797 913.24C789.4 913.46 781.8 913.68 774.2 913.91C769.66 913.21 765.11 912.5 760.57 911.8C758.76 911.52 756.94 911.23 755.13 910.95C746.3 906.58 737.58 905.57 728.51 899.5C733.52 893.23 746.07 888.56 753.69 886.18C757.09 885.13 761.08 884.61 764.15 883.07C766.07 882.8 767.98 882.54 769.9 882.28C775.93 881.76 781.97 881.24 788 880.72ZM420.12 885.32C420.75 885.2 421.37 885.08 422 884.96C429.67 884.94 437.33 884.92 445 884.9C446.05 885.02 447.1 885.15 448.15 885.27C450.77 885.53 453.38 885.78 455.99 886.03C459.4 887.71 468.12 889.18 472.33 890.32C480.26 892.46 488.28 896.79 494.97 901.5C489.16 908.22 472.03 912.81 463.49 915.04C460.57 915.8 457.34 915.67 454.75 916.89C449.33 917.11 443.92 917.32 438.5 917.53C438.46 917.58 438.43 917.63 438.39 917.69C435.81 917.69 433.24 917.7 430.66 917.7C425.44 917.24 420.22 916.78 415 916.32C412.26 915.8 409.51 915.28 406.77 914.76C405.26 914.47 403.76 914.19 402.25 913.9C393.27 909.36 382.6 907.91 375.05 900.5C383.79 892.86 400.79 888.48 412 886.53C414.71 886.13 417.41 885.73 420.12 885.32Z" fill="#536542" fill-rule="evenodd" stroke="#536542" stroke-width="0.25" stroke-linejoin="round"/>
<path d="M739.25 499.14C742.47 499.3 745.7 499.45 748.92 499.61C745.64 499.63 742.36 499.65 739.08 499.67C739.14 499.49 739.2 499.32 739.25 499.14ZM475.97 502.62C473.62 502.61 471.27 502.6 468.92 502.58C471.27 502.6 473.62 502.61 475.97 502.62ZM798.28 627C798.52 627.17 798.76 627.33 799 627.5C799 628.83 799 630.17 799 631.5C798.77 631.67 798.54 631.83 798.3 632C798.3 630.33 798.29 628.67 798.28 627ZM870.89 628.96C869.76 629.93 868.63 630.89 867.5 631.86C867.31 631.39 867.12 630.92 866.93 630.45C867.46 630.45 867.98 630.44 868.5 630.44C869.17 629.78 869.83 629.11 870.5 628.45C870.63 628.62 870.76 628.79 870.89 628.96ZM531.09 913.18C532.39 913.7 533.7 914.22 535 914.75C538.69 916.23 542.37 917.71 546.06 919.2C547.37 919.7 548.69 920.21 550 920.72C563.5 925.47 577 930.23 590.5 934.98C591.86 933.68 591.86 934.23 591.84 932C591.91 930.42 591.99 928.84 592.07 927.25C594.05 927.34 596.04 927.42 598.02 927.5C598.59 930.83 599.16 934.17 599.72 937.5C602.26 938.88 603.68 939.03 606.5 938.74C606.56 937 606.61 935.25 606.67 933.5C608.77 933.4 610.87 933.29 612.97 933.19C613.03 935.96 613.09 938.73 613.15 941.5C613.44 941.61 613.72 941.72 614 941.83C614.33 941.81 614.67 941.79 615 941.76C615.22 941.68 615.44 941.59 615.66 941.5C615.75 938.67 615.85 935.83 615.94 933C616.29 932.64 616.65 932.29 617 931.93C618.69 931.95 620.37 931.97 622.06 931.99C622.25 934.39 622.44 936.8 622.64 939.2C624.59 938.77 626.55 938.34 628.5 937.91C628.83 934.85 629.17 931.8 629.5 928.75C631.23 928.66 632.97 928.58 634.7 928.5C635.3 930.8 635.9 933.1 636.5 935.4C644.67 932.5 652.83 929.61 661 926.72C662.3 926.21 663.61 925.71 664.91 925.2C668.61 923.7 672.3 922.2 676 920.7C677.29 920.19 678.58 919.68 679.87 919.17C684.42 917.13 688.96 915.08 693.5 913.04C694.38 914.53 695.26 916.01 696.14 917.5C691.13 921.78 683.03 923.92 676.89 926.46C667.71 930.25 658.62 934.39 649.25 937.7C645.02 939.18 640.54 940.35 636.5 942.22C636.59 944.31 636.69 946.41 636.78 948.5C638.55 949.06 640.32 949.63 642.09 950.19C643.64 950.5 645.2 950.81 646.75 951.12C649.17 951.82 651.58 952.53 653.99 953.23C655.99 953.79 658 954.34 660 954.9C661.63 955.37 663.26 955.84 664.9 956.3C666.6 956.77 668.3 957.23 670 957.69C672.05 958.19 674.11 958.68 676.16 959.17C677.75 959.47 679.34 959.76 680.93 960.06C683.34 960.76 685.74 961.47 688.14 962.17C689.73 962.47 691.31 962.77 692.9 963.06C695.55 963.82 698.21 964.57 700.86 965.32C702.91 965.8 704.95 966.28 707 966.76C709.04 967.26 711.09 967.77 713.13 968.27C714.99 968.56 716.85 968.84 718.71 969.13C721.44 969.86 724.17 970.59 726.9 971.31C728.53 971.57 730.16 971.82 731.79 972.07C733.79 972.55 735.8 973.02 737.8 973.5C736.2 974.69 734.6 975.88 733 977.06C731.66 977.63 730.32 978.2 728.98 978.77C727.16 979.24 725.18 980.54 723.37 980.77C720.61 981.13 716.82 979.26 714.02 978.75C712.45 978.45 710.88 978.15 709.32 977.85C703.49 976.17 697.67 974.49 691.85 972.82C690.3 972.52 688.75 972.22 687.2 971.92C670.63 966.99 654.07 962.07 637.5 957.15C637.3 960.6 637.1 964.05 636.9 967.5C635.84 967.96 634.78 968.41 633.73 968.87C632.57 968.6 631.41 968.32 630.25 968.05C630.14 964.37 630.03 960.68 629.92 957C629.87 956.5 629.83 956 629.78 955.5C628.56 954.99 627.35 954.48 626.13 953.96C624.59 953.61 623.04 953.25 621.5 952.9C621.17 954.35 620.83 955.81 620.5 957.26C619.68 957.4 618.87 957.54 618.05 957.68C616.87 957.55 615.68 957.42 614.5 957.29C614.36 960.82 614.21 964.35 614.07 967.88C612.21 967.9 610.36 967.91 608.5 967.93C608.28 966.29 608.05 964.64 607.83 963C607.38 959.45 606.94 955.9 606.5 952.35C606.29 952.53 606.08 952.72 605.87 952.91C604.82 953.23 603.77 953.56 602.73 953.88C602.32 953.98 601.91 954.08 601.5 954.17C601.56 956.15 601.61 958.13 601.67 960.11C602 964.57 602.34 969.04 602.67 973.5C602.11 973.73 601.56 973.95 601 974.18C599.83 974.37 598.67 974.57 597.5 974.77C597.09 974.51 596.68 974.24 596.27 973.97C596.12 972.65 595.98 971.32 595.83 970C595.39 965.66 594.94 961.32 594.5 956.99C592.98 957.23 591.45 957.47 589.93 957.71C587.95 958.24 585.98 958.78 584 959.31C582.38 959.8 580.75 960.29 579.13 960.77C574.08 962.23 569.04 963.68 564 965.14C562.01 965.68 560.01 966.22 558.02 966.76C555.61 967.48 553.21 968.2 550.8 968.92C549.24 969.21 547.68 969.51 546.12 969.8C543.69 970.51 541.25 971.21 538.82 971.92C537.24 972.21 535.66 972.51 534.08 972.8C531.65 973.5 529.22 974.2 526.79 974.9C525.22 975.2 523.64 975.5 522.07 975.79C520.05 976.26 518.02 976.73 516 977.2C513.67 977.71 511.34 978.23 509 978.75C507 979.22 505 979.69 503 980.16C500.67 980.5 498.33 980.83 496 981.16C492.76 978.82 488.62 976.98 486.78 973.5C488.62 973.05 490.46 972.59 492.3 972.14C494.2 971.85 496.1 971.57 498 971.29C501.08 970.56 504.16 969.83 507.24 969.09C508.87 968.84 510.5 968.58 512.14 968.32C515.17 967.58 518.2 966.85 521.23 966.11C523.13 965.82 525.04 965.54 526.95 965.25C529.97 964.5 532.98 963.76 536 963.01C537.61 962.73 539.23 962.45 540.84 962.17C542.89 961.7 544.95 961.22 547 960.74C549.29 960.23 551.58 959.71 553.87 959.2C556.32 958.5 558.77 957.8 561.22 957.11C562.79 956.81 564.36 956.51 565.93 956.21C568.34 955.5 570.74 954.79 573.15 954.08C574.71 953.78 576.28 953.48 577.85 953.18C579.23 952.75 580.62 952.32 582 951.89C584.01 951.35 586.03 950.8 588.04 950.26C589.78 949.67 591.52 949.09 593.26 948.5C593.61 946.61 593.76 944.59 592.4 942.96C591.17 941.5 588.38 941.3 586.7 940.78C581.75 939.23 577.04 937.02 571.99 935.78C570.66 935.26 569.33 934.74 568 934.21C556.95 929.19 545.29 925.09 534.02 920.51C529.25 918.57 522.75 916.98 519.03 913.5C519.85 912.03 520.68 910.55 521.5 909.08C524.7 910.45 527.89 911.81 531.09 913.18Z" fill="#151215" fill-rule="evenodd" stroke="#151215" stroke-width="0.25" stroke-linejoin="round"/>
<path d="M719 426.83C717.81 426.63 716.62 426.42 715.43 426.22C716.12 425.81 716.81 425.41 717.5 425C718 425.61 718.5 426.22 719 426.83ZM498.66 427.25C496.5 427.52 494.33 427.79 492.17 428.07C492.28 427.71 492.39 427.36 492.5 427C494.55 427.08 496.61 427.17 498.66 427.25ZM720 427.2C721.5 427.13 723 427.07 724.5 427C724.64 427.34 724.78 427.68 724.93 428.02C723.28 427.75 721.64 427.47 720 427.2ZM825.05 450.11C824.79 451.7 824.52 453.3 824.26 454.89C824.17 453.43 824.09 451.96 824 450.5C824.35 450.37 824.7 450.24 825.05 450.11ZM487.67 459.84C486.95 460.89 486.22 461.95 485.5 463C484.98 462.92 484.47 462.85 483.95 462.77C485.19 461.79 486.43 460.81 487.67 459.84ZM388.95 467.15C389.3 467.26 389.65 467.38 390 467.5C389.91 469.96 389.81 472.43 389.72 474.89C389.46 472.31 389.21 469.73 388.95 467.15ZM822.71 468C821.11 474.45 821.09 483.57 822.77 490C822.18 489.5 821.59 489 821 488.5C821 482.17 821 475.83 821 469.5C821.57 469 822.14 468.5 822.71 468ZM361.06 469.18C360.76 470.68 360.46 472.18 360.16 473.68C360.11 472.29 360.05 470.89 360 469.5C360.35 469.39 360.71 469.28 361.06 469.18ZM852.39 470C852.76 470 853.13 470 853.5 470C853.59 471.61 853.69 473.23 853.78 474.84C853.32 473.23 852.86 471.61 852.39 470ZM390.15 479C390.44 479.17 390.72 479.33 391 479.5C391 482.5 391 485.5 391 488.5C390.73 488.67 390.45 488.83 390.18 489C390.17 485.67 390.16 482.33 390.15 479ZM358.04 481.04C357.8 482.74 357.56 484.45 357.33 486.15C357.22 484.6 357.11 483.05 357 481.5C357.35 481.35 357.69 481.19 358.04 481.04ZM855.94 485.18C856.29 485.28 856.65 485.39 857 485.5C856.89 489.03 856.78 492.55 856.68 496.08C856.43 492.45 856.18 488.81 855.94 485.18ZM356.87 488C356.69 489.67 356.5 491.34 356.31 493.01C356.21 491.5 356.1 490 356 488.5C356.29 488.33 356.58 488.17 356.87 488ZM783.08 489.98C784.67 490.25 786.26 490.51 787.85 490.77C786.4 490.85 784.95 490.92 783.5 491C783.36 490.66 783.22 490.32 783.08 489.98ZM789 491.12C790.58 491.33 792.16 491.54 793.74 491.74C792.33 491.83 790.91 491.91 789.5 492C789.33 491.71 789.17 491.41 789 491.12ZM430 492.37C430 492.75 430 493.12 430 493.5C427.68 493.57 425.35 493.63 423.03 493.7C425.35 493.26 427.68 492.81 430 492.37ZM389.7 497.04C389.8 500.19 389.9 503.35 390 506.5C389.65 506.62 389.3 506.74 388.95 506.86C389.2 503.59 389.45 500.31 389.7 497.04ZM751 499.76C750.31 499.71 749.61 499.66 748.92 499.61C745.7 499.45 742.47 499.3 739.25 499.14C739.33 498.76 739.42 498.38 739.5 498C742.83 498 746.17 498 749.5 498C750 498.59 750.5 499.17 751 499.76ZM478 502.74C477.32 502.7 476.65 502.66 475.97 502.62C473.62 502.61 471.27 502.6 468.92 502.58C467.62 502.64 466.31 502.69 465 502.74C465.5 502.16 466 501.58 466.5 501C469.83 501 473.17 501 476.5 501C477 501.58 477.5 502.16 478 502.74ZM857.11 501C857.41 501.17 857.7 501.33 858 501.5C858 504.17 858 506.83 858 509.5C857.71 509.67 857.41 509.83 857.12 510C857.12 507 857.11 504 857.11 501ZM824.28 503.06C824.52 504.7 824.77 506.34 825.01 507.97C824.68 507.82 824.34 507.66 824 507.5C824.09 506.02 824.19 504.54 824.28 503.06ZM452.85 504.25C451.3 504.53 449.74 504.8 448.19 505.07C448.29 504.71 448.4 504.36 448.5 504C449.95 504.08 451.4 504.17 452.85 504.25ZM740.17 513.05C741.11 513.98 742.05 514.9 742.99 515.82C742.5 515.88 742 515.94 741.5 516C741 515.5 740.5 515 740 514.5C740.06 514.02 740.11 513.54 740.17 513.05ZM856.68 514.91C856.78 518.1 856.89 521.3 857 524.5C856.47 524.67 855.93 524.83 855.4 525C855.82 521.64 856.25 518.27 856.68 514.91ZM356.28 520.42C356.33 520.45 356.38 520.47 356.44 520.5C356.57 522.33 356.7 524.17 356.83 526C356.56 525.83 356.28 525.67 356 525.5C356.09 523.81 356.19 522.11 356.28 520.42ZM357.3 527.97C357.51 529.65 357.71 531.32 357.92 533C357.61 532.83 357.31 532.67 357 532.5C357.1 530.99 357.2 529.48 357.3 527.97ZM898.97 535.93C899.32 536.12 899.66 536.31 900 536.5C899.91 538.63 899.81 540.77 899.72 542.9C899.47 540.58 899.22 538.26 898.97 535.93ZM829.55 544C829.53 544.67 829.52 545.33 829.5 546C822.83 546 816.17 546 809.5 546C806.56 546 803.24 546.55 801.22 544.9C808.67 545.11 823.23 547.06 829.55 544ZM900.15 546C900.44 546.17 900.72 546.33 901 546.5C901 550.5 901 554.5 901 558.5C900.7 558.67 900.4 558.83 900.11 559C900.12 554.67 900.14 550.33 900.15 546ZM315.75 548C315.73 553.67 315.72 559.33 315.71 565C315.14 564.83 314.57 564.67 314 564.5C314 559.5 314 554.5 314 549.5C314.58 549 315.16 548.5 315.75 548ZM419.98 547.97C419.82 548.31 419.66 548.66 419.5 549C417.69 548.99 415.89 548.98 414.08 548.97C414.22 548.78 414.36 548.58 414.5 548.39C416.33 548.25 418.15 548.11 419.98 547.97ZM414.08 548.97C413.89 549.32 413.69 549.66 413.5 550C411.77 549.93 410.05 549.85 408.32 549.78C410.24 549.51 412.16 549.24 414.08 548.97ZM393 550.3C397 550.26 401 550.23 405 550.2C404.5 550.8 404 551.4 403.5 552C400 551.83 396.5 551.67 393 551.5C393 551.1 393 550.7 393 550.3ZM447.14 558.13C447.42 558.25 447.71 558.38 448 558.5C448 559.83 448 561.17 448 562.5C447.66 562.63 447.32 562.75 446.98 562.88C447.03 561.3 447.08 559.71 447.14 558.13ZM899.69 562.95C899.79 565.8 899.9 568.65 900 571.5C899.41 572 898.82 572.5 898.22 573C898.71 569.65 899.2 566.3 899.69 562.95ZM316.26 572.23C316.47 573.82 316.69 575.41 316.9 577C316.6 576.83 316.3 576.67 316 576.5C316.09 575.08 316.18 573.66 316.26 572.23ZM865.04 576.02C864.78 577.66 864.53 579.3 864.27 580.95C864.18 579.46 864.09 577.98 864 576.5C864.35 576.34 864.69 576.18 865.04 576.02ZM317.24 578.13C317.52 580.02 317.8 581.9 318.07 583.79C317.72 583.7 317.36 583.6 317 583.5C317.08 581.71 317.16 579.92 317.24 578.13ZM351.93 586.19C352.29 586.29 352.64 586.4 353 586.5C352.89 588.04 352.79 589.58 352.68 591.13C352.43 589.48 352.18 587.83 351.93 586.19ZM862.67 593C862.71 599.67 862.75 606.33 862.79 613C862.19 612.5 861.6 612 861 611.5C861 605.5 861 599.5 861 593.5C861.56 593.33 862.12 593.17 862.67 593ZM864.29 622.05C864.8 624.03 865.3 626.02 865.81 628C865.2 627.5 864.6 627 864 626.5C864.1 625.02 864.19 623.53 864.29 622.05ZM919.85 622.28C920.09 622.55 920.64 622.42 920.8 622.74C921.76 624.58 921 637.55 921 640.5C920.41 641 919.83 641.5 919.24 642C919.45 635.43 919.65 628.86 919.85 622.28ZM418.87 626.28C419.1 626.54 419.65 626.43 419.8 626.74C420.74 628.56 420 640.65 420 643.5C419.4 644 418.81 644.5 418.21 645C418.43 638.76 418.65 632.52 418.87 626.28ZM352.77 627.42C352.84 629.12 352.92 630.81 353 632.5C352.65 632.6 352.3 632.7 351.95 632.81C352.22 631.01 352.49 629.22 352.77 627.42ZM297.11 629.25C297.35 635.16 297.59 641.08 297.84 647C297.22 646.5 296.61 646 296 645.5C296 640.17 296 634.83 296 629.5C296.37 629.42 296.74 629.33 297.11 629.25ZM364.05 629.17C363.78 630.7 363.5 632.23 363.23 633.76C363.15 632.34 363.08 630.92 363 629.5C363.35 629.39 363.7 629.28 364.05 629.17ZM377 633.14C376.5 633.76 376 634.38 375.5 635C374.01 634.93 372.53 634.86 371.04 634.78C373.03 634.24 375.01 633.69 377 633.14ZM298.22 649.34C298.48 650.89 298.74 652.44 299 653.99C298.67 653.83 298.33 653.66 298 653.5C298.07 652.11 298.15 650.72 298.22 649.34ZM917.82 651.12C917.88 652.58 917.94 654.04 918 655.5C917.65 655.65 917.3 655.8 916.95 655.95C917.24 654.34 917.53 652.73 917.82 651.12ZM416.35 654C416.56 654.17 416.78 654.33 417 654.5C417 655.83 417 657.17 417 658.5C416.41 659 415.82 659.5 415.22 660C415.6 658 415.97 656 416.35 654ZM299.7 656C300.09 658 300.47 660 300.86 662C300.24 661.5 299.62 661 299 660.5C299 659.17 299 657.83 299 656.5C299.23 656.33 299.47 656.17 299.7 656ZM852.2 690C852.8 690.5 853.4 691 854 691.5C853.92 692.96 853.85 694.42 853.77 695.88C853.25 693.92 852.73 691.96 852.2 690ZM351.94 700.19C352.29 700.29 352.65 700.4 353 700.5C352.91 701.96 352.82 703.41 352.73 704.87C352.47 703.31 352.2 701.75 351.94 700.19ZM865.11 703.24C865.08 710.45 865.05 717.66 865.02 724.87C862.56 721.38 864 713.06 864 708.5C864 707.16 863.59 704.97 864.19 703.73C864.35 703.42 864.88 703.51 865.11 703.24ZM364.04 705C363.9 712.17 363.76 719.33 363.62 726.5C364.37 726.66 365.11 726.83 365.86 726.99C365.08 727.33 364.29 727.66 363.5 728C362.61 723.53 361.83 708.35 364.04 705ZM855.92 710.99C856.28 711.16 856.64 711.33 857 711.5C857 713.83 857 716.17 857 718.5C856.65 718.61 856.3 718.72 855.95 718.83C855.94 716.22 855.93 713.6 855.92 710.99ZM800.04 715.1C799.77 716.64 799.5 718.19 799.22 719.73C799.15 718.32 799.07 716.91 799 715.5C799.35 715.37 799.7 715.23 800.04 715.1ZM418.13 717C418.76 717.5 419.38 718 420 718.5C420 719.5 420 720.5 420 721.5C419.76 721.67 419.52 721.83 419.28 722C418.9 720.33 418.51 718.67 418.13 717ZM824.2 726C824.8 726.5 825.4 727 826 727.5C825.94 728.62 825.89 729.74 825.83 730.86C825.29 729.24 824.74 727.62 824.2 726ZM395.81 729C395.31 730.72 394.82 732.44 394.33 734.16C394.22 732.94 394.11 731.72 394 730.5C394.6 730 395.2 729.5 395.81 729ZM421.2 731C421.8 731.5 422.4 732 423 732.5C422.6 733.19 422.19 733.88 421.79 734.57C421.59 733.38 421.4 732.19 421.2 731ZM916 732.65C913.33 733.05 910.67 733.45 908 733.84C908.5 733.23 909 732.61 909.5 732C911.5 732 913.5 732 915.5 732C915.67 732.22 915.83 732.43 916 732.65ZM307 739.71C303.73 739.47 300.45 739.22 297.18 738.98C297.28 738.65 297.39 738.33 297.5 738C300.17 738 302.83 738 305.5 738C306 738.57 306.5 739.14 307 739.71ZM827.96 739.07C828.3 739.21 828.65 739.36 829 739.5C828.92 741.28 828.85 743.06 828.77 744.84C828.5 742.92 828.23 740.99 827.96 739.07ZM392.02 742C391.88 743.5 391.74 745 391.6 746.5C391.41 746.64 391.22 746.78 391.02 746.92C391.02 745.44 391.01 743.97 391 742.5C391.34 742.33 391.68 742.17 392.02 742ZM442.98 745.17C443.99 745.95 444.99 746.72 446 747.5C445.94 747.97 445.88 748.43 445.82 748.9C444.88 747.66 443.93 746.41 442.98 745.17ZM829.14 746C829.42 746.17 829.71 746.33 830 746.5C829.91 747.92 829.83 749.33 829.74 750.75C829.54 749.17 829.34 747.58 829.14 746ZM391.02 746.92C390.77 749.16 390.51 751.39 390.25 753.63C390.17 751.59 390.08 749.54 390 747.5C390.34 747.31 390.68 747.11 391.02 746.92ZM784 753.86C784.66 754.41 785.33 754.95 786 755.5C785.92 757 785.83 758.51 785.75 760.01C785.16 757.96 784.58 755.91 784 753.86ZM830.25 756C830.83 756.5 831.42 757 832 757.5C832 763.17 832 768.83 832 774.5C831.4 775 830.81 775.5 830.21 776C830.22 769.33 830.24 762.67 830.25 756ZM435.73 759C435.35 760.83 434.96 762.67 434.58 764.5C434.39 764.64 434.2 764.77 434.01 764.91C434.01 763.44 434 761.97 434 760.5C434.58 760 435.15 759.5 435.73 759ZM389.81 760C389.81 765.33 389.81 770.67 389.81 776C389.21 775.5 388.6 775 388 774.5C388 770.17 388 765.83 388 761.5C388.6 761 389.21 760.5 389.81 760ZM786.1 761C786.4 761.17 786.7 761.33 787 761.5C786.93 762.86 786.86 764.22 786.79 765.58C786.56 764.05 786.33 762.53 786.1 761ZM455.01 762.97C455.67 763.48 456.34 763.99 457 764.5C456.95 765.6 456.91 766.7 456.86 767.8C456.24 766.19 455.63 764.58 455.01 762.97ZM434.01 764.91C433.76 766.56 433.52 768.22 433.27 769.88C433.18 768.42 433.09 766.96 433 765.5C433.34 765.3 433.68 765.1 434.01 764.91ZM420.77 770.32C420.84 771.72 420.92 773.11 421 774.5C420.67 774.7 420.33 774.89 420 775.09C420.25 773.5 420.51 771.91 420.77 770.32ZM787.84 770.33C789.58 772.18 789 775.56 789 778.5C789 784.83 789 791.17 789 797.5C789 800.26 789.91 803.72 787.34 805C787.51 793.44 787.67 781.89 787.84 770.33ZM800.71 771C801.08 772.67 801.46 774.33 801.83 776C801.22 775.5 800.61 775 800 774.5C800 773.5 800 772.5 800 771.5C800.24 771.33 800.48 771.17 800.71 771ZM432.77 775C432.55 783.27 432.33 791.54 432.1 799.82C429.63 796.7 431 781.5 431 776.5C431.59 776 432.18 775.5 432.77 775ZM390.27 783.07C390.51 785.05 390.75 787.02 390.99 789C390.66 788.83 390.33 788.67 390 788.5C390.09 786.69 390.18 784.88 390.27 783.07ZM828.76 788.08C828.84 789.88 828.92 791.69 829 793.5C828.41 794 827.82 794.5 827.23 795C827.74 792.69 828.25 790.38 828.76 788.08ZM391.31 789.9C391.58 791.85 391.84 793.79 392.11 795.74C391.74 795.66 391.37 795.58 391 795.5C391.1 793.63 391.21 791.77 391.31 789.9ZM413.82 795.08C413.88 796.22 413.94 797.36 414 798.5C413.4 798.67 412.81 798.83 412.21 799C412.75 797.69 413.28 796.39 413.82 795.08ZM465.93 796.17C466.28 796.28 466.64 796.39 467 796.5C466.89 798.37 466.79 800.24 466.68 802.12C466.43 800.13 466.18 798.15 465.93 796.17ZM349.16 798.98C350.4 799.61 351.64 800.24 352.88 800.87C352.09 800.91 351.29 800.96 350.5 801C350.05 800.33 349.6 799.65 349.16 798.98ZM482.91 799C482.71 800.66 482.5 802.31 482.3 803.97C482.2 802.48 482.1 800.99 482 799.5C482.3 799.33 482.61 799.17 482.91 799ZM738.92 801.19C741.46 804.44 740 813.02 740 817.5C740 819.07 740.54 821.84 739.8 823.26C739.64 823.57 739.09 823.46 738.86 823.72C738.88 816.21 738.9 808.7 738.92 801.19ZM753.97 801C753.98 809.67 753.99 818.33 754 827C752.77 825.05 753 823 753 820.5C753 815.65 751.73 804.66 753.97 801ZM497.96 803.2C498.97 803.97 499.99 804.73 501 805.5C500.94 805.97 500.88 806.44 500.82 806.91C499.87 805.68 498.91 804.44 497.96 803.2ZM840.96 805.95C840.81 806.3 840.65 806.65 840.5 807C838.69 806.93 836.88 806.86 835.08 806.79C837.04 806.51 839 806.23 840.96 805.95ZM433.27 807.13C433.47 808.75 433.67 810.38 433.87 812C433.58 811.83 433.29 811.67 433 811.5C433.09 810.04 433.18 808.59 433.27 807.13ZM829.16 807.16C830.77 807.15 832.39 807.15 834 807.15C833.83 807.43 833.67 807.72 833.5 808C832.17 808 830.83 808 829.5 808C829.39 807.72 829.27 807.44 829.16 807.16ZM381 811.23C384.64 811.51 388.28 811.8 391.92 812.09C391.78 812.39 391.64 812.7 391.5 813C388.5 813 385.5 813 382.5 813C382 812.41 381.5 811.82 381 811.23ZM434.22 813.05C434.49 814.66 434.76 816.28 435.03 817.89C434.69 817.76 434.34 817.63 434 817.5C434.07 816.02 434.15 814.53 434.22 813.05ZM879 821C872.99 821.02 866.98 821.03 860.97 821.05C861.15 820.7 861.32 820.35 861.5 820C867.17 820 872.83 820 878.5 820C878.67 820.33 878.83 820.67 879 821ZM482.32 820.93C482.5 822.95 482.68 824.98 482.86 827C482.58 826.83 482.29 826.67 482 826.5C482.11 824.64 482.22 822.78 482.32 820.93ZM860.97 821.05C860.81 821.26 860.66 821.47 860.5 821.68C857.33 822.01 854.17 822.34 851 822.68C851.17 822.12 851.33 821.56 851.5 821C854.66 821.02 857.81 821.03 860.97 821.05ZM879.9 821.31C882.77 821.21 885.63 821.1 888.5 821C888.67 821.53 888.83 822.05 889 822.58C885.97 822.16 882.93 821.74 879.9 821.31ZM841.89 824.18C840.33 824.49 838.76 824.79 837.2 825.09C837.3 824.73 837.4 824.36 837.5 824C838.96 824.06 840.43 824.12 841.89 824.18ZM896.08 824.23C897.55 824.15 899.03 824.08 900.5 824C900.6 824.36 900.69 824.71 900.79 825.07C899.22 824.79 897.65 824.51 896.08 824.23ZM362 826.96C355.94 826.98 349.88 826.99 343.82 827.01C344.05 826.67 344.27 826.34 344.5 826C350.17 826 355.83 826 361.5 826C361.67 826.32 361.83 826.64 362 826.96ZM343.82 827.01C340.21 827.59 336.61 828.17 333 828.75C333.5 828.17 334 827.58 334.5 827C337.61 827 340.71 827.01 343.82 827.01ZM363.16 827.29C366.94 827.19 370.72 827.1 374.5 827C374.67 827.56 374.83 828.11 375 828.67C371.05 828.21 367.11 827.75 363.16 827.29ZM483.33 828.85C483.54 830.57 483.75 832.28 483.97 834C483.64 833.83 483.32 833.67 483 833.5C483.11 831.95 483.22 830.4 483.33 828.85ZM383.03 830.22C384.52 830.15 386.01 830.07 387.5 830C388 830.62 388.5 831.23 389 831.85C387.01 831.31 385.02 830.77 383.03 830.22ZM736.78 834.16C736.85 835.61 736.93 837.05 737 838.5C736.66 838.62 736.31 838.73 735.97 838.85C736.24 837.29 736.51 835.73 736.78 834.16ZM466.78 835.42C466.85 837.45 466.93 839.47 467 841.5C466.66 841.65 466.32 841.8 465.98 841.95C466.25 839.77 466.52 837.6 466.78 835.42ZM520.35 845C520.73 845 521.12 845 521.5 845C521.59 846.62 521.68 848.23 521.77 849.85C521.3 848.23 520.82 846.62 520.35 845ZM875 848.11C874.5 848.74 874 849.37 873.5 850C872.65 849.91 871.79 849.82 870.94 849.73C872.29 849.19 873.65 848.65 875 848.11ZM427.99 851.22C428.5 851.15 429 851.07 429.5 851C430.92 852.69 432.34 854.38 433.77 856.07C431.84 854.45 429.92 852.83 427.99 851.22ZM699.13 851.29C698.84 853.48 698.55 855.66 698.26 857.84C698.17 855.73 698.09 853.61 698 851.5C698.38 851.43 698.76 851.36 699.13 851.29ZM867 851.37C867 851.75 867 852.12 867 852.5C865.7 852.6 864.4 852.71 863.09 852.81C864.4 852.33 865.7 851.85 867 851.37ZM523.36 857C523.74 857 524.12 857 524.5 857C524.59 859.56 524.68 862.12 524.77 864.68C524.3 862.12 523.83 859.56 523.36 857ZM799.07 858.98C800.9 859.25 802.73 859.52 804.57 859.79C802.88 859.86 801.19 859.93 799.5 860C799.36 859.66 799.21 859.32 799.07 858.98ZM840 859.07C839.83 859.38 839.67 859.69 839.5 860C837.48 859.93 835.46 859.86 833.43 859.78C833.46 859.74 833.48 859.7 833.5 859.66C835.67 859.46 837.83 859.27 840 859.07ZM697.83 860C697.68 861.5 697.52 863 697.36 864.5C697.32 864.52 697.29 864.54 697.25 864.57C697.17 863.21 697.08 861.86 697 860.5C697.28 860.33 697.56 860.17 697.83 860ZM808 860.23C809.19 860.41 810.38 860.59 811.57 860.77C810.88 861.18 810.19 861.59 809.5 862C809 861.41 808.5 860.82 808 860.23ZM830 860.21C829.5 860.81 829 861.4 828.5 862C827 861.59 825.5 861.18 824 860.76C826 860.58 828 860.39 830 860.21ZM368 861.23C370.2 861.75 372.41 862.27 374.61 862.79C372.91 862.86 371.2 862.93 369.5 863C369 862.41 368.5 861.82 368 861.23ZM387.1 864.96C395.73 864.99 404.37 865.01 413 865.03C409.34 867.27 398.35 866 393.5 866C390.99 866 388.94 866.26 387.1 864.96ZM525.12 866C525.41 866.17 525.71 866.33 526 866.5C525.91 869 525.83 871.5 525.74 874C525.53 871.33 525.33 868.67 525.12 866ZM796 880.66C793.33 880.68 790.67 880.7 788 880.72C788.5 880.14 789 879.57 789.5 879C791.5 879 793.5 879 795.5 879C795.67 879.55 795.83 880.11 796 880.66ZM769.9 882.28C767.98 882.54 766.07 882.8 764.15 883.07C764.27 882.71 764.38 882.36 764.5 882C766.3 882.09 768.1 882.19 769.9 882.28ZM445 884.9C437.33 884.92 429.67 884.94 422 884.96C424.8 883.26 442.09 883.25 445 884.9ZM420.12 885.32C417.41 885.73 414.71 886.13 412 886.53C412.17 886.02 412.33 885.51 412.5 885C415.04 885.11 417.58 885.22 420.12 885.32ZM448.15 885.27C450.6 885.18 453.05 885.09 455.5 885C455.66 885.34 455.83 885.69 455.99 886.03C453.38 885.78 450.77 885.53 448.15 885.27ZM710 888.13C710 888.58 710 889.04 710 889.5C709.5 890 709 890.5 708.5 891C708.04 890.97 707.58 890.94 707.11 890.91C708.08 889.98 709.04 889.05 710 888.13ZM524.79 889C524.86 891.5 524.93 894 525 896.5C524.65 896.61 524.3 896.71 523.95 896.82C524.23 894.21 524.51 891.61 524.79 889ZM698.3 889.01C698.54 890.63 698.78 892.25 699.01 893.87C698.68 893.75 698.34 893.62 698 893.5C698.1 892 698.2 890.51 698.3 889.01ZM755.13 910.95C756.94 911.23 758.76 911.52 760.57 911.8C758.88 911.87 757.19 911.93 755.5 912C755.38 911.65 755.25 911.3 755.13 910.95ZM814.79 910.92C814.7 911.28 814.6 911.64 814.5 912C812.48 911.92 810.46 911.85 808.43 911.77C810.55 911.49 812.67 911.2 814.79 910.92ZM531.09 913.18C532.23 913.12 533.36 913.06 534.5 913C534.67 913.58 534.83 914.16 535 914.75C533.7 914.22 532.39 913.7 531.09 913.18ZM797 913.24C796.5 913.82 796 914.41 795.5 915C790.77 915 777.18 916.28 774.2 913.91C781.8 913.68 789.4 913.46 797 913.24ZM402.25 913.9C403.76 914.19 405.26 914.47 406.77 914.76C405.35 914.84 403.92 914.92 402.5 915C402.42 914.63 402.33 914.27 402.25 913.9ZM415 916.32C420.22 916.78 425.44 917.24 430.66 917.7C425.44 917.63 420.22 917.57 415 917.5C415 917.11 415 916.71 415 916.32ZM454.75 916.89C454.67 917.26 454.58 917.63 454.5 918C449.13 917.9 443.76 917.79 438.39 917.69C438.43 917.63 438.46 917.58 438.5 917.53C443.92 917.32 449.33 917.11 454.75 916.89ZM546.06 919.2C547.21 919.13 548.35 919.07 549.5 919C549.67 919.57 549.83 920.15 550 920.72C548.69 920.21 547.37 919.7 546.06 919.2ZM679.87 919.17C678.58 919.68 677.29 920.19 676 920.7C676.17 920.13 676.33 919.57 676.5 919C677.62 919.06 678.75 919.11 679.87 919.17ZM664.91 925.2C663.61 925.71 662.3 926.21 661 926.72C661.17 926.14 661.33 925.57 661.5 925C662.64 925.07 663.77 925.13 664.91 925.2ZM592.07 927.25C591.99 928.84 591.91 930.42 591.84 932C591.56 931.83 591.28 931.67 591 931.5C591 930.17 591 928.83 591 927.5C591.36 927.42 591.71 927.34 592.07 927.25ZM622.06 931.99C620.37 931.97 618.69 931.95 617 931.93C617.17 931.62 617.33 931.31 617.5 931C618.83 931 620.17 931 621.5 931C621.69 931.33 621.87 931.66 622.06 931.99ZM622.06 931.99C622.37 932.16 622.69 932.33 623 932.5C622.88 934.73 622.76 936.97 622.64 939.2C622.44 936.8 622.25 934.39 622.06 931.99ZM612.97 933.19C613.31 933.29 613.66 933.4 614 933.5C614 936.28 614 939.06 614 941.83C613.72 941.72 613.44 941.61 613.15 941.5C613.09 938.73 613.03 935.96 612.97 933.19ZM615.94 933C615.85 935.83 615.75 938.67 615.66 941.5C615.44 941.59 615.22 941.68 615 941.76C615 939.01 615 936.25 615 933.5C615.31 933.33 615.62 933.17 615.94 933ZM568 934.21C569.33 934.74 570.66 935.26 571.99 935.78C570.66 935.69 569.33 935.59 568 935.5C568 935.07 568 934.64 568 934.21ZM588.04 950.26C586.03 950.8 584.01 951.35 582 951.89C582.5 951.26 583 950.63 583.5 950C585.01 950.09 586.53 950.17 588.04 950.26ZM642.09 950.19C643.56 950.13 645.03 950.06 646.5 950C646.58 950.37 646.67 950.75 646.75 951.12C645.2 950.81 643.64 950.5 642.09 950.19ZM607.83 963C607.22 962.5 606.61 962 606 961.5C605.96 958.64 605.91 955.77 605.87 952.91C606.08 952.72 606.29 952.53 606.5 952.35C606.94 955.9 607.38 959.45 607.83 963ZM577.85 953.18C576.28 953.48 574.71 953.78 573.15 954.08C573.26 953.72 573.38 953.36 573.5 953C574.95 953.06 576.4 953.12 577.85 953.18ZM653.99 953.23C655.49 953.16 657 953.08 658.5 953C659 953.63 659.5 954.27 660 954.9C658 954.34 655.99 953.79 653.99 953.23ZM602.73 953.88C602.49 954.42 602.24 954.96 602 955.5C601.89 957.04 601.78 958.57 601.67 960.11C601.61 958.13 601.56 956.15 601.5 954.17C601.91 954.08 602.32 953.98 602.73 953.88ZM626.13 953.96C627.35 954.48 628.56 954.99 629.78 955.5C629.83 956 629.87 956.5 629.92 957C628.78 956.33 627.64 955.67 626.5 955C626.38 954.65 626.26 954.31 626.13 953.96ZM565.93 956.21C564.36 956.51 562.79 956.81 561.22 957.11C561.32 956.74 561.41 956.37 561.5 956C562.98 956.07 564.45 956.14 565.93 956.21ZM664.9 956.3C666.43 956.2 667.97 956.1 669.5 956C669.67 956.56 669.83 957.13 670 957.69C668.3 957.23 666.6 956.77 664.9 956.3ZM595.83 970C595.22 969.5 594.61 969 594 968.5C593.83 965 593.67 961.5 593.5 958C592.31 957.9 591.12 957.81 589.93 957.71C591.45 957.47 592.98 957.23 594.5 956.99C594.94 961.32 595.39 965.66 595.83 970ZM618.05 957.68C617.2 957.79 616.35 957.89 615.5 958C615.33 961.17 615.17 964.33 615 967.5C614.69 967.63 614.38 967.75 614.07 967.88C614.21 964.35 614.36 960.82 614.5 957.29C615.68 957.42 616.87 957.55 618.05 957.68ZM553.87 959.2C551.58 959.71 549.29 960.23 547 960.74C547.17 960.16 547.33 959.58 547.5 959C549.62 959.07 551.75 959.13 553.87 959.2ZM584 959.31C584 959.71 584 960.1 584 960.5C582.38 960.59 580.75 960.68 579.13 960.77C580.75 960.29 582.38 959.8 584 959.31ZM676.16 959.17C677.61 959.11 679.05 959.06 680.5 959C680.64 959.35 680.79 959.71 680.93 960.06C679.34 959.76 677.75 959.47 676.16 959.17ZM540.84 962.17C539.23 962.45 537.61 962.73 536 963.01C536.17 962.67 536.33 962.34 536.5 962C537.95 962.06 539.39 962.12 540.84 962.17ZM688.14 962.17C689.6 962.12 691.05 962.06 692.5 962C692.63 962.35 692.76 962.71 692.9 963.06C691.31 962.77 689.73 962.47 688.14 962.17ZM526.95 965.25C525.04 965.54 523.13 965.82 521.23 966.11C521.32 965.74 521.41 965.37 521.5 965C523.32 965.08 525.13 965.17 526.95 965.25ZM564 965.14C563.5 965.76 563 966.38 562.5 967C561.01 966.92 559.51 966.84 558.02 966.76C560.01 966.22 562.01 965.68 564 965.14ZM700.86 965.32C702.74 965.22 704.62 965.11 706.5 965C706.67 965.59 706.83 966.17 707 966.76C704.95 966.28 702.91 965.8 700.86 965.32ZM512.14 968.32C510.5 968.58 508.87 968.84 507.24 969.09C507.32 968.73 507.41 968.36 507.5 968C509.05 968.11 510.59 968.21 512.14 968.32ZM630.25 968.05C631.41 968.32 632.57 968.6 633.73 968.87C633.65 969.24 633.58 969.62 633.5 970C632.33 969.83 631.17 969.67 630 969.5C630.08 969.02 630.16 968.54 630.25 968.05ZM713.13 968.27C714.92 968.18 716.71 968.09 718.5 968C718.57 968.38 718.64 968.75 718.71 969.13C716.85 968.84 714.99 968.56 713.13 968.27ZM550.8 968.92C550.7 969.28 550.6 969.64 550.5 970C549.04 969.93 547.58 969.87 546.12 969.8C547.68 969.51 549.24 969.21 550.8 968.92ZM498 971.29C496.1 971.57 494.2 971.85 492.3 972.14C492.36 971.76 492.43 971.38 492.5 971C494.33 971.1 496.16 971.19 498 971.29ZM726.9 971.31C728.44 971.21 729.97 971.1 731.5 971C731.6 971.36 731.69 971.72 731.79 972.07C730.16 971.82 728.53 971.57 726.9 971.31ZM538.82 971.92C538.71 972.28 538.61 972.64 538.5 973C537.03 972.93 535.56 972.87 534.08 972.8C535.66 972.51 537.24 972.21 538.82 971.92ZM687.2 971.92C688.75 972.22 690.3 972.52 691.85 972.82C690.4 972.88 688.95 972.94 687.5 973C687.4 972.64 687.3 972.28 687.2 971.92ZM596.27 973.97C596.68 974.24 597.09 974.51 597.5 974.77C598.67 974.57 599.83 974.37 601 974.18C600.5 974.78 600 975.39 599.5 976C598.33 975.83 597.17 975.67 596 975.5C596.09 974.99 596.18 974.48 596.27 973.97ZM526.79 974.9C526.69 975.27 526.6 975.63 526.5 976C525.02 975.93 523.55 975.86 522.07 975.79C523.64 975.5 525.22 975.2 526.79 974.9ZM516 977.2C515.5 977.8 515 978.4 514.5 979C512.67 978.92 510.84 978.83 509 978.75C511.34 978.23 513.67 977.71 516 977.2ZM733 977.06C732.5 977.71 732 978.35 731.5 979C730.66 978.92 729.82 978.85 728.98 978.77C730.32 978.2 731.66 977.63 733 977.06ZM709.32 977.85C710.88 978.15 712.45 978.45 714.02 978.75C712.51 978.83 711.01 978.92 709.5 979C709.44 978.62 709.38 978.23 709.32 977.85ZM503 980.16C502.5 980.78 502 981.39 501.5 982C499.83 982 498.17 982 496.5 982C496.33 981.72 496.17 981.44 496 981.16C498.33 980.83 500.67 980.5 503 980.16Z" fill="#ffffff" fill-rule="evenodd" stroke="#ffffff" stroke-width="0.25" stroke-linejoin="round"/>
</svg>