<?xml version="1.0" encoding="UTF-8"?>
<svg xmlns="http://www.w3.org/2000/svg" viewBox="0 0 821 625" width="821" height="625">
<path d="M379.18 0.11C401.82 0.11 424.46 0.11 447.11 0.11C447.11 23.86 447.11 47.61 447.12 71.36C445.19 73.25 445.82 77.95 445.77 80.73C445.67 87.12 446.18 93.65 445.77 100.01C445.53 103.66 444.5 108.7 446.33 112C445.06 112.84 443.8 113.67 442.53 114.51C436.43 114.5 430.33 114.49 424.23 114.49C422.53 113.48 421.18 113.08 419.32 113.73C417.51 120.76 418.69 129.67 418.76 136.94C418.79 139.43 419.43 140.44 418.75 142.83C419.7 144.36 419.94 145.24 419.97 147.07C419.76 147 419.54 146.93 419.32 146.85C418.47 148.6 418.08 149.56 418.67 151.49C419.32 151.56 419.98 151.63 420.63 151.7C420.9 150.81 421.16 149.92 421.43 149.04C421.83 148.93 422.23 148.82 422.64 148.71C422.84 145 423.04 141.29 423.25 137.58C427.61 136.66 435.22 135.32 439.59 136.41C440.9 136.73 442.13 137.6 443.51 137.92C442.03 144.03 443.88 151.01 443.35 157.21C442.34 168.87 442.24 182 443.35 193.81C443.73 197.86 442.65 202.14 442.92 206.23C443.74 218.7 442.85 231.66 443.3 244.25C443.51 250.11 442.21 256.28 443.51 262.12C440.84 263.83 438.66 264.31 435.34 263.93C431.53 263.5 427.71 263.07 423.9 262.63C423.36 263.07 422.81 263.51 422.27 263.95C420.13 265.75 420.77 268.84 420.78 271.6C420.79 276.42 419.64 290.54 421.49 294.15C420.41 295.04 420.49 294.98 420.16 296.44C420.72 297.06 421.34 297.62 421.59 298.42C421.97 299.59 421.82 311.5 421.44 312C420.6 313.1 421.32 311.69 420.11 312.78C422.84 317.41 419.49 318.78 420.87 321.32C420.37 324.19 421.6 328.27 420.14 330.9C418.72 333.46 406.69 333.41 404.33 332.02C403.55 331.57 402.98 330.69 402.33 330.1C403.41 326.78 403.87 321.05 402.73 317.74C403.85 313.93 403.06 308.96 403.07 304.93C403.1 295.13 402.85 285.32 402.84 275.52C402.84 271.9 404.32 264.38 401.68 261.73C401.14 262.02 400.61 262.31 400.08 262.6C395.55 265.32 382.44 264.05 376.8 263.75C374.2 260.73 375.31 257.77 375.3 253.95C375.27 246.76 375.3 239.57 375.3 232.38C375.3 211.02 375.3 189.67 375.3 168.32C375.3 160.01 373.96 145.25 375.53 137.78C376.73 137.39 377.93 137 379.12 136.6C383.26 136.5 387.4 136.39 391.54 136.29C393.13 137.31 394.96 139.02 396.12 138.25C395.79 142.1 395.47 145.96 395.14 149.82C397.9 149.61 397.64 149.57 398.88 147.54C402.01 142.42 398.27 142.35 398.41 137.54C398.89 137.95 399.1 139.16 399.69 138.94C400.6 138.59 400.17 133.84 400.17 133.02C400.2 126.73 400.46 120.28 400.24 114.06C398.16 113.65 396.81 113.52 394.81 114.36C390.67 114.41 386.53 114.46 382.39 114.5C380.7 113.53 379.9 113.37 378.8 111.69C378.79 111.75 378.79 111.81 378.78 111.87C379.95 108.12 379.94 93.42 378.86 89.54C378.75 83.85 378.63 78.15 378.52 72.46C380.63 69.04 379.28 56.49 379.28 51.97C379.28 34.7 379.73 17.36 379.18 0.11ZM399.7 40.53C399.7 50.77 399.7 61.01 399.7 71.25C399.4 71.79 399.1 72.34 398.8 72.88C399.32 74.12 399.85 75.35 400.37 76.59C401.13 75.57 401.89 74.55 402.66 73.54C407.56 73.75 412.46 73.97 417.36 74.19C421.41 79.47 415.95 90.54 419.98 95.12C422.28 95.03 425.92 93.41 426.99 91.51C428.23 89.92 428.21 74.36 427.01 72.56C426.95 61.63 426.88 50.7 426.82 39.76C428.01 38.17 428.06 23.54 426.99 21.57C426.58 19.52 426 18.64 424.55 17.15C420.89 21.53 422.79 33.45 422.27 39.55C417.04 39.33 411.81 39.11 406.58 38.89C405.91 37.93 404.75 37.03 404.4 35.88C402.69 30.2 405.67 23.58 403.64 17.86C402.38 18.34 401.13 18.81 399.87 19.28C398.77 23.59 397.4 36.82 399.7 40.53ZM395.94 167.34C395.78 167.41 395.62 167.48 395.47 167.54C395.34 175.31 395.21 183.07 395.08 190.83C395.08 191.51 395.08 192.18 395.08 192.86C395.08 207 395.08 221.14 395.08 235.28C395.12 236.13 395.15 236.97 395.18 237.81C394.09 242.21 398.05 246.2 402.25 246.76C402.96 244.31 403.24 241.67 402.37 239.24C403.93 236.42 403.05 230.55 402.31 227.47C402.76 226.71 403.21 225.95 403.66 225.19C408.98 223.84 417.27 223.01 421.29 227.08C423.71 222.65 422.76 217.04 422.77 212.11C422.77 201.65 422.76 191.2 422.77 180.74C422.77 177.27 424.33 168.55 421.29 166.58C418.85 168.77 419.91 174.16 419.98 177.47C418.45 178.73 417.95 180.78 416.23 181.88C413.17 183.84 403.45 182.66 400.53 180.74C400.26 176.16 400 171.59 399.73 167.01C398.03 166.64 397.37 166.46 395.94 167.34ZM421.29 229.74C421.29 234.27 421.29 238.79 421.29 243.32C421.29 238.79 421.29 234.27 421.29 229.74ZM493.33 395.59C513.49 395.6 533.65 395.61 553.81 395.62C557.44 398.73 557.12 402.41 558.8 406.41C562.35 414.85 568.78 421.9 576.65 426.48C579.21 427.97 580.22 429.25 583.39 428.8C586.2 432.25 593.05 433.66 597.12 432.72C596.74 434.69 600.52 434.34 602.04 434.61C607.7 435.64 613.09 436.45 619.04 436.2C627.51 436.2 635.98 436.2 644.45 436.2C646.65 436.24 648.85 436.28 651.05 436.32C652.25 441.88 653.44 447.43 654.64 452.99C652.75 455.81 648.55 454.9 645.49 454.78C637.89 454.47 630.22 454.78 622.61 454.78C598.43 454.78 574.24 454.79 550.06 454.78C543.38 454.78 527.07 452.85 522.08 456.58C521.87 458.44 522.72 460.54 522.26 462.45C522.04 463.36 521.28 463.7 520.99 464.55C520.16 466.93 519.65 477.98 520.32 480.12C517.33 482.83 517.57 488.95 516.6 492.69C515.42 497.23 512.56 501.21 512.8 505.93C509.91 507.42 510.41 511.58 508.67 514.18C507.19 516.38 506.49 518.96 505.26 521.34C502.26 527.13 498.85 532.85 495.59 538.41C493.75 541.54 488.55 545.27 488.61 549.08C485.93 549.68 484.14 553.82 482.31 555.83C480.32 558 478.82 560.17 477.08 562.31C473.28 567.01 467.3 570.36 464.1 575.55C462.38 575.5 453.08 583.57 452.33 585.35C450.19 585.07 448.26 587.44 446.51 588.63C440.95 592.42 435.43 596.66 429.42 599.44C424.5 601.71 419.51 604.51 414.26 606.22C412.69 606.73 409.31 607.44 409.52 609.21C405.58 608.74 401.22 611.16 397.39 612.54C395.01 613.4 392.32 613.03 389.92 613.76C386.6 614.76 382.66 615.95 379.33 616.68C376.99 617.19 374.04 616.65 371.61 616.8C362.14 617.39 352.18 618.16 342.83 616.84C339.38 616.36 335.64 617.27 332.25 616.35C326.74 614.86 319.2 612.03 313.43 613.14C314.58 611.22 309.95 611.06 308.26 610.41C302.41 608.2 296.37 606.02 290.56 603.38C276.09 596.82 263.24 586.56 251.74 574.81C237.61 560.37 227.92 541.68 221.29 523.03C219.04 516.68 217.95 509.73 216.36 503.28C215.6 500.25 216.55 494.32 213.75 492.53C214.9 482.29 212.25 470.79 213.74 460.72C215.45 458.87 215.97 450.32 214.54 448.15C216.94 444.43 216.14 432.41 217.43 427.5C220.16 417.12 221.7 405.98 226.82 396.45C231.52 396.64 235.35 401.02 239.57 400.7C239.5 402.86 245.62 403.76 245.63 408.21C245.65 415.46 244.56 423.21 245.8 430.42C246.78 436.09 247.79 442.28 248.93 448.09C249.4 450.46 251.16 452.22 251.78 454.32C252.05 455.2 251.76 456.26 251.96 457.24C252.53 460.01 256.41 469.43 258.52 470.64C258.17 473.38 260.37 475.09 261.64 477.29C265.03 483.2 269.42 490.58 275.19 494.5C275.98 497.46 279.21 499.38 281.44 501.33C286.76 506 294.77 513.13 301.02 515.82C303.74 517 306.06 519.7 309.18 519.33C311.67 523.7 324.77 525.71 329.63 527.38C335.03 529.24 340.41 530.08 346.13 530.99C347.74 531.24 349.68 530.72 351.22 531.09C351.84 531.24 352.09 531.81 352.71 532.01C356.04 533.1 371.27 532.92 374.87 532.14C375.72 531.95 376.18 531.32 376.96 531.16C381.28 530.27 385.93 530.71 390.27 529.46C396.32 527.72 402.65 527.28 408.43 524.51C409.88 523.81 413.55 523.13 413.44 521.62C418.03 522.23 422.54 517.25 426.82 515.63C429.13 514.76 430.68 513 432.74 511.75C440.06 507.33 447.1 500.92 453.07 494.57C454.54 493 455.34 491.22 456.85 489.68C459.81 486.65 464.39 481.73 464.75 477.5C467.03 475.82 468.18 473.73 468.68 470.96C470.51 470.84 475.94 457.62 475.54 455.6C478.22 454.16 479.22 445.67 480.34 442.56C481.39 439.63 481.32 436.27 482.24 433.4C483.03 430.95 484.5 428.44 485.1 425.86C485.44 424.41 485.05 422.71 485.48 421.29C486.34 418.48 487.31 415.51 488.22 412.77C488.98 410.5 488.57 407.79 489.4 405.6C490.41 402.92 491.28 400.29 491.23 397.43C491.93 396.82 492.63 396.2 493.33 395.59ZM512.98 412.08C497.18 415.34 501.29 439.26 516.8 436.91C533.69 434.36 529.12 408.75 512.98 412.08Z" fill="#da242c" fill-rule="evenodd" stroke="#da242c" stroke-width="0.25" stroke-linejoin="round"/>
<path d="M426.99 21.57C428.06 23.54 428.01 38.17 426.82 39.76C426.88 33.7 426.93 27.64 426.99 21.57ZM447.12 71.36C447.12 81.02 447.13 90.68 447.07 100.34C447.05 103.78 448.01 109.21 446.33 112C444.5 108.7 445.53 103.66 445.77 100.01C446.18 93.65 445.67 87.12 445.77 80.73C445.82 77.95 445.19 73.25 447.12 71.36ZM378.52 72.46C378.63 78.15 378.75 83.85 378.86 89.54C379.94 93.42 379.95 108.12 378.78 111.87C377.11 109.8 377.9 105.22 377.9 102.3C377.9 95.33 377.9 88.35 377.9 81.38C377.9 78.63 377.3 74.59 378.52 72.46ZM427.01 72.56C428.21 74.36 428.23 89.92 426.99 91.51C427 85.19 427 78.88 427.01 72.56ZM395.47 167.54C395.62 167.48 395.78 167.41 395.94 167.34C397.35 184.64 396.07 202.58 396.07 219.96C396.07 223.5 397 235.98 395.18 237.81C395.15 236.97 395.12 236.13 395.08 235.28C395.08 221.14 395.08 207 395.08 192.86C395.08 192.18 395.08 191.51 395.08 190.83C395.21 183.07 395.34 175.31 395.47 167.54ZM435.34 263.93C430.98 263.94 426.62 263.95 422.27 263.95C422.81 263.51 423.36 263.07 423.9 262.63C427.71 263.07 431.53 263.5 435.34 263.93ZM421.49 294.15C421.64 294.09 421.79 294.03 421.94 293.97C422.37 294.25 422.81 294.53 423.25 294.81C423.39 295.25 423.54 295.68 423.68 296.12C422.61 298.11 423.65 301.31 423.75 303.63C423.99 308.53 422.72 313.92 423.17 318.66C423.28 319.76 423.73 320.2 423.57 321.4C423.25 321.69 422.92 321.98 422.59 322.28C422.02 321.96 421.44 321.64 420.87 321.32C419.49 318.78 422.84 317.41 420.11 312.78C421.32 311.69 420.6 313.1 421.44 312C421.82 311.5 421.97 299.59 421.59 298.42C421.34 297.62 420.72 297.06 420.16 296.44C420.49 294.98 420.41 295.04 421.49 294.15ZM398.45 318.3C398.44 316.98 399.13 316.72 399.37 315.37C399.52 314.54 398.83 314.12 398.83 313.43C398.83 307.34 400.45 301.26 397.97 295.43C398.55 295.24 399.13 295.06 399.71 294.87C399.87 302.15 400.02 309.42 400.17 316.7C399.58 318.08 399.86 317.83 398.45 318.3ZM553.81 395.62C533.65 395.61 513.49 395.6 493.33 395.59C496.17 393.73 502.59 394.83 506.26 394.82C517.37 394.82 528.49 394.83 539.6 394.82C543.49 394.82 550.84 393.56 553.81 395.62ZM214.54 448.15C215.97 450.32 215.45 458.87 213.74 460.72C213.77 456.73 213.81 452.73 213.84 448.74C214.07 448.54 214.31 448.34 214.54 448.15ZM384.35 455.52C394.81 455.51 405.27 455.5 415.73 455.5C418.32 453.98 421.84 455.95 424.55 455.69C425.12 455.63 425.75 454.93 426.5 454.83C435.43 453.56 445.3 454.97 454.3 454.97C457.94 454.98 461.69 454.08 464.95 455.93C466.01 460.77 462.79 463.07 461.14 467.16C459.24 471.85 456.4 476.2 453.89 480.69C452.53 483.11 449.94 484.83 448.47 487.04C447.79 488.07 447.63 489.18 446.68 490.16C443.6 493.32 437.54 497.32 435.67 501.14C433.14 502.1 431.8 504.85 428.8 504.95C427.33 506.97 425.31 508.89 422.92 508.88C421.72 511.05 419.87 511.46 417.69 512.36C412.92 514.32 403.82 520.51 398.73 519.99C396.72 522.69 394.45 521.55 391.34 522.29C387.48 523.21 383.46 524.9 379.45 525.08C376.91 525.2 372.73 524.28 370.8 525.73C366.55 525.73 362.29 525.73 358.04 525.73C355.02 524.18 351.22 525.71 347.99 524.95C339.73 522.99 324.57 521.42 318.33 516.07C314.19 516.36 308.6 512.63 305.23 510.23C304.12 509.44 302.95 509.18 301.78 508.5C299.94 507.42 298.45 505.47 296.8 504.15C295.81 503.36 294.59 503.01 293.55 502.32C290.79 500.5 286.15 495.51 283.6 492.96C281.37 490.75 276.19 485.92 276.17 483.06C273.67 481.66 273.3 479.81 271.96 477.44C270.69 475.21 268.67 473.02 267.3 470.94C265.94 468.86 265.72 466.37 264.66 464.16C263.04 460.76 260.49 458.59 263.1 454.92C272.71 454.03 282.82 454.79 292.51 454.79C312.12 454.79 331.73 454.79 351.34 454.79C358.97 454.79 366.6 454.79 374.22 454.8C377.25 454.8 381.77 453.96 384.35 455.52Z" fill="#9a9d8b" fill-rule="evenodd" stroke="#9a9d8b" stroke-width="0.25" stroke-linejoin="round"/>
<path d="M397.97 295.43C400.45 301.26 398.83 307.34 398.83 313.43C398.83 314.12 399.52 314.54 399.37 315.37C399.13 316.72 398.44 316.98 398.45 318.3C397.41 321.48 395.44 324.33 395.96 327.81C397.39 337.51 409.9 344.6 418.38 338.31C423.03 334.86 428.34 326.64 423.57 321.4C423.73 320.2 423.28 319.76 423.17 318.66C422.72 313.92 423.99 308.53 423.75 303.63C423.65 301.31 422.61 298.11 423.68 296.12C427.84 296.21 430.91 299.23 433.81 301.89C442.95 310.28 447.49 325.37 442.81 337.24C440.56 342.94 436.86 348.74 432.01 352.59C429.89 354.27 427.35 355.42 425.53 357.44C423.5 359.46 425.79 373.65 426.36 377.16C426.74 385.39 427.96 393.5 428.92 401.68C430.02 411.02 430.5 420.41 431.65 429.75C432.2 434.23 434.75 445.71 431.74 448.95C429.67 449.18 427.6 449.41 425.53 449.64C413.32 449.81 401.11 449.99 388.9 450.17C388.03 449.97 387.17 449.78 386.31 449.58C385.05 447.5 385.59 445.52 385.85 443.21C388.53 436.18 388.24 425.79 389.22 418.17C390.86 405.31 393.23 392.42 394.42 379.51C394.84 374.93 395.29 370.26 396.02 365.72C396.32 363.87 397.58 360.77 397.03 358.97C396.21 356.28 388.18 351.8 385.77 349.29C381.29 344.6 379.57 338.96 377.26 333.19C377.26 328.7 377.25 324.22 377.24 319.73C380.44 310.93 384.08 303.18 392.37 297.9C394.31 296.67 395.59 295.35 397.97 295.43ZM515.52 418.48C521.99 416.49 525.14 426.2 518.52 427.92C512.98 429.36 509.9 420.21 515.52 418.48Z" fill="#000000" fill-rule="evenodd" stroke="#000000" stroke-width="0.25" stroke-linejoin="round"/>
<path d="M399.7 40.53C399.7 50.77 399.7 61.01 399.7 71.25C399.7 61.01 399.7 50.77 399.7 40.53ZM378.52 72.46C378.63 78.15 378.75 83.85 378.86 89.54C378.75 83.85 378.63 78.15 378.52 72.46ZM382.39 114.5C386.53 114.46 390.67 114.41 394.81 114.36C394.7 114.59 394.59 114.82 394.49 115.04C390.56 115.04 386.64 115.04 382.72 115.04C382.61 114.86 382.5 114.68 382.39 114.5ZM424.23 114.49C430.33 114.49 436.43 114.5 442.53 114.51C440.44 115.59 426.28 115.59 424.23 114.49ZM391.54 136.29C387.4 136.39 383.26 136.5 379.12 136.6C379.23 136.39 379.34 136.18 379.45 135.96C383.48 136.07 387.51 136.18 391.54 136.29ZM419.97 147.07C420.08 147.62 420.19 148.16 420.3 148.71C420.68 148.82 421.05 148.93 421.43 149.04C421.16 149.92 420.9 150.81 420.63 151.7C419.98 151.63 419.32 151.56 418.67 151.49C418.08 149.56 418.47 148.6 419.32 146.85C419.54 146.93 419.76 147 419.97 147.07ZM395.47 167.54C395.34 175.31 395.21 183.07 395.08 190.83C395.21 183.07 395.34 175.31 395.47 167.54ZM395.08 192.86C395.08 207 395.08 221.14 395.08 235.28C395.08 221.14 395.08 207 395.08 192.86ZM402.31 227.47C403.05 230.55 403.93 236.42 402.37 239.24C402.35 235.32 402.33 231.4 402.31 227.47ZM421.29 229.74C421.29 234.27 421.29 238.79 421.29 243.32C421.29 238.79 421.29 234.27 421.29 229.74ZM402.73 317.74C400.64 314.59 402 306.92 402 302.97C402 289.9 402 276.83 402 263.75C401.36 263.37 400.72 262.99 400.08 262.6C400.61 262.31 401.14 262.02 401.68 261.73C404.32 264.38 402.84 271.9 402.84 275.52C402.85 285.32 403.1 295.13 403.07 304.93C403.06 308.96 403.85 313.93 402.73 317.74ZM377.24 319.73C377.25 324.22 377.26 328.7 377.26 333.19C376.9 333.03 376.54 332.87 376.18 332.71C376.18 328.57 376.18 324.43 376.18 320.29C376.54 320.11 376.89 319.92 377.24 319.73ZM425.53 357.44C426.57 359.25 427.32 375.08 426.36 377.16C425.79 373.65 423.5 359.46 425.53 357.44ZM512.98 412.08C529.12 408.75 533.69 434.36 516.8 436.91C501.29 439.26 497.18 415.34 512.98 412.08ZM515.52 418.48C509.9 420.21 512.98 429.36 518.52 427.92C525.14 426.2 521.99 416.49 515.52 418.48ZM619.04 436.2C627.51 436.2 635.98 436.2 644.45 436.2C635.98 436.2 627.51 436.2 619.04 436.2ZM385.85 443.21C385.59 445.52 385.05 447.5 386.31 449.58C385.98 449.63 385.66 449.67 385.33 449.72C384.79 449.18 384.24 448.63 383.7 448.09C383.7 447.21 383.7 446.34 383.7 445.47C384.14 445.25 384.57 445.04 385.01 444.82C385.12 444.05 385.23 443.29 385.33 442.53C385.51 442.76 385.68 442.99 385.85 443.21ZM425.53 449.64C423.93 452.12 418.81 451.03 416.06 451.03C406.9 451.03 397.75 451.03 388.6 451.03C387.96 450.34 387.77 450.77 388.9 450.17C401.11 449.99 413.32 449.81 425.53 449.64ZM384.35 455.52C394.81 455.51 405.27 455.5 415.73 455.5C405.27 455.5 394.81 455.51 384.35 455.52ZM358.04 525.73C362.29 525.73 366.55 525.73 370.8 525.73C366.55 525.73 362.29 525.73 358.04 525.73Z" fill="#ffffff" fill-rule="evenodd" stroke="#ffffff" stroke-width="0.25" stroke-linejoin="round"/>
</svg>