<?xml version="1.0" encoding="UTF-8"?>
<svg xmlns="http://www.w3.org/2000/svg" viewBox="0 0 937 1280" width="937" height="1280">
<path d="M494.72 339.13C495.45 339.51 496.18 339.89 496.91 340.28C500.2 343.51 503.5 346.74 506.79 349.98C507.18 350.7 507.57 351.42 507.95 352.14C508.53 354.46 509.1 356.78 509.68 359.11C509.78 359.74 509.89 360.37 510 361C510.23 364.67 510.46 368.34 510.7 372.01C510.83 373.67 510.95 375.34 511.08 377C511.28 379.37 511.48 381.73 511.68 384.1C511.76 384.4 511.83 384.7 511.91 385C512.87 388.83 517.25 391.85 520.88 393.12C523.4 399.39 521.96 408.18 521.94 414.92C521.6 415.27 521.26 415.62 520.93 415.97C519.29 415.06 517.64 414.14 516 413.23C513.71 411.72 511.42 410.21 509.13 408.7C507.42 407.45 505.71 406.2 504 404.95C501.99 404.24 501.38 404.63 499.84 406.06C496.06 411.72 492.28 417.38 488.5 423.04C484.5 416.83 480.5 410.61 476.5 404.4C472.25 404.67 468.82 406.95 465.93 409.92C464.3 410.87 462.66 411.82 461.03 412.77C459.52 413.12 458.01 413.47 456.5 413.83C456.04 413.15 455.57 412.48 455.11 411.81C455.58 406.41 454.59 399.97 456.94 395.02C457.37 394.36 457.81 393.7 458.24 393.05C459.18 391.76 460.12 390.48 461.06 389.2C461.46 388.48 461.85 387.75 462.25 387.03C463.16 381.02 464.06 375.01 464.97 369C465.06 368.63 465.16 368.26 465.26 367.89C465.48 366.6 465.7 365.3 465.92 364C466.04 363.32 466.16 362.64 466.28 361.95C466.35 360.72 466.43 359.49 466.5 358.26C462.28 357.72 460.67 358.67 457.91 361.73C456.94 361.73 455.98 361.74 455.02 361.74C454.68 360.5 454.35 359.25 454.02 358C454.11 357.69 454.2 357.39 454.29 357.08C454.9 354.48 455.52 351.88 456.13 349.27C457.17 347.2 458.21 345.12 459.25 343.04C460.65 341.65 462.08 339.35 463.96 338.51C466.7 337.28 470.55 337.83 473.5 337.8C480.73 337.73 487.65 337.87 494.72 339.13ZM485.11 343.5C481.19 343.66 474.3 344.1 471.27 346.5C473.03 352.63 483.99 351.75 485.11 343.5ZM203 375.09C205.67 375.06 208.33 375.04 211 375.01C266.67 375.02 322.33 375.04 378 375.05C378.33 375.06 378.67 375.06 379 375.07C381.33 375.08 383.67 375.1 386 375.12C386.67 375.1 387.33 375.09 388 375.08C391 375.07 394 375.07 397 375.06C397.33 375.06 397.67 375.05 398 375.04C403.63 375.07 409.27 375.09 414.9 375.12C417.85 379.6 416.36 383.18 414.9 387.9C413.1 389.1 411.29 390.3 409.49 391.5C410.24 392.37 410.99 393.24 411.73 394.11C413.13 394.84 414.52 395.57 415.91 396.3C420.97 397.23 426.03 398.16 431.1 399.09C437.37 399.41 443.65 399.73 449.92 400.05C449.82 405.83 448.23 417.74 451.5 422.22C453.31 421.53 455.11 420.84 456.92 420.14C461.35 417.11 465.77 414.07 470.2 411.03C470.97 410.45 471.73 409.86 472.5 409.28C480.41 414.66 480.37 427.23 488.5 432.25C495.55 427.12 496.42 415.92 502.92 410.01C504.24 410.66 505.56 411.32 506.88 411.98C511.25 415.05 515.63 418.13 520 421.21C521.5 421.58 523 421.96 524.5 422.33C524.68 421.52 524.86 420.71 525.04 419.89C525.42 414.7 525.79 409.51 526.16 404.31C526.51 403.23 526.86 402.14 527.22 401.05C534.14 400.8 541.07 400.55 548 400.3C550.07 399.91 552.14 399.52 554.21 399.12C557.17 398.12 560.14 397.11 563.1 396.11C563.57 396.04 564.03 395.97 564.5 395.9C564.39 394.61 564.28 393.32 564.17 392.02C562.49 390.59 560.81 389.15 559.13 387.71C558.96 383.8 558.87 380.5 560.88 377.02C637.53 377.04 714.18 377.05 790.83 377.07C791.12 378.35 791.41 379.63 791.71 380.92C791.12 382.26 790.52 383.61 789.93 384.95C789.24 386.2 788.54 387.44 787.85 388.68C785.65 390.68 784.13 393.37 781.88 395.4C779.99 397.11 777.63 398.28 775.71 399.87C760.37 402.8 742.28 400.95 726.5 400.96C695.83 400.96 665.17 401.03 634.5 400.99C619.05 400.96 602.84 399.59 587.5 401.32C586.96 402.13 586.42 402.93 585.89 403.73C582.38 409.61 579.72 415.05 574.12 419.58C568.17 424.41 560.77 426.6 554.69 430.85C551.77 431.8 548.84 432.76 545.92 433.71C543.58 434.45 541.23 435.19 538.89 435.92C537.3 436.2 535.72 436.47 534.13 436.75C532.09 437.18 530.04 437.62 528 438.06C527.13 438.54 526.26 439.02 525.39 439.5C525.49 456.98 525.6 474.47 525.7 491.95C526.42 493.73 527.14 495.51 527.85 497.3C528.82 499.86 529.79 502.43 530.75 504.99C531.13 505.74 531.51 506.49 531.9 507.24C532.51 508.83 533.13 510.42 533.74 512.01C534.47 513.74 535.19 515.47 535.92 517.2C536.9 519.92 537.92 521.53 537.33 524.5C534.67 525.18 532.28 524.9 529.52 525.21C524.13 525.81 518.61 527.32 515.47 521.07C513.11 516.38 513.33 511.05 510.48 506.5C507.11 506.14 504.74 507.26 501.44 507.75C497.26 508.37 492.73 508.73 488.5 508.88C480.31 509.18 472.49 506.91 464.5 506.06C460.75 512.61 460.9 527.15 451.5 527.35C449.32 527.4 447.1 526.53 445 526.02C444.65 525.92 444.3 525.82 443.96 525.71C440.93 524.82 438.45 525.64 435.92 523.5C435.97 522.67 436.02 521.85 436.06 521.02C436.74 519.71 437.42 518.4 438.09 517.08C439.37 514.39 440.65 511.69 441.93 509C442.36 507.97 442.79 506.94 443.22 505.92C443.82 504.26 444.42 502.6 445.02 500.94C446.35 498.29 447.67 495.65 448.99 493C449.43 491.3 449.87 489.59 450.31 487.89C452.33 477.68 450.81 461.39 450.86 450.5C450.88 446.84 452.39 439.6 449.12 437.88C447.75 437.58 446.37 437.29 445 437C444.67 436.9 444.33 436.81 444 436.71C440.73 435.78 437.46 434.84 434.19 433.9C432.82 433.51 431.44 433.11 430.07 432.72C428.12 432.11 426.16 431.51 424.21 430.91C422.47 430.19 420.73 429.46 419 428.74C416.98 427.82 414.96 426.9 412.94 425.98C411.69 425.3 410.43 424.63 409.18 423.95C406.15 421.88 403.12 419.8 400.09 417.73C398.47 416.14 396.85 414.56 395.23 412.98C392.53 408.89 389.82 404.81 387.11 400.72C383.1 398.3 376.22 399.35 371.5 399.36C360.15 399.38 348.84 399.76 337.5 399.91C307.51 400.33 277.49 399.98 247.5 399.97C231.67 399.97 212.03 402.1 197 398.02C190.52 393.39 186.98 388.78 182.97 382C182.81 380.26 182.66 378.52 182.5 376.77C188.28 373.49 196.54 375.79 203 375.09ZM329.74 405.09C330.12 405.49 330.5 405.88 330.88 406.28C331.5 407.82 332.12 409.36 332.74 410.91C333.77 413.72 334.8 416.52 335.83 419.33C336.47 421.21 337.11 423.08 337.75 424.96C337.33 426.07 336.92 427.18 336.5 428.29C304.66 428.42 272.81 428.55 240.97 428.68C239.4 428.42 237.83 428.15 236.27 427.89C232 424.04 229.04 421.01 226.03 416C225.45 414.65 224.86 413.3 224.27 411.95C224.17 411.63 224.06 411.32 223.96 411C223.99 409.02 224.02 407.04 224.05 405.06C259.28 405.07 294.51 405.08 329.74 405.09ZM382.74 404.11C385.27 407.22 388.77 409.9 386.78 413.97C385.23 414.92 383.67 415.86 382.11 416.81C378.99 418.51 375.87 420.2 372.74 421.9C370.85 422.87 368.97 423.84 367.08 424.81C363.3 426.84 359.51 428.86 355.73 430.89C352 432.66 349.82 434.1 346.24 431C344.13 424.86 335.67 410.68 338.16 405.01C353.02 404.71 367.88 404.41 382.74 404.11ZM636.97 407.02C636.96 408.97 636.95 410.91 636.94 412.86C636.53 413.87 636.12 414.88 635.7 415.88C634.8 417.92 633.89 419.96 632.99 422C631.57 424.98 630.15 427.96 628.73 430.95C627.28 433.33 626.72 435.32 624.11 436.7C620.42 436.45 618.45 433.92 615.05 432.74C613.79 432.12 612.53 431.5 611.27 430.89C607.2 428.84 603.13 426.79 599.06 424.74C597.79 424.13 596.53 423.51 595.26 422.89C591.76 420.25 587.69 419.89 585.5 415.74C587.39 412.83 589.27 409.93 591.16 407.02C596.87 405.1 604.43 406.23 610.42 406.46C619.21 406.79 628.25 405.97 636.97 407.02ZM747.79 406.1C748.14 406.5 748.5 406.9 748.85 407.3C748.51 409.43 748.18 411.56 747.85 413.69C747.15 415.46 746.44 417.23 745.74 419.01C744.79 420.91 743.83 422.81 742.87 424.7C742.51 425.13 742.15 425.55 741.79 425.98C740.86 426.91 739.92 427.85 738.99 428.79C738.56 429.14 738.12 429.5 737.69 429.86C735.96 430.4 734.26 431.41 732.45 431.78C724.18 433.44 714.87 432.02 706.5 431.92C691.16 431.74 675.84 431.87 660.5 431.58C654.83 431.47 649.17 431.62 643.5 431.6C640.81 431.6 638.22 432.13 636.3 430.07C638.96 422.4 641.62 414.74 644.28 407.07C649.09 404.33 667.13 405.75 673.5 405.75C698.22 405.75 723.15 405 747.79 406.1ZM390.08 417.31C391.03 417.63 391.99 417.94 392.95 418.25C394.54 419.54 396.12 420.84 397.71 422.13C399.09 423.59 400.48 425.04 401.87 426.5C398.81 431.29 395.76 436.08 392.7 440.87C391.76 442.16 390.83 443.44 389.89 444.73C384.76 451.11 379.63 457.5 374.5 463.88C372.01 461.85 369.52 459.82 367.03 457.78C366.1 456.84 365.16 455.89 364.23 454.95C360.38 449.57 354.01 445.15 352.42 438.5C363.68 432.36 374.95 426.22 386.21 420.08C387.5 419.16 388.79 418.24 390.08 417.31ZM581.29 421.13C582.43 421.46 583.57 421.79 584.71 422.12C586.67 424.4 589.17 425.27 591.81 426.66C599.84 430.88 615.16 436.06 620.91 442.5C617.85 446.96 614.78 451.42 611.71 455.89C608 458.84 605.27 464.67 600.23 464.91C597.1 462.45 595.03 459.09 592.56 455.94C587.88 449.98 582.87 444.28 578.29 438.25C575.8 434.97 572.66 432.76 572.46 428.5C575.4 426.04 578.35 423.59 581.29 421.13ZM413.83 432.07C415.57 432.79 417.3 433.51 419.03 434.23C420.59 436.81 420.22 439.09 419.97 442C419.87 442.29 419.77 442.58 419.68 442.86C418.77 446.24 417.85 449.62 416.94 453C416.7 453.17 416.46 453.33 416.22 453.5C415.81 456 415.39 458.5 414.98 461C413.89 464.99 412.8 468.98 411.72 472.98C410.58 475.96 410.38 478.53 408.08 480.99C406.42 480.96 404.75 480.93 403.09 480.9C401.8 480.24 400.51 479.58 399.22 478.91C397.79 478.2 396.36 477.49 394.93 476.78C393 475.84 391.07 474.91 389.13 473.97C385.84 471.43 381.99 470.29 379.91 466.5C383.02 462.02 386.13 457.53 389.24 453.05C390.18 451.78 391.13 450.51 392.08 449.24C396.48 443.19 400.88 437.14 405.28 431.09C408.73 429.73 410.63 430.94 413.83 432.07ZM570.91 436.25C571.87 437.51 572.82 438.77 573.77 440.02C580.51 448.41 587.25 456.79 593.99 465.18C594.64 466.78 595.29 468.39 595.94 470C594.95 470.92 593.95 471.84 592.96 472.76C589.94 474.5 586.92 476.23 583.91 477.97C582.23 478.88 580.56 479.79 578.88 480.71C577.22 481.47 575.55 482.23 573.89 482.99C571.96 483.3 570.03 483.62 568.1 483.93C564.42 480.59 564.13 473.51 561.9 469C561.37 467.29 560.84 465.58 560.31 463.87C559.9 462.85 559.5 461.82 559.09 460.8C558.48 458.88 557.87 456.97 557.26 455.06C556.15 452.04 555.04 449.02 553.93 446C553.32 443.72 552.72 441.44 552.11 439.16C555.68 435.56 562.49 432.62 567.5 432.41C568.64 433.69 569.77 434.97 570.91 436.25ZM316.91 434.32C318.27 434.21 319.64 434.11 321 434.01C327.6 434.03 334.21 434.05 340.81 434.08C346.55 441.72 352.28 449.36 358.02 457C357.87 459.09 357.9 458.64 356.5 459.89C340.21 460.37 323.81 459.93 307.5 459.92C296.15 459.92 284.36 460.88 273.21 458.91C272.52 458.5 271.83 458.1 271.14 457.69C270.12 456.82 269.1 455.95 268.09 455.07C265.75 450.99 263.41 446.9 261.07 442.82C260.91 440.71 260.75 438.61 260.6 436.5C265.17 433.63 272.18 434.97 277.5 434.98C285.83 435.01 294.17 434.85 302.5 434.76C307.23 434.71 312.27 435.08 316.91 434.32ZM705.72 437.14C706.47 437.51 707.23 437.88 707.98 438.25C707.95 440.46 707.92 442.68 707.89 444.9C707.24 446.57 706.6 448.24 705.95 449.92C704.86 451.9 703.77 453.88 702.68 455.86C701.12 457.5 699.56 459.14 697.99 460.78C697.3 461.17 696.61 461.57 695.92 461.96C686.65 464.37 676.07 463.16 666.5 463.17C649.16 463.19 631.83 463.42 614.5 463.55C614.37 462.45 614.25 461.34 614.12 460.24C618.84 453.85 623.55 447.46 628.26 441.07C630.01 439.43 631.75 437.79 633.5 436.15C657.57 436.48 681.65 436.81 705.72 437.14ZM428.3 437.14C432.82 438.11 437.33 439.08 441.85 440.05C442.55 440.44 443.24 440.84 443.94 441.24C443.79 456.55 443.65 471.86 443.5 487.17C437.61 488.76 431.02 486.2 425 485.95C421.7 485.21 418.4 484.47 415.1 483.73C415.09 481.82 415.08 479.91 415.08 477.99C415.7 475.66 416.33 473.33 416.95 471C418.04 466.95 419.13 462.91 420.22 458.86C421.17 454.9 422.12 450.93 423.07 446.97C423.75 444.4 424.43 441.84 425.11 439.27C426.17 438.56 427.24 437.85 428.3 437.14ZM540 440.89C545.32 440.48 546.5 439.97 548.77 444.86C549.83 447.91 550.9 450.97 551.96 454.02C552.89 457 553.83 459.98 554.76 462.96C556.89 468.97 559.01 474.99 561.14 481C561.24 482.83 561.34 484.67 561.44 486.5C555.34 489.38 537.77 491.07 531.12 490C529.4 486.26 530.17 481.57 530.19 477.5C530.22 470.17 530.22 462.83 530.19 455.5C530.17 451.4 529.63 447.26 531.37 443.5C534.25 442.63 537.12 441.76 540 440.89ZM483.5 513.85C485.98 519.18 484.32 530.26 482.99 535.99C476.4 535.99 469.8 535.99 463.21 535.99C462.85 529.47 465.79 519.46 468.5 513.43C472.82 511.48 479.1 512.24 483.5 513.85ZM504.6 513.5C506.63 518.19 510.7 529.63 510.38 534.5C506.69 537.22 494.58 536.85 490.01 535.5C489.39 528.85 488.6 519.74 491.16 513.5C495.67 512.39 500.22 511.8 504.6 513.5ZM442.88 532.12C442.93 535.41 442.98 538.71 443.03 542C442.92 542.3 442.82 542.59 442.71 542.89C441.49 543.52 440.27 544.15 439.05 544.78C434.95 544.58 434.83 542.04 433.1 538.84C432.9 535.99 432.7 533.14 432.5 530.29C436.83 527.09 439.65 528.52 442.88 532.12ZM523.03 543.97C519.69 544.47 517.5 544.23 514.62 542.5C514.16 537.96 513.64 532.87 515.5 528.64C519.4 528.3 523.07 530.6 525.46 533.5C524.65 536.99 523.84 540.48 523.03 543.97ZM426.71 529.11C427.45 532.41 428.19 535.7 428.94 539C428.92 540.63 428.91 542.26 428.89 543.9C422.57 547.26 421.33 544.8 419.28 539.02C419.19 538.68 419.09 538.34 419 538C419 536.06 419.01 534.11 419.02 532.17C420.03 531.46 421.04 530.74 422.06 530.02C423.61 529.72 425.16 529.42 426.71 529.11ZM537.91 541.8C537.51 542.83 537.11 543.85 536.72 544.88C534.91 544.87 533.1 544.87 531.29 544.86C530.55 544.49 529.81 544.12 529.07 543.75C528.51 539.11 528.18 532.88 531.5 529.28C534.58 529.53 536.54 530.33 538.79 532.5C538.5 535.6 538.2 538.7 537.91 541.8ZM545.12 529.12C546.75 529.09 548.37 529.05 550 529.01C550.28 529.11 550.57 529.22 550.85 529.32C552.88 531.47 553.6 532.67 553.85 535.7C553.58 536.47 553.3 537.23 553.03 538C552.66 539.64 552.29 541.29 551.92 542.93C550.45 543.91 548.97 544.88 547.5 545.85C546.07 545.07 544.64 544.28 543.21 543.5C543.85 538.71 544.49 533.92 545.12 529.12ZM449.2 544.94C448.8 544.57 448.4 544.2 448.01 543.84C446.88 540.35 446.3 535.73 447.9 532.5C451.13 530.17 454.08 530.47 457.5 532.33C458.19 536.29 457.18 541.45 454.41 544.5C452.67 544.65 450.94 544.79 449.2 544.94ZM456 583.11C455.04 582.97 454.09 582.83 453.13 582.68C449.98 580.88 449.85 579.67 450.01 576C450.42 574.66 450.84 573.32 451.25 571.98C452.53 569.02 453.81 566.06 455.09 563.09C455.96 562.9 456.82 562.7 457.69 562.5C459.12 564.53 465.6 578.47 465.87 580.65C466.01 581.85 465.65 582.31 465.5 583.43C462.33 583.33 459.17 583.22 456 583.11ZM517.02 563.28C518.65 563.61 520.28 563.94 521.91 564.26C522.57 565.53 523.24 566.8 523.91 568.06C524.52 569.71 525.13 571.36 525.74 573.01C526.23 574.67 526.72 576.34 527.21 578C527.76 579.23 528.3 580.46 528.85 581.69C528.47 582.09 528.1 582.49 527.72 582.88C521.25 584.86 513.73 587.29 506.91 587.01C505.87 584.16 507.18 582.59 508.48 580.03C510.8 575.49 512.81 565.57 517.02 563.28Z" fill="#df242c" fill-rule="evenodd" stroke="#df242c" stroke-width="0.25" stroke-linejoin="round"/>
<path d="M415.05 540.06C415.39 540.54 415.74 541.02 416.09 541.5C415.69 542.64 415.3 543.77 414.91 544.91C411.53 547.28 406.87 554.57 403.28 555.73C399.13 557.08 393.44 555.57 389.11 555.88C388.77 555.42 388.43 554.96 388.09 554.5C388.41 553.68 388.73 552.85 389.04 552.03C392.48 549.52 394.81 545.19 398.63 543.09C403.04 540.67 410.1 540.69 415.05 540.06ZM496.93 601.93C491.34 603.4 482.11 603.98 477.09 600.91C475.77 597.9 474.44 594.9 473.11 591.9C472.03 584.95 468.84 577.8 466.36 571.17C465.3 568.32 463.67 565.46 463.16 562.45C462.57 558.9 462.91 555.09 462.89 551.5C462.87 547.96 462.66 544.51 463.5 541.1C479.15 541.23 494.79 541.37 510.44 541.5C512.63 545.03 512.07 549.36 512.25 553.5C512.61 561.49 509.33 567.74 506.54 575.02C503.17 583.79 499.35 592.91 496.93 601.93ZM577.69 546.15C578.09 546.52 578.49 546.9 578.89 547.28C580.59 549.86 582.28 552.44 583.98 555.01C580.63 555.77 571.31 556.45 568.25 555.33C564.37 553.9 557.61 545.43 557.23 541.5C560.82 540.93 569.95 541.67 573.29 543.21C574.89 543.94 576.2 545.29 577.69 546.15ZM385.97 548.81C385.58 549.19 385.19 549.58 384.8 549.96C381.92 551.98 380.09 554.21 376.5 554.82C375.87 551.71 375.24 548.61 374.61 545.5C378.37 542.88 384.32 542.43 388.9 542.5C387.93 544.6 386.95 546.71 385.97 548.81ZM594.95 544.07C596.54 547.14 596.21 550.58 595.5 553.87C590.56 553.68 584.46 548.89 584.5 543.74C587.98 543.85 591.47 543.96 594.95 544.07ZM372.14 551.24C369.84 551.24 367.55 551.24 365.26 551.24C365.26 549.52 365.26 547.8 365.26 546.07C369.19 544.89 370.65 548.1 372.14 551.24ZM600.12 547.12C600.92 546.74 601.71 546.36 602.5 545.97C606.36 546.79 607.01 547.63 606.58 551.5C604.45 551.5 602.31 551.5 600.18 551.5C600.16 550.04 600.14 548.58 600.12 547.12ZM413.96 552.13C414.35 551.75 414.75 551.36 415.14 550.98C416.19 550.26 417.27 549.27 418.54 548.99C421 548.46 432.1 547.42 434.5 547.78C434.62 548.78 435.03 549.24 434.81 550.33C434.28 552.83 429.73 557.18 427.3 557.66C424.72 558.16 422.07 557.34 419.5 557.12C416.66 556.89 414.37 557.24 412.16 555.5C412.76 554.38 413.36 553.26 413.96 552.13ZM533.74 553.09C534.11 553.82 534.49 554.55 534.87 555.28C534.96 556.36 535.05 557.43 535.15 558.5C529.82 558.66 524.49 558.83 519.16 558.99C518.83 558.55 518.49 558.12 518.16 557.68C518.61 554.66 519.05 551.65 519.5 548.64C528 546.06 527.89 548.17 533.74 553.09ZM436.1 558.9C441.27 548.65 445.99 547.08 457.17 549.5C457.93 552.76 457.63 555.35 456.58 558.5C449.75 558.63 442.92 558.77 436.1 558.9ZM538.06 548.07C540.92 548.65 543.83 549.24 546.73 549.54C552.35 550.13 558.96 549.5 558.88 556.88C553.28 556.9 547.68 556.91 542.07 556.92C540.11 553.85 538.08 551.96 538.06 548.07ZM493.96 1279.83C489.35 1279.83 484.73 1279.83 480.12 1279.83C480.32 1056.39 480.51 832.94 480.71 609.5C484.97 609.46 489.24 609.42 493.5 609.38C493.65 832.86 493.81 1056.35 493.96 1279.83Z" fill="#020102" fill-rule="evenodd" stroke="#020102" stroke-width="0.25" stroke-linejoin="round"/>
<path d="M494.72 339.13C487.65 337.87 480.73 337.73 473.5 337.8C470.55 337.83 466.7 337.28 463.96 338.51C462.08 339.35 460.65 341.65 459.25 343.04C459.63 340.31 461.51 338.99 463.5 337C470.83 337 478.17 337 485.5 337C489.05 337 492.46 336.4 494.72 339.13ZM496.91 340.28C497.77 340.18 498.64 340.09 499.5 340C502 342.5 504.5 345 507 347.5C506.93 348.33 506.86 349.15 506.79 349.98C503.5 346.74 500.2 343.51 496.91 340.28ZM485.11 343.5C483.99 351.75 473.03 352.63 471.27 346.5C474.3 344.1 481.19 343.66 485.11 343.5ZM456.13 349.27C455.52 351.88 454.9 354.48 454.29 357.08C454.19 355.22 454.1 353.36 454 351.5C454.33 350.83 454.67 350.17 455 349.5C455.38 349.42 455.75 349.35 456.13 349.27ZM507.95 352.14C508.64 352.59 509.32 353.05 510 353.5C509.89 355.37 509.78 357.24 509.68 359.11C509.1 356.78 508.53 354.46 507.95 352.14ZM454.02 358C454.35 359.25 454.68 360.5 455.02 361.74C454.51 361.83 454.01 361.91 453.5 362C453.33 360.83 453.17 359.67 453 358.5C453.34 358.33 453.68 358.17 454.02 358ZM466.28 361.95C466.02 360.97 465.76 359.98 465.5 359C464.5 359 463.5 359 462.5 359C461.5 360 460.5 361 459.5 362C458.97 361.91 458.44 361.82 457.91 361.73C460.67 358.67 462.28 357.72 466.5 358.26C466.43 359.49 466.35 360.72 466.28 361.95ZM510 361C510.33 361.17 510.67 361.33 511 361.5C510.9 365 510.8 368.51 510.7 372.01C510.46 368.34 510.23 364.67 510 361ZM465.92 364C465.7 365.3 465.48 366.6 465.26 367.89C464.84 367.1 464.42 366.3 464 365.5C464.64 365 465.28 364.5 465.92 364ZM464.97 369C464.06 375.01 463.16 381.02 462.25 387.03C461.88 383.23 461.38 378.91 463 375.5C463 373.83 463 372.17 463 370.5C463.66 370 464.31 369.5 464.97 369ZM203 375.09C196.54 375.79 188.28 373.49 182.5 376.77C182.66 378.52 182.81 380.26 182.97 382C181.98 380.83 180.99 379.67 180 378.5C183.63 372.71 189.89 372.03 196.47 373.03C197.18 373.14 197.99 373.75 198.66 373.78C201.13 373.89 201.37 372.62 203 375.09ZM378 375.05C322.33 375.04 266.67 375.02 211 375.01C212.98 372.17 216.25 373 219.5 373C227.5 373 235.5 373 243.5 373C276.17 373 308.83 373 341.5 373C350.5 373 359.5 373 368.5 373C371.94 373 375.93 372 378 375.05ZM386 375.12C383.67 375.1 381.33 375.08 379 375.07C379 374.54 379 374.02 379 373.5C380.17 373.33 381.33 373.17 382.5 373C383.5 373.33 384.5 373.67 385.5 374C385.67 374.37 385.83 374.74 386 375.12ZM397 375.06C394 375.07 391 375.07 388 375.08C388.17 374.38 388.33 373.69 388.5 373C391.1 373.94 392.77 373.18 395.5 373C396 373.69 396.5 374.37 397 375.06ZM414.9 375.12C409.27 375.09 403.63 375.07 398 375.04C398.5 374.36 399 373.68 399.5 373C404.17 373 408.83 373 413.5 373C413.97 373.71 414.43 374.41 414.9 375.12ZM414.9 375.12C415.43 375.08 415.97 375.04 416.5 375C417 375.83 417.5 376.67 418 377.5C418 379.83 418 382.17 418 384.5C416.97 385.63 415.93 386.77 414.9 387.9C416.36 383.18 417.85 379.6 414.9 375.12ZM790.83 377.07C714.18 377.05 637.53 377.04 560.88 377.02C564.51 374.84 571.1 376 575.5 376C586.83 376 598.17 376 609.5 376C652.5 376 695.5 376 738.5 376C751.17 376 763.83 376 776.5 376C780.61 376 787.81 374.77 790.83 377.07ZM511.08 377C511.39 377.17 511.69 377.33 512 377.5C511.89 379.7 511.79 381.9 511.68 384.1C511.48 381.73 511.28 379.37 511.08 377ZM560.88 377.02C558.87 380.5 558.96 383.8 559.13 387.71C558.75 387.64 558.38 387.57 558 387.5C557.67 386.17 557.33 384.83 557 383.5C557.33 382.17 557.67 380.83 558 379.5C558.5 378.67 559 377.83 559.5 377C559.96 377.01 560.42 377.02 560.88 377.02ZM791.71 380.92C791.81 381.78 791.9 382.64 792 383.5C791.31 383.98 790.62 384.47 789.93 384.95C790.52 383.61 791.12 382.26 791.71 380.92ZM511.91 385C514.9 387.71 517.89 390.41 520.88 393.12C517.25 391.85 512.87 388.83 511.91 385ZM789.93 384.95C789.95 385.8 789.98 386.65 790 387.5C789.28 387.89 788.57 388.29 787.85 388.68C788.54 387.44 789.24 386.2 789.93 384.95ZM414.9 387.9C413.93 389.1 412.97 390.3 412 391.5C411.91 392.37 411.82 393.24 411.73 394.11C410.99 393.24 410.24 392.37 409.49 391.5C411.29 390.3 413.1 389.1 414.9 387.9ZM461.06 389.2C460.12 390.48 459.18 391.76 458.24 393.05C458.16 392.53 458.08 392.02 458 391.5C459.02 390.73 460.04 389.97 461.06 389.2ZM564.17 392.02C564.28 393.32 564.39 394.61 564.5 395.9C564.03 395.97 563.57 396.04 563.1 396.11C563.4 395.57 563.7 395.04 564 394.5C564.06 393.67 564.11 392.85 564.17 392.02ZM520.88 393.12C521.42 393.41 521.96 393.71 522.5 394C523.34 398.19 524.1 411.88 521.94 414.92C521.96 408.18 523.4 399.39 520.88 393.12ZM456.94 395.02C454.59 399.97 455.58 406.41 455.11 411.81C454.74 411.71 454.37 411.6 454 411.5C454 406.5 454 401.5 454 396.5C454.5 396 455 395.5 455.5 395C455.98 395.01 456.46 395.01 456.94 395.02ZM415.91 396.3C418.11 396.2 420.3 396.1 422.5 396C424.83 396.33 427.17 396.67 429.5 397C430.03 397.7 430.56 398.4 431.1 399.09C426.03 398.16 420.97 397.23 415.91 396.3ZM563.1 396.11C560.14 397.11 557.17 398.12 554.21 399.12C555.19 397.22 556.56 396.97 558.5 396C560.03 396.04 561.57 396.07 563.1 396.11ZM197 398.02C212.03 402.1 231.67 399.97 247.5 399.97C277.49 399.98 307.51 400.33 337.5 399.91C348.84 399.76 360.15 399.38 371.5 399.36C376.22 399.35 383.1 398.3 387.11 400.72C385.91 400.82 384.7 400.91 383.5 401C383 401.5 382.5 402 382 402.5C382.25 403.04 382.5 403.57 382.74 404.11C367.88 404.41 353.02 404.71 338.16 405.01C338.78 404.17 339.39 403.34 340 402.5C338.17 402.11 336.31 401.32 334.47 401.03C331.58 400.58 329.24 401.75 326.5 402C319.3 402.65 311.73 402 304.5 402C281.17 402 257.83 402 234.5 402C226.17 402 217.83 402 209.5 402C205.13 402 199.74 401.87 197 398.02ZM449.92 400.05C443.65 399.73 437.37 399.41 431.1 399.09C437.06 398.9 443.03 398.7 449 398.5C449.31 399.02 449.61 399.53 449.92 400.05ZM449.92 400.05C452.25 403.35 451 414.79 451 419.5C451.83 420 452.67 420.5 453.5 421C454.64 420.71 455.78 420.43 456.92 420.14C455.11 420.84 453.31 421.53 451.5 422.22C448.23 417.74 449.82 405.83 449.92 400.05ZM548 400.3C541.07 400.55 534.14 400.8 527.22 401.05C530.02 398.88 543.72 399.78 548 400.3ZM775.71 399.87C774.08 403.38 768.07 402 764.5 402C752.83 402 741.17 402 729.5 402C696.17 402 662.83 402 629.5 402C620.5 402 611.5 402 602.5 402C596.65 402 591.05 401.39 585.89 403.73C586.42 402.93 586.96 402.13 587.5 401.32C602.84 399.59 619.05 400.96 634.5 400.99C665.17 401.03 695.83 400.96 726.5 400.96C742.28 400.95 760.37 402.8 775.71 399.87ZM329.74 405.09C294.51 405.08 259.28 405.07 224.05 405.06C228.04 401.32 240.76 403 246.5 403C266.17 403 285.83 403 305.5 403C311.17 403 316.83 403 322.5 403C325.51 403 328.34 402.26 329.74 405.09ZM499.84 406.06C499.89 407.2 499.95 408.35 500 409.5C500.97 409.67 501.94 409.84 502.92 410.01C496.42 415.92 495.55 427.12 488.5 432.25C480.37 427.23 480.41 414.66 472.5 409.28C471.73 409.86 470.97 410.45 470.2 411.03C469.97 410.35 469.73 409.68 469.5 409C468.31 409.31 467.12 409.61 465.93 409.92C468.82 406.95 472.25 404.67 476.5 404.4C480.5 410.61 484.5 416.83 488.5 423.04C492.28 417.38 496.06 411.72 499.84 406.06ZM526.16 404.31C525.79 409.51 525.42 414.7 525.04 419.89C525.03 414.76 525.01 409.63 525 404.5C525.39 404.44 525.77 404.38 526.16 404.31ZM747.79 406.1C723.15 405 698.22 405.75 673.5 405.75C667.13 405.75 649.09 404.33 644.28 407.07C644.48 406.22 643.79 405.91 644.72 405.22C647.58 403.09 663.28 404 667.5 404C680.83 404 694.17 404 707.5 404C713.91 404 721.15 403.04 727.47 404.03C728.56 404.2 729.43 404.9 730.53 404.97C732.06 405.07 733.09 404.26 734.53 404.03C738.73 403.37 744.75 403.51 747.79 406.1ZM224.05 405.06C224.02 407.04 223.99 409.02 223.96 411C223.64 410.83 223.32 410.67 223 410.5C223 408.83 223 407.17 223 405.5C223.35 405.35 223.7 405.2 224.05 405.06ZM504 404.95C505.71 406.2 507.42 407.45 509.13 408.7C508.58 408.8 508.04 408.9 507.5 409C506.33 407.65 505.17 406.3 504 404.95ZM636.97 407.02C628.25 405.97 619.21 406.79 610.42 406.46C604.43 406.23 596.87 405.1 591.16 407.02C592.96 403.95 597.19 405 600.5 405C609.17 405 617.83 405 626.5 405C628.92 405 634.17 403.99 636.28 405.22C637.15 405.72 636.7 406.29 636.97 407.02ZM330.88 406.28C331.59 406.69 332.29 407.09 333 407.5C332.91 408.64 332.83 409.77 332.74 410.91C332.12 409.36 331.5 407.82 330.88 406.28ZM636.97 407.02C637.32 407.18 637.66 407.34 638 407.5C638.33 408.17 638.67 408.83 639 409.5C638.67 410.5 638.33 411.5 638 412.5C637.65 412.62 637.29 412.74 636.94 412.86C636.95 410.91 636.96 408.97 636.97 407.02ZM748.85 407.3C749.23 407.37 749.62 407.43 750 407.5C750 408.83 750 410.17 750 411.5C749.67 412.17 749.33 412.83 749 413.5C748.62 413.56 748.23 413.63 747.85 413.69C748.18 411.56 748.51 409.43 748.85 407.3ZM506.88 411.98C505.56 411.32 504.24 410.66 502.92 410.01C503.11 409.67 503.31 409.34 503.5 409C504.67 409.5 505.83 410 507 410.5C506.96 410.99 506.92 411.48 506.88 411.98ZM465.93 409.92C465.12 410.95 464.31 411.97 463.5 413C462.68 412.92 461.85 412.85 461.03 412.77C462.66 411.82 464.3 410.87 465.93 409.92ZM224.27 411.95C224.86 413.3 225.45 414.65 226.03 416C225.35 415.5 224.68 415 224 414.5C224.09 413.65 224.18 412.8 224.27 411.95ZM395.23 412.98C396.85 414.56 398.47 416.14 400.09 417.73C399.56 417.82 399.03 417.91 398.5 418C397.33 416.83 396.17 415.67 395 414.5C395.08 413.99 395.16 413.48 395.23 412.98ZM516 413.23C517.64 414.14 519.29 415.06 520.93 415.97C520.79 416.31 520.64 416.66 520.5 417C519 416.17 517.5 415.33 516 414.5C516 414.08 516 413.65 516 413.23ZM386.78 413.97C386.85 414.48 386.93 414.99 387 415.5C386.5 416 386 416.5 385.5 417C384.37 416.94 383.24 416.88 382.11 416.81C383.67 415.86 385.23 414.92 386.78 413.97ZM635.7 415.88C635.8 416.76 635.9 417.63 636 418.5C635 419.67 633.99 420.83 632.99 422C633.89 419.96 634.8 417.92 635.7 415.88ZM390.08 417.31C388.79 418.24 387.5 419.16 386.21 420.08C386.98 419.05 387.74 418.03 388.5 417C389.03 417.1 389.55 417.21 390.08 417.31ZM392.95 418.25C393.47 418.17 393.98 418.08 394.5 418C395.57 419.38 396.64 420.75 397.71 422.13C396.12 420.84 394.54 419.54 392.95 418.25ZM335.83 419.33C336.22 419.39 336.61 419.44 337 419.5C337.33 420.17 337.67 420.83 338 421.5C337.92 422.65 337.83 423.8 337.75 424.96C337.11 423.08 336.47 421.21 335.83 419.33ZM745.74 419.01C745.83 419.84 745.91 420.67 746 421.5C744.96 422.57 743.91 423.64 742.87 424.7C743.83 422.81 744.79 420.91 745.74 419.01ZM525.04 419.89C524.86 420.71 524.68 421.52 524.5 422.33C523 421.96 521.5 421.58 520 421.21C521.16 421.14 522.33 421.07 523.5 421C524.01 420.63 524.53 420.26 525.04 419.89ZM584.71 422.12C583.57 421.79 582.43 421.46 581.29 421.13C581.36 420.76 581.43 420.38 581.5 420C583.61 420.45 583.84 420.25 584.71 422.12ZM372.74 421.9C371.66 422.93 370.58 423.97 369.5 425C368.69 424.94 367.89 424.87 367.08 424.81C368.97 423.84 370.85 422.87 372.74 421.9ZM595.26 422.89C596.53 423.51 597.79 424.13 599.06 424.74C598.2 424.83 597.35 424.91 596.5 425C596.09 424.3 595.67 423.59 595.26 422.89ZM409.18 423.95C410.43 424.63 411.69 425.3 412.94 425.98C412.12 425.99 411.31 425.99 410.5 426C410.06 425.32 409.62 424.63 409.18 423.95ZM412.94 425.98C414.96 426.9 416.98 427.82 419 428.74C418.16 428.83 417.33 428.91 416.5 429C415.31 427.99 414.12 426.99 412.94 425.98ZM741.79 425.98C741.86 426.48 741.93 426.99 742 427.5C741.5 428 741 428.5 740.5 429C740 428.93 739.49 428.86 738.99 428.79C739.92 427.85 740.86 426.91 741.79 425.98ZM236.27 427.89C237.83 428.15 239.4 428.42 240.97 428.68C239.48 428.79 237.99 428.89 236.5 429C236.42 428.63 236.34 428.26 236.27 427.89ZM413.83 432.07C410.63 430.94 408.73 429.73 405.28 431.09C405.19 430.56 405.09 430.03 405 429.5C407.17 429.33 409.33 429.17 411.5 429C412.28 430.02 413.06 431.05 413.83 432.07ZM636.3 430.07C638.22 432.13 640.81 431.6 643.5 431.6C649.17 431.62 654.83 431.47 660.5 431.58C675.84 431.87 691.16 431.74 706.5 431.92C714.87 432.02 724.18 433.44 732.45 431.78C734.26 431.41 735.96 430.4 737.69 429.86C735.28 435.25 718.93 434.49 713.5 434C712.02 433.87 710.9 433.26 709.47 433.03C702.2 431.89 693.87 433 686.5 433C670.17 433 653.83 433 637.5 433C637.1 432.02 636.7 431.05 636.3 430.07ZM346.24 431C349.82 434.1 352 432.66 355.73 430.89C354.99 431.93 354.24 432.96 353.5 434C351.5 434 349.5 434 347.5 434C347 433.5 346.5 433 346 432.5C346.08 432 346.16 431.5 346.24 431ZM424.21 430.91C426.16 431.51 428.12 432.11 430.07 432.72C428.55 432.81 427.02 432.91 425.5 433C425.07 432.3 424.64 431.6 424.21 430.91ZM554.69 430.85C554.63 431.23 554.56 431.62 554.5 432C553.17 432.67 551.83 433.33 550.5 434C548.97 433.9 547.45 433.81 545.92 433.71C548.84 432.76 551.77 431.8 554.69 430.85ZM611.27 430.89C612.53 431.5 613.79 432.12 615.05 432.74C614.2 432.83 613.35 432.91 612.5 433C612.09 432.3 611.68 431.59 611.27 430.89ZM628.73 430.95C628.82 431.8 628.91 432.65 629 433.5C628.17 434.67 627.33 435.83 626.5 437C625.7 436.9 624.9 436.8 624.11 436.7C626.72 435.32 627.28 433.33 628.73 430.95ZM340.81 434.08C334.21 434.05 327.6 434.03 321 434.01C323.66 432.32 338.49 432.27 340.81 434.08ZM316.91 434.32C312.27 435.08 307.23 434.71 302.5 434.76C294.17 434.85 285.83 435.01 277.5 434.98C272.18 434.97 265.17 433.63 260.6 436.5C260.75 438.61 260.91 440.71 261.07 442.82C258.04 441.14 258.52 437.55 260.5 435C265.16 432.78 272.27 434 277.5 434C290.37 434 304.18 432.63 316.91 434.32ZM419.03 434.23C419.52 434.15 420.01 434.08 420.5 434C420.67 436.5 420.83 439 421 441.5C420.66 441.67 420.31 441.83 419.97 442C420.22 439.09 420.59 436.81 419.03 434.23ZM434.19 433.9C437.46 434.84 440.73 435.78 444 436.71C443.33 436.98 442.67 437.24 442 437.5C441.95 438.35 441.9 439.2 441.85 440.05C437.33 439.08 432.82 438.11 428.3 437.14C428.37 436.76 428.43 436.38 428.5 436C429.83 436.33 431.17 436.67 432.5 437C434 436.83 435.5 436.67 437 436.5C436.17 436 435.33 435.5 434.5 435C434.4 434.63 434.29 434.27 434.19 433.9ZM705.72 437.14C681.65 436.81 657.57 436.48 633.5 436.15C631.75 437.79 630.01 439.43 628.26 441.07C628.63 438.31 630.49 437.01 632.5 435C635.39 435 637.73 435.75 640.5 436C645.41 436.45 650.57 436 655.5 436C665.83 436 676.17 436 686.5 436C689.61 436 703.32 435.2 705.26 436.2C705.57 436.36 705.46 436.91 705.72 437.14ZM538.89 435.92C538.76 436.28 538.63 436.64 538.5 437C537.04 436.92 535.59 436.83 534.13 436.75C535.72 436.47 537.3 436.2 538.89 435.92ZM570.91 436.25C571.94 437 572.97 437.75 574 438.5C573.92 439.01 573.85 439.51 573.77 440.02C572.82 438.77 571.87 437.51 570.91 436.25ZM445 437C446.37 437.29 447.75 437.58 449.12 437.88C448.25 438.25 447.37 438.63 446.5 439C446 438.33 445.5 437.67 445 437ZM449.12 437.88C452.39 439.6 450.88 446.84 450.86 450.5C450.81 461.39 452.33 477.68 450.31 487.89C448.87 476.75 450 464.76 450 453.5C450 448.51 450.91 442.56 449.12 437.88ZM528 438.06C525.13 443.49 526 449.45 526 455.5C526 467.45 527.13 480.11 525.7 491.95C525.6 474.47 525.49 456.98 525.39 439.5C526.26 439.02 527.13 438.54 528 438.06ZM707.98 438.25C708.65 438.66 709.33 439.08 710 439.5C710 440.5 710 441.5 710 442.5C709.67 443.17 709.33 443.83 709 444.5C708.63 444.63 708.26 444.77 707.89 444.9C707.92 442.68 707.95 440.46 707.98 438.25ZM425.11 439.27C424.43 441.84 423.75 444.4 423.07 446.97C423.04 444.81 423.02 442.66 423 440.5C423.7 440.09 424.41 439.68 425.11 439.27ZM552.11 439.16C552.72 441.44 553.32 443.72 553.93 446C553.29 445.5 552.64 445 552 444.5C551.67 442.83 551.33 441.17 551 439.5C551.37 439.39 551.74 439.27 552.11 439.16ZM548.77 444.86C546.5 439.97 545.32 440.48 540 440.89C540.17 440.59 540.33 440.3 540.5 440C542.83 440 545.17 440 547.5 440C548 440.5 548.5 441 549 441.5C548.92 442.62 548.85 443.74 548.77 444.86ZM392.7 440.87C392.8 441.41 392.9 441.96 393 442.5C391.96 443.24 390.93 443.99 389.89 444.73C390.83 443.44 391.76 442.16 392.7 440.87ZM443.94 441.24C446.01 443.84 445 449.83 445 453.5C445 463.87 446.46 478.18 444.5 488C440.71 489.81 427.41 489.51 425 485.95C431.02 486.2 437.61 488.76 443.5 487.17C443.65 471.86 443.79 456.55 443.94 441.24ZM419.68 442.86C419.79 444.41 419.89 445.95 420 447.5C419.33 449.17 418.67 450.83 418 452.5C417.65 452.67 417.29 452.83 416.94 453C417.85 449.62 418.77 446.24 419.68 442.86ZM707.89 444.9C707.76 446.6 707.63 448.3 707.5 450C706.98 449.97 706.47 449.94 705.95 449.92C706.6 448.24 707.24 446.57 707.89 444.9ZM423.07 446.97C422.12 450.93 421.17 454.9 420.22 458.86C419.83 454.66 421.2 451.5 422 447.5C422.36 447.32 422.71 447.15 423.07 446.97ZM392.08 449.24C391.13 450.51 390.18 451.78 389.24 453.05C389.16 452.53 389.08 452.02 389 451.5C390.03 450.75 391.05 449.99 392.08 449.24ZM416.94 453C416.96 455.17 416.98 457.33 417 459.5C416.33 460 415.65 460.5 414.98 461C415.39 458.5 415.81 456 416.22 453.5C416.46 453.33 416.7 453.17 416.94 453ZM551.96 454.02C552.64 454.51 553.32 455.01 554 455.5C554 456.5 554 457.5 554 458.5C554.25 459.99 554.51 461.47 554.76 462.96C553.83 459.98 552.89 457 551.96 454.02ZM268.09 455.07C269.1 455.95 270.12 456.82 271.14 457.69C270.59 457.79 270.05 457.9 269.5 458C269 457.5 268.5 457 268 456.5C268.03 456.02 268.06 455.55 268.09 455.07ZM364.23 454.95C365.16 455.89 366.1 456.84 367.03 457.78C366.52 457.85 366.01 457.93 365.5 458C365 457.5 364.5 457 364 456.5C364.08 455.98 364.15 455.47 364.23 454.95ZM557.26 455.06C557.87 456.97 558.48 458.88 559.09 460.8C558.73 460.7 558.36 460.6 558 460.5C557.67 459.83 557.33 459.17 557 458.5C557.09 457.35 557.17 456.2 557.26 455.06ZM611.71 455.89C611.25 459.85 605.37 465.17 601.5 466C601.08 465.64 600.65 465.27 600.23 464.91C605.27 464.67 608 458.84 611.71 455.89ZM702.68 455.86C702.79 456.41 702.89 456.95 703 457.5C701.83 458.67 700.67 459.83 699.5 461C699 460.93 698.49 460.85 697.99 460.78C699.56 459.14 701.12 457.5 702.68 455.86ZM358.02 457C359.92 457.77 359.39 457.47 360 459.5C355.81 462.76 346.75 461 341.5 461C325.17 461 308.83 461 292.5 461C287.14 461 276.9 462.97 273.21 458.91C284.36 460.88 296.15 459.92 307.5 459.92C323.81 459.93 340.21 460.37 356.5 459.89C357.9 458.64 357.87 459.09 358.02 457ZM614.12 460.24C614.25 461.34 614.37 462.45 614.5 463.55C631.83 463.42 649.16 463.19 666.5 463.17C676.07 463.16 686.65 464.37 695.92 461.96C695.28 462.8 694.64 463.65 694 464.5C667 464.5 640 464.5 613 464.5C613.02 462.36 613 461.57 614.12 460.24ZM560.31 463.87C560.84 465.58 561.37 467.29 561.9 469C561.27 468.5 560.63 468 560 467.5C560.1 466.29 560.21 465.08 560.31 463.87ZM593.99 465.18C594.49 465.12 595 465.06 595.5 465C596 466.5 596.5 468 597 469.5C596.65 469.67 596.3 469.83 595.94 470C595.29 468.39 594.64 466.78 593.99 465.18ZM595.94 470C595.96 470.83 595.98 471.67 596 472.5C594.99 472.59 593.97 472.67 592.96 472.76C593.95 471.84 594.95 470.92 595.94 470ZM416.95 471C416.33 473.33 415.7 475.66 415.08 477.99C415.05 476.16 415.03 474.33 415 472.5C415.65 472 416.3 471.5 416.95 471ZM411.72 472.98C411.81 474.48 411.91 475.99 412 477.5C411.67 478.5 411.33 479.5 411 480.5C410.03 480.66 409.06 480.82 408.08 480.99C410.38 478.53 410.58 475.96 411.72 472.98ZM389.13 473.97C391.07 474.91 393 475.84 394.93 476.78C394.12 476.85 393.31 476.93 392.5 477C391.38 475.99 390.25 474.98 389.13 473.97ZM415.08 477.99C415.08 479.91 415.09 481.82 415.1 483.73C414.73 483.66 414.37 483.58 414 483.5C414 481.83 414 480.17 414 478.5C414.36 478.33 414.72 478.16 415.08 477.99ZM583.91 477.97C583.11 478.98 582.3 479.99 581.5 481C580.63 480.9 579.75 480.8 578.88 480.71C580.56 479.79 582.23 478.88 583.91 477.97ZM399.22 478.91C400.51 479.58 401.8 480.24 403.09 480.9C402.23 480.94 401.36 480.97 400.5 481C400.07 480.3 399.64 479.61 399.22 478.91ZM403.09 480.9C404.75 480.93 406.42 480.96 408.08 480.99C407.89 481.32 407.69 481.66 407.5 482C406.17 482 404.83 482 403.5 482C403.36 481.63 403.23 481.27 403.09 480.9ZM561.14 481C563.58 482.89 563.22 484.94 562 487.5C557.83 490.74 546.01 490.17 540.53 491.03C537.15 491.56 533.32 493.54 531.12 490C537.77 491.07 555.34 489.38 561.44 486.5C561.34 484.67 561.24 482.83 561.14 481ZM573.89 482.99C573.43 483.66 572.96 484.33 572.5 485C571.17 485 569.83 485 568.5 485C568.37 484.64 568.23 484.29 568.1 483.93C570.03 483.62 571.96 483.3 573.89 482.99ZM448.99 493C447.67 495.65 446.35 498.29 445.02 500.94C445.02 499.46 445.01 497.98 445 496.5C446.33 495.33 447.66 494.17 448.99 493ZM527.85 497.3C528.9 498.36 529.95 499.43 531 500.5C530.92 502 530.83 503.49 530.75 504.99C529.79 502.43 528.82 499.86 527.85 497.3ZM445.02 500.94C444.42 502.6 443.82 504.26 443.22 505.92C443.15 504.78 443.07 503.64 443 502.5C443.67 501.98 444.35 501.46 445.02 500.94ZM535.92 517.2C539.94 519.36 539.43 524.65 538 528.5C539.17 530 540.33 531.5 541.5 533C542.71 531.71 543.92 530.42 545.12 529.12C544.49 533.92 543.85 538.71 543.21 543.5C544.64 544.28 546.07 545.07 547.5 545.85C548.97 544.88 550.45 543.91 551.92 542.93C551.61 544.12 551.31 545.31 551 546.5C552.6 547.74 553.52 547.49 555.31 548.19C557.09 548.88 558.67 551.17 560 552.5C559.63 553.96 559.26 555.42 558.88 556.88C558.96 549.5 552.35 550.13 546.73 549.54C543.83 549.24 540.92 548.65 538.06 548.07C539.71 547.55 541.35 547.02 543 546.5C542.47 545.08 541.29 542.83 541.22 541.34C541.15 539.75 541.73 538.68 541.5 537C539.04 538.29 539.35 539.99 537.91 541.8C538.2 538.7 538.5 535.6 538.79 532.5C536.54 530.33 534.58 529.53 531.5 529.28C528.18 532.88 528.51 539.11 529.07 543.75C528.21 543.16 527.36 542.58 526.5 542C526.17 542.67 525.83 543.33 525.5 544C524.68 543.99 523.85 543.98 523.03 543.97C523.84 540.48 524.65 536.99 525.46 533.5C523.07 530.6 519.4 528.3 515.5 528.64C513.64 532.87 514.16 537.96 514.62 542.5C517.5 544.23 519.69 544.47 523.03 543.97C523.02 544.48 523.01 544.99 523 545.5C525.17 545.67 527.33 545.83 529.5 546C531 547.83 532.5 549.67 534 551.5C533.91 552.03 533.82 552.56 533.74 553.09C527.89 548.17 528 546.06 519.5 548.64C519.05 551.65 518.61 554.66 518.16 557.68C514.47 553.73 519.88 548.17 517.5 545C516.47 545.32 516.06 544.88 515.22 545.72C513.17 547.77 513.75 559.88 515.22 562.28C515.69 563.04 516.33 562.9 517.02 563.28C512.81 565.57 510.8 575.49 508.48 580.03C507.18 582.59 505.87 584.16 506.91 587.01C505.77 587.01 504.64 587 503.5 587C502 591.83 500.5 596.67 499 601.5C498.31 601.64 497.62 601.79 496.93 601.93C499.35 592.91 503.17 583.79 506.54 575.02C509.33 567.74 512.61 561.49 512.25 553.5C512.07 549.36 512.63 545.03 510.44 541.5C494.79 541.37 479.15 541.23 463.5 541.1C462.66 544.51 462.87 547.96 462.89 551.5C462.91 555.09 462.57 558.9 463.16 562.45C463.67 565.46 465.3 568.32 466.36 571.17C468.84 577.8 472.03 584.95 473.11 591.9C469.56 589.92 469.31 585.78 468.5 582C463.97 585.68 463.68 585 457.5 585C457 584.37 456.5 583.74 456 583.11C459.17 583.22 462.33 583.33 465.5 583.43C465.65 582.31 466.01 581.85 465.87 580.65C465.6 578.47 459.12 564.53 457.69 562.5C456.82 562.7 455.96 562.9 455.09 563.09C455.23 562.4 455.36 561.7 455.5 561C449.17 561 442.83 561 436.5 561C436.37 560.3 436.23 559.6 436.1 558.9C442.92 558.77 449.75 558.63 456.58 558.5C457.63 555.35 457.93 552.76 457.17 549.5C445.99 547.08 441.27 548.65 436.1 558.9C435.73 558.44 435.37 557.97 435 557.5C438.17 552.44 440.96 547.44 447.5 547C448.07 546.31 448.63 545.63 449.2 544.94C450.94 544.79 452.67 544.65 454.41 544.5C457.18 541.45 458.19 536.29 457.5 532.33C454.08 530.47 451.13 530.17 447.9 532.5C446.3 535.73 446.88 540.35 448.01 543.84C444.33 541.68 445 537.37 445 533.5C446.67 532.17 448.33 530.83 450 529.5C448.33 528.34 446.67 527.18 445 526.02C447.1 526.53 449.32 527.4 451.5 527.35C460.9 527.15 460.75 512.61 464.5 506.06C472.49 506.91 480.31 509.18 488.5 508.88C492.73 508.73 497.26 508.37 501.44 507.75C504.74 507.26 507.11 506.14 510.48 506.5C513.33 511.05 513.11 516.38 515.47 521.07C518.61 527.32 524.13 525.81 529.52 525.21C532.28 524.9 534.67 525.18 537.33 524.5C537.92 521.53 536.9 519.92 535.92 517.2ZM531.9 507.24C532.6 507.66 533.3 508.08 534 508.5C533.91 509.67 533.83 510.84 533.74 512.01C533.13 510.42 532.51 508.83 531.9 507.24ZM441.93 509C440.65 511.69 439.37 514.39 438.09 517.08C438.4 515.22 438.7 513.36 439 511.5C439.98 510.67 440.95 509.83 441.93 509ZM483.5 513.85C479.1 512.24 472.82 511.48 468.5 513.43C465.79 519.46 462.85 529.47 463.21 535.99C469.8 535.99 476.4 535.99 482.99 535.99C484.32 530.26 485.98 519.18 483.5 513.85ZM504.6 513.5C500.22 511.8 495.67 512.39 491.16 513.5C488.6 519.74 489.39 528.85 490.01 535.5C494.58 536.85 506.69 537.22 510.38 534.5C510.7 529.63 506.63 518.19 504.6 513.5ZM438.09 517.08C437.42 518.4 436.74 519.71 436.06 521.02C436.04 520.18 436.02 519.34 436 518.5C436.7 518.03 437.4 517.56 438.09 517.08ZM436.06 521.02C436.02 521.85 435.97 522.67 435.92 523.5C438.45 525.64 440.93 524.82 443.96 525.71C443.3 525.98 442.65 526.24 442 526.5C442.29 528.37 442.59 530.24 442.88 532.12C439.65 528.52 436.83 527.09 432.5 530.29C432.7 533.14 432.9 535.99 433.1 538.84C432.4 538.73 431.7 538.61 431 538.5C431.17 535.33 431.33 532.17 431.5 529C433 527.83 434.5 526.67 436 525.5C435.67 524.5 435.33 523.5 435 522.5C435.35 522.01 435.71 521.52 436.06 521.02ZM426.71 529.11C425.16 529.42 423.61 529.72 422.06 530.02C422.87 529.02 423.69 528.01 424.5 527C425.17 527.33 425.83 527.67 426.5 528C426.57 528.37 426.64 528.74 426.71 529.11ZM550 529.01C548.37 529.05 546.75 529.09 545.12 529.12C545.58 528.42 546.04 527.71 546.5 527C547.5 527.33 548.5 527.67 549.5 528C549.67 528.34 549.83 528.67 550 529.01ZM550.85 529.32C551.4 529.21 551.95 529.11 552.5 529C553.33 529.83 554.17 530.67 555 531.5C555 532.83 555 534.17 555 535.5C554.62 535.57 554.23 535.63 553.85 535.7C553.6 532.67 552.88 531.47 550.85 529.32ZM419.02 532.17C419.01 534.11 419 536.06 419 538C418.67 537.83 418.33 537.67 418 537.5C418 535.83 418 534.17 418 532.5C418.34 532.39 418.68 532.28 419.02 532.17ZM442.88 532.12C443.25 532.24 443.63 532.37 444 532.5C444 535.5 444 538.5 444 541.5C443.68 541.67 443.35 541.83 443.03 542C442.98 538.71 442.93 535.41 442.88 532.12ZM553.03 538C553.35 538.17 553.68 538.33 554 538.5C554 539.5 554 540.5 554 541.5C553.31 541.98 552.61 542.46 551.92 542.93C552.29 541.29 552.66 539.64 553.03 538ZM415.05 540.06C410.1 540.69 403.04 540.67 398.63 543.09C394.81 545.19 392.48 549.52 389.04 552.03C389.28 548.26 390.97 548.23 393.5 546C394.95 544.72 395.31 542.54 397.03 541.53C400.23 539.65 412.23 538.22 415.05 540.06ZM419.28 539.02C421.33 544.8 422.57 547.26 428.89 543.9C430.08 546.61 432.14 545.93 435 546.5C437.93 552.64 432.54 555.96 428.5 560C424.91 560 420.63 561.11 418.5 558C413.85 558.93 411.37 559.1 411 553.5C411.99 553.04 412.97 552.59 413.96 552.13C413.36 553.26 412.76 554.38 412.16 555.5C414.37 557.24 416.66 556.89 419.5 557.12C422.07 557.34 424.72 558.16 427.3 557.66C429.73 557.18 434.28 552.83 434.81 550.33C435.03 549.24 434.62 548.78 434.5 547.78C432.1 547.42 421 548.46 418.54 548.99C417.27 549.27 416.19 550.26 415.14 550.98C415.82 547.58 417.79 547.19 421 546.5C420.17 544.67 419.33 542.83 418.5 541C417.3 542.3 416.1 543.61 414.91 544.91C415.3 543.77 415.69 542.64 416.09 541.5C415.74 541.02 415.39 540.54 415.05 540.06C416.2 540.04 417.35 540.02 418.5 540C418.76 539.67 419.02 539.35 419.28 539.02ZM428.94 539C429.29 539.17 429.65 539.33 430 539.5C430 540.83 430 542.17 430 543.5C429.63 543.63 429.26 543.76 428.89 543.9C428.91 542.26 428.92 540.63 428.94 539ZM577.69 546.15C576.2 545.29 574.89 543.94 573.29 543.21C569.95 541.67 560.82 540.93 557.23 541.5C557.61 545.43 564.37 553.9 568.25 555.33C571.31 556.45 580.63 555.77 583.98 555.01C581.32 558.85 571.91 557 567.5 557C566.53 556.37 557.82 548.15 557.22 547.28C555.97 545.5 556.02 542.55 556 540.5C559.46 538.77 560.97 539.41 564.53 539.97C569.33 540.72 577.01 539.64 577.69 546.15ZM385.97 548.81C386.95 546.71 387.93 544.6 388.9 542.5C384.32 542.43 378.37 542.88 374.61 545.5C375.24 548.61 375.87 551.71 376.5 554.82C380.09 554.21 381.92 551.98 384.8 549.96C383.89 555.48 375.55 558.83 372.5 553C369.67 552.83 366.83 552.67 364 552.5C364 548.48 363.57 545.93 366.5 543C368.5 543.67 370.5 544.33 372.5 545C373.5 544 374.5 543 375.5 542C380.06 542 385.2 539.65 389.5 541C389.33 543.17 389.17 545.33 389 547.5C387.99 547.94 386.98 548.37 385.97 548.81ZM594.95 544.07C591.47 543.96 587.98 543.85 584.5 543.74C584.46 548.89 590.56 553.68 595.5 553.87C596.21 550.58 596.54 547.14 594.95 544.07C595.47 544.05 595.98 544.02 596.5 544C597.17 545.67 597.83 547.33 598.5 549C599.04 548.37 599.58 547.75 600.12 547.12C600.14 548.58 600.16 550.04 600.18 551.5C602.31 551.5 604.45 551.5 606.58 551.5C607.01 547.63 606.36 546.79 602.5 545.97C601.71 546.36 600.92 546.74 600.12 547.12C600.63 545.37 600.82 545.1 602.5 544C607.08 545.79 607.31 545.94 609 550.5C607.83 551.67 606.67 552.83 605.5 554C601.18 553.71 600.43 552.93 598 550.5C597.17 552.33 596.33 554.17 595.5 556C591.67 555.74 584.51 551.27 583.19 547.31C582.8 546.14 583.01 544.71 583 543.5C585.93 541.22 592.81 540.72 594.95 544.07ZM442.71 542.89C442.81 543.43 442.9 543.96 443 544.5C441.68 544.59 440.37 544.69 439.05 544.78C440.27 544.15 441.49 543.52 442.71 542.89ZM372.14 551.24C370.65 548.1 369.19 544.89 365.26 546.07C365.26 547.8 365.26 549.52 365.26 551.24C367.55 551.24 369.84 551.24 372.14 551.24ZM414.91 544.91C413.94 549.46 407.83 553.67 404.5 557C400.14 557 392.33 558.35 389.11 555.88C393.44 555.57 399.13 557.08 403.28 555.73C406.87 554.57 411.53 547.28 414.91 544.91ZM531.29 544.86C533.1 544.87 534.91 544.87 536.72 544.88C536.64 545.25 536.57 545.63 536.5 546C534.83 546 533.17 546 531.5 546C531.43 545.62 531.36 545.24 531.29 544.86ZM578.89 547.28C579.43 547.18 579.96 547.09 580.5 547C582.33 549.17 584.17 551.33 586 553.5C585.33 554 584.65 554.51 583.98 555.01C582.28 552.44 580.59 549.86 578.89 547.28ZM538.06 548.07C538.08 551.96 540.11 553.85 542.07 556.92C541.55 556.95 541.02 556.97 540.5 557C539 555.17 537.5 553.33 536 551.5C536.17 550.33 536.33 549.17 536.5 548C537.02 548.02 537.54 548.05 538.06 548.07ZM389.04 552.03C388.73 552.85 388.41 553.68 388.09 554.5C388.43 554.96 388.77 555.42 389.11 555.88C388.58 555.92 388.04 555.96 387.5 556C387.19 553.74 387.08 553.33 389.04 552.03ZM534.87 555.28C535.58 556.36 536.29 557.43 537 558.5C536.17 559.33 535.33 560.17 534.5 561C529.67 560.83 524.83 560.67 520 560.5C519.72 560 519.44 559.49 519.16 558.99C524.49 558.83 529.82 558.66 535.15 558.5C535.05 557.43 534.96 556.36 534.87 555.28ZM542.07 556.92C547.68 556.91 553.28 556.9 558.88 556.88C556.01 559.08 551.85 556.57 549.5 560C547.83 560 546.17 560 544.5 560C543.69 558.97 542.88 557.95 542.07 556.92ZM455.09 563.09C453.81 566.06 452.53 569.02 451.25 571.98C451.17 570.49 451.08 568.99 451 567.5C452.36 566.03 453.73 564.56 455.09 563.09ZM521.91 564.26C522.6 564.67 523.3 565.09 524 565.5C523.97 566.35 523.94 567.21 523.91 568.06C523.24 566.8 522.57 565.53 521.91 564.26ZM523.91 568.06C524.27 568.21 524.64 568.35 525 568.5C525.33 569.17 525.67 569.83 526 570.5C525.91 571.34 525.83 572.17 525.74 573.01C525.13 571.36 524.52 569.71 523.91 568.06ZM450.01 576C449.85 579.67 449.98 580.88 453.13 582.68C452.59 583.12 452.04 583.56 451.5 584C450.67 583.17 449.83 582.33 449 581.5C448.67 580.17 448.33 578.83 448 577.5C448.67 577 449.34 576.5 450.01 576ZM527.21 578C527.64 578 528.07 578 528.5 578C529 579.17 529.5 580.33 530 581.5C529.62 581.56 529.23 581.62 528.85 581.69C528.3 580.46 527.76 579.23 527.21 578ZM527.72 582.88C527.48 583.42 527.24 583.96 527 584.5C521.91 586.01 511.48 589.7 506.91 587.01C513.73 587.29 521.25 584.86 527.72 582.88ZM473.11 591.9C474.44 594.9 475.77 597.9 477.09 600.91C474.76 600.96 473.82 600.92 472 599.5C472.37 596.97 472.74 594.43 473.11 591.9ZM477.09 600.91C482.11 603.98 491.34 603.4 496.93 601.93C494.7 607.23 496 614.77 496 620.5C496 633.83 496 647.17 496 660.5C496 706.5 496 752.5 496 798.5C496 958.94 496 1119.39 496 1279.83C495.32 1279.83 494.64 1279.83 493.96 1279.83C493.81 1056.35 493.65 832.86 493.5 609.38C489.24 609.42 484.97 609.46 480.71 609.5C480.51 832.94 480.32 1056.39 480.12 1279.83C479.08 1279.83 478.04 1279.83 477 1279.83C477.03 1053.53 477.06 827.22 477.09 600.91Z" fill="#ffffff" fill-rule="evenodd" stroke="#ffffff" stroke-width="0.25" stroke-linejoin="round"/>
</svg>