<?xml version="1.0" encoding="UTF-8"?>
<svg xmlns="http://www.w3.org/2000/svg" viewBox="0 0 821 657" width="821" height="657">
<path d="M593.07 371.27C591.49 370.81 589.91 370.34 588.33 369.87C587.24 368.25 586.7 366.15 585.33 364.66C580.32 359.18 574.5 354.4 569.52 349C561.32 340.12 552.62 331.37 544.35 322.55C540.25 318.19 535.39 314.45 531.49 309.95C527.25 305.05 522.47 300.66 518.01 295.94C515.96 293.77 514.16 290.76 511.03 292.49C511.16 293.6 511.28 294.7 511.41 295.81C510.55 295.29 509.69 294.77 508.84 294.25C508.75 290.63 512.68 284.14 517.09 286.75C520.98 289.04 528 297 531.48 300.51C546.79 315.98 562.49 331.26 578.31 346.27C584.52 352.17 589.82 359.22 596.82 364.26C597.19 368.06 596.3 369.46 593.07 371.27ZM308.47 290.2C309.03 290.76 309.6 291.32 310.16 291.87C310.08 292.21 310 292.55 309.92 292.88C308.77 292.99 307.61 293.1 306.45 293.21C288.91 311.43 270.48 328.82 252.72 346.87C248.3 351.37 243.93 356 239.24 360.23C236.61 362.61 233.51 364.74 232.64 368.28C233.18 369.06 233.71 369.84 234.24 370.61C230.89 376.94 223.8 370.25 223.18 365.6C226.36 360.12 236.83 352.1 241.64 347.23C247.95 340.84 254.28 334.31 260.57 327.93C263.42 325.05 266.95 322.53 269.6 319.54C273.66 314.98 278.09 310.4 282.76 306.5C287.85 302.24 291.77 296.61 296.91 292.55C299.6 290.43 301.03 287.26 304.61 286.76C305.9 287.91 307.19 289.05 308.47 290.2ZM304.34 301.98C304.49 302.18 304.64 302.39 304.79 302.6C305.22 304.27 305.64 305.95 306.07 307.63C306.53 317.68 312.02 329.22 316.14 338.25C317.81 341.93 319.1 345.9 321.13 349.4C335.78 374.62 359.45 397.63 379.11 419.42C386.53 427.65 393.78 436.1 401.37 444.11C404.27 447.17 406.7 451.75 410.5 453.64C415.37 449.99 418.94 444.04 423.18 439.6C430.29 432.17 437.4 424.14 444.19 416.37C455.5 403.43 468.2 391.5 478.37 377.97C479.78 376.09 483.01 373.96 484.65 371.7C491.87 361.79 499.7 351.37 504.85 340.12C509.92 329.08 513.4 317.38 516.13 305.57C516.77 304.58 517.41 303.59 518.04 302.6C522.95 305.15 530.45 314.57 534.56 318.94C544.27 329.3 554.4 339.32 564.4 349.41C567.98 353.03 571.27 357.13 574.61 360.72C576.33 362.55 578.55 363 579.17 365.83C577.83 366.75 576.48 367.66 575.14 368.58C570.85 370.68 565.87 370.66 561.41 372.2C555.47 374.25 549.22 376.32 543.55 379.03C542.1 379.72 540.85 380.93 539.43 381.58C538.43 382.03 537.28 381.97 536.27 382.47C514.16 393.41 497.92 412.59 478.85 427.57C476.56 429.37 474.88 432.19 472.67 434.17C462.84 442.95 453.16 451.52 443.55 460.64C438.8 465.15 433.41 469.05 429.23 474.17C438.85 486.4 449.98 498.17 460.84 509.27C465.94 514.5 472.85 524.2 478.61 528.1C478.84 528.56 479.08 529.02 479.31 529.49C478.14 532.73 468.74 542.13 465.69 543.81C447.29 526.48 428.9 509.15 410.5 491.82C406.52 493.18 396.36 504.06 392.68 507.6C381.34 518.51 369.72 528.78 358.42 539.72C355.1 542.93 346.78 549.38 344.95 552.9C344.68 552.99 344.42 553.08 344.15 553.17C343.85 553.61 343.55 554.06 343.25 554.5C340.7 553.53 330.71 542.84 329.34 540.19C329.92 539.81 330.51 539.43 331.09 539.05C332.5 538.03 332.95 536.75 334.12 535.51C337.36 532.11 340.71 528.69 344.03 525.31C354.58 514.57 364.4 503.07 374.66 492.23C378.2 488.49 381.72 484.65 385.32 480.83C387.44 478.59 390.83 476.37 391.06 473.16C389.31 471.29 387.18 469.91 385.32 468.19C375.28 458.92 364.93 449.8 354.98 440.22C342.75 428.44 330.3 417.21 317.62 405.87C308.71 397.9 297.62 387.61 286.94 382.28C279.98 378.81 273.12 374.54 265.64 372.07C257.43 369.34 249.06 367.61 240.93 365.27C243.48 360.66 252.18 353.23 256.35 349.16C265.77 339.95 274.9 330.61 284.34 321.54C289.11 316.95 293.77 312.22 298.52 307.58C300.45 305.69 301.98 303.27 304.34 301.98ZM483.17 533.08C483.78 533.45 484.4 533.82 485.02 534.2C485.56 537.14 488.92 539.28 491 541.45C496.28 546.96 501.18 552.63 506.59 558.04C512.89 564.31 518.72 570.88 524.67 577.46C529.24 582.51 534.4 586.99 538.78 592.21C544.53 599.04 553.73 605.41 558.86 612.23C558.78 613.79 558.7 615.35 558.62 616.92C565.92 616.61 567.15 618.25 572.34 622.71C572.46 623.93 572.57 625.16 572.69 626.39C574.74 626.51 576.79 626.63 578.83 626.75C579.74 628.52 581.25 629.43 581.08 631.67C580.87 634.58 578.46 636.2 577 638.39C573.21 644.08 569.92 651.74 563.34 644.01C562.4 642.91 561.65 642.42 561.13 641.05C561.77 639.71 562.41 638.37 563.05 637.03C557.98 636.58 554.08 633.04 552.77 627.98C552.93 625.75 553.09 623.53 553.25 621.3C551.72 623.38 550.91 624.07 548.23 624.04C545.91 622.47 544.27 620.14 542.28 618.21C536.18 612.29 530.13 606.26 524.05 600.23C510.71 587.02 497.3 573.87 483.62 560.88C482.01 559.35 479.94 558.16 478.41 556.7C477.79 556.12 477.68 555.26 477.17 554.59C475.19 551.99 471.35 549.61 468.86 547.48C470.02 544.8 480.28 534.46 483.17 533.08ZM325.73 543.85C328.77 545.44 338.7 554.81 339.57 557.9C339.42 558.24 339.27 558.59 339.12 558.93C336.38 559.44 334.82 562.5 332.76 564.32C328.4 568.19 324.48 572.52 320.14 576.49C308.12 587.48 296.53 599.1 284.91 610.3C280.97 614.11 273.94 623.44 269.09 625.04C267.75 624.11 266.41 623.19 265.07 622.27C265.4 628.51 266.72 628.83 262.16 633.75C261.25 634.74 260.64 635.84 259.28 636.3C258.07 636.7 256.79 636.63 255.64 637.03C256.35 638.15 257.06 639.26 257.77 640.38C257.62 644.25 253.18 650 248.67 648.42C247.1 647.87 236.94 637.71 236.2 636.09C235.75 635.13 235.78 634.05 235.69 633.01C239.04 629.02 240.32 626.96 245.63 626.91C246.55 621.96 249.18 619.35 254.01 617.65C255.91 617.38 257.81 617.11 259.7 616.83C259.73 616.53 259.76 616.22 259.79 615.92C259.83 614.74 259.71 613.45 260.12 612.33C260.71 610.74 263.3 609.21 264.51 607.99C268.5 603.95 272.61 600 276.62 595.97C288.89 583.62 300.94 571.48 312.15 558.44C315.36 554.71 323.42 549.17 324.96 544.88C325.22 544.53 325.47 544.19 325.73 543.85Z" fill="#01b0cb" fill-rule="evenodd" stroke="#01b0cb" stroke-width="0.25" stroke-linejoin="round"/>
<path d="M588.33 369.87C582.07 370.81 583.77 367.64 579.17 365.83C578.55 363 576.33 362.55 574.61 360.72C571.27 357.13 567.98 353.03 564.4 349.41C554.4 339.32 544.27 329.3 534.56 318.94C530.45 314.57 522.95 305.15 518.04 302.6C515.83 300.34 513.62 298.07 511.41 295.81C511.28 294.7 511.16 293.6 511.03 292.49C514.16 290.76 515.96 293.77 518.01 295.94C522.47 300.66 527.25 305.05 531.49 309.95C535.39 314.45 540.25 318.19 544.35 322.55C552.62 331.37 561.32 340.12 569.52 349C574.5 354.4 580.32 359.18 585.33 364.66C586.7 366.15 587.24 368.25 588.33 369.87ZM309.92 292.88C311.41 296.81 306.99 299.57 304.34 301.98C301.98 303.27 300.45 305.69 298.52 307.58C293.77 312.22 289.11 316.95 284.34 321.54C274.9 330.61 265.77 339.95 256.35 349.16C252.18 353.23 243.48 360.66 240.93 365.27C238.7 367.05 236.47 368.83 234.24 370.61C233.71 369.84 233.18 369.06 232.64 368.28C233.51 364.74 236.61 362.61 239.24 360.23C243.93 356 248.3 351.37 252.72 346.87C270.48 328.82 288.91 311.43 306.45 293.21C307.61 293.1 308.77 292.99 309.92 292.88ZM483.17 533.08C480.28 534.46 470.02 544.8 468.86 547.48C465.78 548.86 464.07 546.74 465.69 543.81C468.74 542.13 478.14 532.73 479.31 529.49C481.66 528.65 482.22 526.54 484.89 526.38C488.27 529.19 484.73 530.72 483.17 533.08ZM329.34 540.19C330.71 542.84 340.7 553.53 343.25 554.5C344.73 555.8 345.1 556.69 345.28 558.62C343.17 560.66 341.46 559.95 339.57 557.9C338.7 554.81 328.77 545.44 325.73 543.85C324.66 541.73 323.17 540.91 324.31 538.51C326.44 538.33 327.46 539.25 329.34 540.19Z" fill="#050b0f" fill-rule="evenodd" stroke="#050b0f" stroke-width="0.25" stroke-linejoin="round"/>
<path d="M308.47 290.2C310.33 290.37 311.03 291.26 312.32 292.54C312.32 298.31 309.95 296.65 307.31 300.27C305.77 302.38 306.38 305.2 306.07 307.63C305.64 305.95 305.22 304.27 304.79 302.6C304.64 302.39 304.49 302.18 304.34 301.98C306.99 299.57 311.41 296.81 309.92 292.88C310 292.55 310.08 292.21 310.16 291.87C309.6 291.32 309.03 290.76 308.47 290.2ZM508.84 294.25C509.69 294.77 510.55 295.29 511.41 295.81C513.62 298.07 515.83 300.34 518.04 302.6C517.41 303.59 516.77 304.58 516.13 305.57C516.11 304.58 516.08 303.59 516.06 302.6C513.85 300.39 509.32 297.26 508.84 294.25ZM579.17 365.83C583.77 367.64 582.07 370.81 588.33 369.87C589.91 370.34 591.49 370.81 593.07 371.27C590.91 372.78 586.22 371.96 583.41 371.96C582.63 370.73 581.85 369.51 581.07 368.28C579.09 368.38 577.12 368.48 575.14 368.58C576.48 367.66 577.83 366.75 579.17 365.83ZM485.02 534.2C484.4 533.82 483.78 533.45 483.17 533.08C484.73 530.72 488.27 529.19 484.89 526.38C482.22 526.54 481.66 528.65 479.31 529.49C479.08 529.02 478.84 528.56 478.61 528.1C480.99 527.18 482.3 525.06 484.89 524.1C485.79 524.77 486.68 525.44 487.57 526.11C487.69 527.56 487.8 529.01 487.91 530.47C486.94 531.71 485.98 532.95 485.02 534.2ZM331.09 539.05C330.51 539.43 329.92 539.81 329.34 540.19C327.46 539.25 326.44 538.33 324.31 538.51C323.17 540.91 324.66 541.73 325.73 543.85C325.47 544.19 325.22 544.53 324.96 544.88C322.9 543.28 321.73 541.1 321.7 538.51C322.26 537.95 322.81 537.39 323.37 536.83C324.71 536.83 326.05 536.83 327.39 536.83C328.63 537.57 329.86 538.31 331.09 539.05ZM344.95 552.9C345.91 554.58 346.87 556.26 347.84 557.94C347.05 559.17 346.27 560.4 345.49 561.63C344.15 561.63 342.81 561.63 341.47 561.63C340.69 560.73 339.91 559.83 339.12 558.93C339.27 558.59 339.42 558.24 339.57 557.9C341.46 559.95 343.17 560.66 345.28 558.62C345.1 556.69 344.73 555.8 343.25 554.5C343.55 554.06 343.85 553.61 344.15 553.17C344.42 553.08 344.68 552.99 344.95 552.9ZM259.79 615.92C259.76 616.22 259.73 616.53 259.7 616.83C257.81 617.11 255.91 617.38 254.01 617.65C254.12 617.29 254.23 616.94 254.34 616.59C255.91 616.36 257.47 616.14 259.03 615.92C259.28 615.92 259.54 615.92 259.79 615.92ZM552.77 627.98C552.6 627.87 552.42 627.76 552.25 627.65C552.25 626.98 552.25 626.31 552.25 625.64C551.91 625.3 551.58 624.97 551.24 624.63C550.35 624.63 549.46 624.63 548.56 624.63C548.45 624.43 548.34 624.23 548.23 624.04C550.91 624.07 551.72 623.38 553.25 621.3C553.09 623.53 552.93 625.75 552.77 627.98ZM572.34 622.71C572.57 622.79 572.8 622.87 573.02 622.95C573.02 623.85 573.02 624.74 573.02 625.64C574.92 625.75 576.82 625.86 578.72 625.97C578.76 626.23 578.8 626.49 578.83 626.75C576.79 626.63 574.74 626.51 572.69 626.39C572.57 625.16 572.46 623.93 572.34 622.71Z" fill="#ffffff" fill-rule="evenodd" stroke="#ffffff" stroke-width="0.25" stroke-linejoin="round"/>
</svg>