<?xml version="1.0" encoding="UTF-8"?>
<svg xmlns="http://www.w3.org/2000/svg" viewBox="0 0 821 759" width="821" height="759">
<path d="M588.85 344.89C588.03 344.39 587.22 343.51 586.32 343.23C583.01 342.19 565.87 343.14 561.15 343.14C538.8 343.16 516.46 343.15 494.11 343.15C438.13 343.15 382.15 343.2 326.17 343.15C306.7 343.13 287.24 343.05 267.78 343.17C257.76 343.22 247.48 342.45 237.51 343.36C236.87 344.04 236.24 344.71 235.61 345.39C234.8 344.57 233.99 343.76 233.18 342.94C230.11 342.93 226.04 344.04 224.12 341.3C225.41 336.84 232.56 335.9 236.4 333.92C243.1 330.46 250.03 328.06 256.68 324.68C260.68 322.64 265.13 319.81 269.45 318.23C270.74 317.76 272.13 317.67 273.38 316.99C279.11 313.84 293.63 306.45 299.69 305.22C301.11 304.93 301.84 305.73 303.12 305.9C306.81 306.41 310.91 305.91 314.63 305.91C327.37 305.91 340.1 305.91 352.84 305.91C393.92 305.91 435.01 305.91 476.09 305.91C487.39 305.91 498.68 305.91 509.97 305.91C512.22 305.91 514.83 306.29 517.04 305.91C517.85 305.78 518.38 305.14 519.23 305.21C524.29 305.63 535.32 311.76 540.61 313.79C545.54 315.67 550.46 317.45 555.36 319.19C559.61 320.7 563.53 323.41 567.75 324.96C569.75 325.69 571.75 325.99 573.65 326.95C580.89 330.55 588.67 333.52 596.29 336.18C599.22 337.21 601.96 339.33 600.07 342.44C597.19 342.62 594.31 342.8 591.42 342.99C590.57 343.62 589.71 344.26 588.85 344.89ZM586.02 348.38C583.52 350.17 578.8 348.83 575.56 348.84C566.68 348.84 557.78 348.85 548.9 348.84C525.59 348.81 502.28 348.83 478.98 348.83C467.6 348.84 455.26 350.16 444.02 348.64C446.82 347.03 451.89 347.96 455.19 347.97C464.32 347.99 473.45 347.98 482.58 347.97C504.2 347.95 525.83 348.02 547.45 347.97C560.17 347.95 573.38 346.97 586.02 348.38ZM582.41 426.75C573.5 428.31 561.08 427.23 551.78 427.19C533.28 427.11 514.78 427.29 496.28 427.18C439.57 426.85 382.86 427.64 326.17 427.21C305.98 427.06 285.81 427.08 265.62 427.22C261.81 427.24 246.87 428.33 244.9 426.12C246.14 421.07 245.17 415.05 245.24 409.78C245.4 397.29 245.32 384.79 245.32 372.3C245.32 366.49 244.29 359.72 246.16 354.22C250.21 353.65 254.33 354.15 258.41 353.98C266.86 353.61 275.11 353.97 283.64 353.96C302.17 353.95 320.18 353.04 338.42 353.96C345.05 354.3 351.38 353.39 357.88 353.21C365.8 352.99 373.75 353.23 381.67 353.22C418.91 353.17 456.15 353.08 493.39 353.08C514.78 353.09 536.16 353 557.54 353.02C563.02 353.03 577.72 351.41 581.75 354.28C582.5 359.64 581.99 365.41 581.99 370.86C582 381.91 581.96 392.96 581.98 404.01C581.98 408.97 583.42 419.47 581.03 423.47C582.18 424.71 582.36 425.1 582.41 426.75ZM286.86 378.78C284.15 377.56 279.84 377.57 277.15 378.76C275.1 381.91 275.55 395.91 276.62 399.69C279.39 401.88 284.32 401.76 287.24 399.86C288.73 395.84 289.01 382.37 286.86 378.78ZM318.96 379.38C315.62 377.26 309.55 377.41 305.98 378.98C304.27 382.44 304.39 396.54 305.98 400.12C309.48 401.75 315.67 401.98 318.85 399.69C320.32 395.22 320.33 383.87 318.96 379.38ZM348.08 397.53C349.11 394.71 348.26 391.83 348.09 388.88C347.78 383.27 348.72 377.81 341.5 378.03C339.53 378.1 338.01 378.1 336.26 379.01C334.81 382.54 334.54 395.94 336.65 398.97C339.82 399.95 345.31 399.53 348.08 397.53ZM419.63 379.51C416.56 377.44 411.8 377.32 408.45 378.78C406.64 381.64 405.58 399.1 410.6 399.76C412.99 400.07 417.28 400.34 419.13 398.59C421.13 396.7 420.45 382.4 419.63 379.51ZM448.6 378.78C445.44 377.39 440.19 377.53 437.17 379.21C435.57 383.12 435.53 396.15 437.17 400.02C440.28 401.67 445.59 401.77 448.7 400.14C450.26 396.72 450.45 381.98 448.6 378.78ZM499.14 379.51C496.13 377.43 492.15 377.45 489.07 379.42C487.76 383.93 487.58 395.17 489.16 399.69C492.18 401.62 496.07 401.81 499.01 399.69C500.42 394.96 500.39 384.29 499.14 379.51ZM528.06 378.78C525.51 377.49 521.93 377.64 519.34 378.73C517.33 381.62 517.41 398.16 519.15 401.13C521.71 402.34 525.59 402.47 528.11 401.13C530.01 397.8 529.9 382.18 528.06 378.78ZM558.99 378.42C555.79 377.52 551.2 377.64 548.17 379.06C546.43 382.31 546.52 396.66 548.17 400.02C551.32 401.59 555.64 401.67 558.99 400.66C561.48 397.91 561.47 381.17 558.99 378.42ZM390.32 379.11C388.33 378.48 386.61 378.67 384.55 378.98C378.44 379.88 380.23 385.56 380.41 390.32C380.54 393.62 380.26 397.04 381.67 400.07C384.62 401.58 388.61 401.78 391.32 399.69C392.6 395.78 392.88 382.26 390.32 379.11ZM582.41 433.16C581.93 434.02 581.45 434.87 580.98 435.73C583.01 440.41 582.06 446.49 582.06 451.59C582.06 461.44 582.06 471.29 582.06 481.14C582.06 485.9 581.24 491.42 582.6 495.96C469.8 496.04 357 496.11 244.2 496.18C246.4 489.83 245.12 481.44 245.12 474.65C245.12 465.28 245.18 455.91 245.19 446.54C245.2 442.14 245.82 437.43 244.95 433.23C357.44 433.2 469.93 433.18 582.41 433.16ZM422.03 441.28C419.25 439.57 415.61 439.62 412.66 441.02C411.01 444.23 411.05 459.82 412.66 463.14C415.42 464.39 419.02 464.63 421.73 463.12C423.49 459.72 423.38 444.97 422.03 441.28ZM500.6 440.83C497.72 440.83 494.83 440.83 491.95 440.83C489.33 444.66 489.52 459.42 491.95 463.38C494.83 463.38 497.72 463.38 500.6 463.38C503.13 459.26 503.23 444.88 500.6 440.83ZM531.6 441.39C528.45 440.24 523.27 440.23 520.06 441.25C517.66 444.23 517.85 459.98 520.06 463.03C523.29 463.94 528.49 464.08 531.6 462.8C533.55 459.8 533.6 444.37 531.6 441.39ZM559.71 441.45C556.95 440.41 553.09 440.28 550.34 441.33C548.23 444.31 548.27 458.45 550.34 461.41C553.07 462.53 560.42 462.33 561.72 458.92C562.58 456.66 561.32 453.21 561.21 450.87C561.06 447.67 561.76 444.15 559.71 441.45ZM392.48 441.78C389.23 440.55 384.97 440.59 381.62 441.49C379.41 444.73 379.36 459.54 381.17 463.12C384.21 464.7 389.59 464.57 392.69 463.12C394.39 459.84 394.44 444.9 392.48 441.78ZM451.59 441.84C448.61 440.52 444.99 440.43 442.22 442.17C440.76 445.1 441.35 448.4 441.34 451.59C441.33 459.27 440.3 467.86 451.59 463.2C453.4 460.1 453.28 445.02 451.59 441.84ZM287.5 444.38C284.76 442.12 279.29 442.21 276.57 444.38C275.25 448.32 274.76 459.87 275.7 463.84C278.16 465.84 286.07 466.81 287.76 463.24C288.89 460.85 288.41 447.02 287.5 444.38ZM315.81 444.38C312.76 442.36 306.72 441.92 303.82 444.43C302.76 448.52 302.54 459.16 303.82 463.16C307 465.36 312.69 465.32 315.89 463.12C317.02 459.92 317.1 447.42 315.81 444.38ZM344.3 443.66C341.03 442.57 336.55 442.52 333.3 443.66C331.45 446.59 331.51 460.36 332.67 463.84C335.54 466.14 340.96 465.86 344.33 464.56C346.16 461.49 346.16 446.7 344.3 443.66ZM581.95 503C582.17 524.99 582.38 546.97 582.59 568.96C574.79 570.18 565.58 569.04 557.54 569.04C540.01 569.04 522.47 569 504.93 569.03C448.71 569.13 392.47 568.54 336.26 569.02C314.39 569.21 292.53 569.03 270.66 569.04C265.05 569.04 248.14 570.37 244.06 568.11C246.45 562.75 245.05 554.77 245.05 548.9C245.04 538.65 245.1 528.86 245.11 518.62C245.12 513.38 245.83 507.5 244.64 502.44C248.92 500.27 261 501.66 266.34 501.67C283.64 501.69 300.94 501.69 318.24 501.7C380.23 501.73 442.22 501.79 504.21 501.7C523.67 501.67 543.13 501.67 562.59 501.67C566.18 501.68 580.3 500.66 581.95 503ZM384.55 511.39C381.79 514.3 382.1 528.52 383.46 532.32C386.15 534.21 390.25 534.05 393.2 532.77C395 529.4 394.93 514.62 392.84 511.41C390.07 510.58 387.32 510.58 384.55 511.39ZM419.87 511.99C408.42 505.79 409.62 517.61 409.75 524.39C409.81 527.31 409.17 530.28 410.21 533.04C413.12 535.29 417.53 535.32 420.39 533.04C421.72 529.49 421.73 515.23 419.87 511.99ZM440.77 511.27C438.31 513.97 438.29 529.51 440.05 532.74C443.22 534.25 448.44 534.04 451.59 532.53C453.11 529.01 453.09 514.58 450.87 511.57C447.63 510.51 444.08 510.7 440.77 511.27ZM503.48 512.85C500.6 510.69 495.28 510.65 491.95 511.92C489.92 514.61 489.91 529.88 491.37 533.04C494.52 534.86 499.88 534.48 503.19 533.04C504.77 529.99 504.54 516.32 503.48 512.85ZM558.99 533.37C561.39 530.51 561.22 519.71 561.04 515.74C560.95 513.75 560.25 511.8 558.08 511.34C548.29 509.28 548.12 513.01 548.05 520.78C548.02 524.53 547.78 528.42 548.17 532.12C550.7 534.84 555.69 534.44 558.99 533.37ZM532.02 513.58C528.87 511.75 522.98 512.08 520.11 514.3C519.27 517.79 519.03 530.06 520.57 533.04C523.71 534.58 529.1 534.87 532.09 533.04C533.51 529.73 533.47 516.87 532.02 513.58ZM316.93 514.3C313.35 512.87 306.99 512.75 303.84 515.02C302.75 518.92 302.41 532.3 304.54 535.54C307.74 537.06 313.47 536.83 316.79 535.64C318.85 532.43 318.73 517.7 316.93 514.3ZM347.07 514.41C343.91 513.25 340.09 513.23 336.9 514.3C334.97 517.61 334.84 532.47 336.98 535.65C340.1 536.79 344.28 536.78 347.27 535.2C348.93 531.84 349.01 517.57 347.07 514.41ZM286.52 515.67C283.41 514.11 277.37 514.8 274.74 517.18C273.89 519.76 274.67 522.4 274.82 525.11C275.1 530.17 274.24 536.2 280.75 536.32C282.93 536.36 284.6 536.44 286.52 535.44C288.21 532.11 288.27 518.98 286.52 515.67ZM582.38 574.17C582.27 585.81 582.16 597.45 582.05 609.08C585.13 610.98 588.49 611.33 591.56 613.05C592.6 617.75 592.9 635.02 591.69 639.55C590.26 644.88 585.52 650.86 585.03 656.3C584.36 663.61 585.04 671.3 585.04 678.64C585.04 690.56 584.23 702.8 585.06 714.68C585.2 716.68 585.79 718.4 585.8 720.45C585.82 724.72 586.14 729.18 585.77 733.43C585.71 734.14 585.1 735.01 585.1 735.58C585.11 736.01 585.67 736.55 585.76 737.04C586.52 741.31 585.96 746.41 585.79 750.72C579.65 754.83 563.64 750.18 555.38 752.94C554.33 752.2 553.27 751.46 552.22 750.72C551.57 739.51 552.04 728.08 552.09 716.84C552.11 710.82 552.46 704.92 551.06 699.18C542.79 698.29 534.15 698.93 525.83 698.93C521.89 698.93 517.6 699.52 513.94 698.1C508.52 701.58 510.13 707.68 510.8 713.27C511.15 716.18 510.02 718.94 510.08 721.89C510.11 723.48 510.61 724.73 510.8 726.25C511.13 728.84 510.59 731.21 510.12 733.56C509.82 735.01 510.75 735.8 510.75 737.02C510.75 737.81 510.18 738.4 510.08 739.21C509.49 743.93 512.11 747.25 508.93 751.44C503.1 753.27 495.24 752.01 489.07 752.01C475.37 752.01 461.68 752.01 447.98 752.01C402.33 752.01 356.68 752.01 311.03 752.01C295.41 752.01 279.79 752.02 264.18 752.01C258.99 752.01 248.91 753.51 244.71 751.11C244.19 749.88 243.41 748.42 243.19 747.08C242.9 745.33 243.72 744.31 243.92 742.77C244.64 737.23 243.91 731.09 243.91 725.49C243.91 710.12 243.94 694.74 243.94 679.36C243.94 670.92 245.05 661.59 242.84 653.51C241.19 647.51 237.35 642.06 236.03 635.97C235.23 632.31 235.99 627.62 235.99 623.86C236 619.24 235.22 615.04 238.23 611.3C239.68 611.16 241.13 611.02 242.58 610.88C243.29 609.75 244 608.62 244.71 607.48C243.33 604.23 243.15 591.02 244.07 587.12C244.26 586.31 244.9 585.76 244.99 584.91C245.12 583.71 244.21 583.1 244.2 582.05C244.19 581.06 245.06 580.26 245.08 579.17C245.11 577.77 244.39 576.5 244.23 575.11C246.46 573.81 249.96 574.34 252.64 574.34C258.41 574.36 264.18 574.37 269.94 574.36C291.08 574.31 312.23 574.44 333.37 574.34C389.11 574.06 444.86 574.31 500.6 574.33C518.62 574.34 536.64 574.45 554.66 574.36C562.35 574.32 570.05 574.49 577.73 574.48C579.33 574.48 580.91 573.98 582.38 574.17ZM284.65 605.84C285.73 602.9 285.12 599.59 285.15 596.47C285.2 591.99 286.97 585.18 280.97 584.24C278.85 583.91 276.8 584.4 274.99 585.39C273.34 588.71 273.32 602.25 274.5 605.84C277.27 607.89 281.87 607.96 284.65 605.84ZM313.35 584.94C310.84 584.07 307.78 583.8 305.26 584.68C302.68 587.69 303.66 592.02 303.7 595.75C303.78 603.76 302.3 611.28 313.62 607.28C315.58 604.13 315.35 588.12 313.35 584.94ZM344.91 585.12C341.71 583.57 336.42 583.75 333.37 585.63C332.17 588.48 332.11 602.84 333.01 605.84C335.78 607.96 341.91 608.14 344.99 606.56C346.72 603.57 346.64 588.19 344.91 585.12ZM419.87 585.12C417.04 584.02 410.23 583.01 407.7 585.36C405.99 586.95 406.43 589.37 406.55 591.42C406.82 595.99 405.51 601.53 406.94 605.84C410.2 608.15 417.15 608.08 420.59 606.08C422.1 602.67 422.05 588.07 419.87 585.12ZM450.46 605.84C451.46 602.77 450.95 598.99 450.91 595.75C450.85 590.77 452.41 583.82 445.3 584.19C443.3 584.29 441.77 584.39 440.05 585.38C438.42 588.57 438.36 603.39 440.05 606.48C443.12 607.86 447.78 607.98 450.46 605.84ZM389.91 586.38C386.71 584.92 380.92 585.72 378.06 587.69C377.16 590.5 377.17 603.66 379.09 605.89C380.42 607.42 382.72 607.36 384.55 607.35C386.88 607.32 388.39 607.31 390.32 606C391.49 602.6 391.6 589.4 389.91 586.38ZM506.9 587.82C503.88 586.26 499.37 586.4 496.28 587.84C494.42 591.22 493.77 605.49 495.56 609.02C498.63 610.4 503.09 610.12 506.37 609.37C508.76 606.24 508.61 591.53 506.9 587.82ZM534.48 587.3C531.15 586.41 526.86 586.51 523.67 587.79C521.89 590.93 522.06 603.85 523.3 607.28C526.08 609.61 531.12 609.37 534.48 608.4C536.89 605.36 536.86 590.37 534.48 587.3ZM563.31 587.51C560.35 586.38 556.01 586.3 553.22 587.81C551.29 590.83 551.48 605.43 552.99 608.72C556.01 610.58 561 610.46 564.02 608.72C565.59 605.01 565.84 590.54 563.31 587.51ZM336.07 657.74C334.84 652.03 324.5 651.92 319.68 651.47C305.78 650.2 292.4 649.9 278.58 652.21C275.16 652.78 266.37 654.75 264.81 657.74C266.22 661.48 269.33 659.91 272.4 659.16C280.58 657.16 288.07 655.59 296.61 655.48C305.53 655.37 315.51 654.84 324.2 657.11C327.95 658.08 333.03 661.08 336.07 657.74ZM449.53 661.34C452.15 655.94 445.74 655.68 442.06 654.74C439.8 654.16 437.66 653.16 435.37 652.7C421.87 649.99 406.15 650.6 392.58 652.6C389.23 653.1 380.38 654.78 379.23 657.74C380.99 661.13 384.48 659.69 387.66 659.14C395.33 657.8 402.68 656.35 410.5 656.11C420.77 655.8 428.02 657.12 437.89 658.86C441.18 659.44 446.78 662.11 449.53 661.34ZM564.96 657.74C563.44 654.11 556.79 654.01 553.23 653.03C541.86 649.91 520.44 650.56 508.77 652.67C506.71 653.05 504.8 653.99 502.77 654.54C499.1 655.54 491.78 655.68 494.51 661.34C497.23 662.07 503.05 659.44 506.37 658.85C515.64 657.21 524.23 655.81 533.76 656.13C541.59 656.39 548.89 657.82 556.57 659.15C559.75 659.7 563.14 661.14 564.96 657.74ZM316.27 688.01C313.4 685.96 308.41 686.08 305.53 688.01C304.28 691.81 304.36 706 305.97 709.64C308.96 711.28 312.66 710.93 315.72 709.64C317.55 706.3 317.56 691.52 316.27 688.01ZM286.52 688.37C283.49 687.32 279.24 687.43 276.29 688.73C274.15 692.21 274.2 705.83 275.92 709.64C278.8 711.16 283.43 711.13 286.52 710.16C288.99 707.16 289.02 691.4 286.52 688.37ZM343.5 688.73C340.98 687.82 336.29 686.75 334.23 689.21C332.82 690.89 333.31 693.35 333.42 695.32C333.69 699.9 332.38 705.11 334.09 709.42C337.06 711.2 340.6 711.09 343.7 709.64C345.39 706.02 345.37 692.22 343.5 688.73ZM419.87 709.39C420.96 706.7 421.52 691.83 419.63 690.05C417.87 688.4 412.89 688.38 410.63 688.74C409.22 688.96 408.11 689.94 407.66 691.28C406.65 694.27 407 706.89 408.34 709.71C411.47 711.42 416.78 711.22 419.87 709.39ZM448.3 689.45C445.01 688.39 440.21 688.16 437.17 689.96C435.67 693.09 435.7 707.28 436.98 710.36C439.82 712.46 445.6 712.27 448.7 710.81C450.44 707.86 450.28 692.26 448.3 689.45ZM391.04 689.69C388.29 688.48 383.53 688.58 380.91 690.17C379.39 692.91 378.61 707.23 379.68 710.36C382.79 712.39 388.65 712.47 391.79 710.36C392.89 706.59 393.19 692.82 391.04 689.69Z" fill="#eea12f" fill-rule="evenodd" stroke="#eea12f" stroke-width="0.25" stroke-linejoin="round"/>
<path d="M286.86 378.78C289.01 382.37 288.73 395.84 287.24 399.86C284.32 401.76 279.39 401.88 276.62 399.69C275.55 395.91 275.1 381.91 277.15 378.76C279.84 377.57 284.15 377.56 286.86 378.78ZM318.96 379.38C320.33 383.87 320.32 395.22 318.85 399.69C315.67 401.98 309.48 401.75 305.98 400.12C304.39 396.54 304.27 382.44 305.98 378.98C309.55 377.41 315.62 377.26 318.96 379.38ZM348.08 397.53C345.31 399.53 339.82 399.95 336.65 398.97C334.54 395.94 334.81 382.54 336.26 379.01C338.01 378.1 339.53 378.1 341.5 378.03C348.72 377.81 347.78 383.27 348.09 388.88C348.26 391.83 349.11 394.71 348.08 397.53ZM419.63 379.51C420.45 382.4 421.13 396.7 419.13 398.59C417.28 400.34 412.99 400.07 410.6 399.76C405.58 399.1 406.64 381.64 408.45 378.78C411.8 377.32 416.56 377.44 419.63 379.51ZM448.6 378.78C450.45 381.98 450.26 396.72 448.7 400.14C445.59 401.77 440.28 401.67 437.17 400.02C435.53 396.15 435.57 383.12 437.17 379.21C440.19 377.53 445.44 377.39 448.6 378.78ZM499.14 379.51C500.39 384.29 500.42 394.96 499.01 399.69C496.07 401.81 492.18 401.62 489.16 399.69C487.58 395.17 487.76 383.93 489.07 379.42C492.15 377.45 496.13 377.43 499.14 379.51ZM528.06 378.78C529.9 382.18 530.01 397.8 528.11 401.13C525.59 402.47 521.71 402.34 519.15 401.13C517.41 398.16 517.33 381.62 519.34 378.73C521.93 377.64 525.51 377.49 528.06 378.78ZM558.99 378.42C561.47 381.17 561.48 397.91 558.99 400.66C555.64 401.67 551.32 401.59 548.17 400.02C546.52 396.66 546.43 382.31 548.17 379.06C551.2 377.64 555.79 377.52 558.99 378.42ZM390.32 379.11C392.88 382.26 392.6 395.78 391.32 399.69C388.61 401.78 384.62 401.58 381.67 400.07C380.26 397.04 380.54 393.62 380.41 390.32C380.23 385.56 378.44 379.88 384.55 378.98C386.61 378.67 388.33 378.48 390.32 379.11ZM422.03 441.28C423.38 444.97 423.49 459.72 421.73 463.12C419.02 464.63 415.42 464.39 412.66 463.14C411.05 459.82 411.01 444.23 412.66 441.02C415.61 439.62 419.25 439.57 422.03 441.28ZM500.6 440.83C503.23 444.88 503.13 459.26 500.6 463.38C497.72 463.38 494.83 463.38 491.95 463.38C489.52 459.42 489.33 444.66 491.95 440.83C494.83 440.83 497.72 440.83 500.6 440.83ZM531.6 441.39C533.6 444.37 533.55 459.8 531.6 462.8C528.49 464.08 523.29 463.94 520.06 463.03C517.85 459.98 517.66 444.23 520.06 441.25C523.27 440.23 528.45 440.24 531.6 441.39ZM559.71 441.45C561.76 444.15 561.06 447.67 561.21 450.87C561.32 453.21 562.58 456.66 561.72 458.92C560.42 462.33 553.07 462.53 550.34 461.41C548.27 458.45 548.23 444.31 550.34 441.33C553.09 440.28 556.95 440.41 559.71 441.45ZM392.48 441.78C394.44 444.9 394.39 459.84 392.69 463.12C389.59 464.57 384.21 464.7 381.17 463.12C379.36 459.54 379.41 444.73 381.62 441.49C384.97 440.59 389.23 440.55 392.48 441.78ZM451.59 441.84C453.28 445.02 453.4 460.1 451.59 463.2C440.3 467.86 441.33 459.27 441.34 451.59C441.35 448.4 440.76 445.1 442.22 442.17C444.99 440.43 448.61 440.52 451.59 441.84ZM287.5 444.38C288.41 447.02 288.89 460.85 287.76 463.24C286.07 466.81 278.16 465.84 275.7 463.84C274.76 459.87 275.25 448.32 276.57 444.38C279.29 442.21 284.76 442.12 287.5 444.38ZM315.81 444.38C317.1 447.42 317.02 459.92 315.89 463.12C312.69 465.32 307 465.36 303.82 463.16C302.54 459.16 302.76 448.52 303.82 444.43C306.72 441.92 312.76 442.36 315.81 444.38ZM344.3 443.66C346.16 446.7 346.16 461.49 344.33 464.56C340.96 465.86 335.54 466.14 332.67 463.84C331.51 460.36 331.45 446.59 333.3 443.66C336.55 442.52 341.03 442.57 344.3 443.66ZM384.55 511.39C387.32 510.58 390.07 510.58 392.84 511.41C394.93 514.62 395 529.4 393.2 532.77C390.25 534.05 386.15 534.21 383.46 532.32C382.1 528.52 381.79 514.3 384.55 511.39ZM419.87 511.99C421.73 515.23 421.72 529.49 420.39 533.04C417.53 535.32 413.12 535.29 410.21 533.04C409.17 530.28 409.81 527.31 409.75 524.39C409.62 517.61 408.42 505.79 419.87 511.99ZM440.77 511.27C444.08 510.7 447.63 510.51 450.87 511.57C453.09 514.58 453.11 529.01 451.59 532.53C448.44 534.04 443.22 534.25 440.05 532.74C438.29 529.51 438.31 513.97 440.77 511.27ZM503.48 512.85C504.54 516.32 504.77 529.99 503.19 533.04C499.88 534.48 494.52 534.86 491.37 533.04C489.91 529.88 489.92 514.61 491.95 511.92C495.28 510.65 500.6 510.69 503.48 512.85ZM558.99 533.37C555.69 534.44 550.7 534.84 548.17 532.12C547.78 528.42 548.02 524.53 548.05 520.78C548.12 513.01 548.29 509.28 558.08 511.34C560.25 511.8 560.95 513.75 561.04 515.74C561.22 519.71 561.39 530.51 558.99 533.37ZM532.02 513.58C533.47 516.87 533.51 529.73 532.09 533.04C529.1 534.87 523.71 534.58 520.57 533.04C519.03 530.06 519.27 517.79 520.11 514.3C522.98 512.08 528.87 511.75 532.02 513.58ZM316.93 514.3C318.73 517.7 318.85 532.43 316.79 535.64C313.47 536.83 307.74 537.06 304.54 535.54C302.41 532.3 302.75 518.92 303.84 515.02C306.99 512.75 313.35 512.87 316.93 514.3ZM347.07 514.41C349.01 517.57 348.93 531.84 347.27 535.2C344.28 536.78 340.1 536.79 336.98 535.65C334.84 532.47 334.97 517.61 336.9 514.3C340.09 513.23 343.91 513.25 347.07 514.41ZM286.52 515.67C288.27 518.98 288.21 532.11 286.52 535.44C284.6 536.44 282.93 536.36 280.75 536.32C274.24 536.2 275.1 530.17 274.82 525.11C274.67 522.4 273.89 519.76 274.74 517.18C277.37 514.8 283.41 514.11 286.52 515.67ZM284.65 605.84C281.87 607.96 277.27 607.89 274.5 605.84C273.32 602.25 273.34 588.71 274.99 585.39C276.8 584.4 278.85 583.91 280.97 584.24C286.97 585.18 285.2 591.99 285.15 596.47C285.12 599.59 285.73 602.9 284.65 605.84ZM313.35 584.94C315.35 588.12 315.58 604.13 313.62 607.28C302.3 611.28 303.78 603.76 303.7 595.75C303.66 592.02 302.68 587.69 305.26 584.68C307.78 583.8 310.84 584.07 313.35 584.94ZM344.91 585.12C346.64 588.19 346.72 603.57 344.99 606.56C341.91 608.14 335.78 607.96 333.01 605.84C332.11 602.84 332.17 588.48 333.37 585.63C336.42 583.75 341.71 583.57 344.91 585.12ZM419.87 585.12C422.05 588.07 422.1 602.67 420.59 606.08C417.15 608.08 410.2 608.15 406.94 605.84C405.51 601.53 406.82 595.99 406.55 591.42C406.43 589.37 405.99 586.95 407.7 585.36C410.23 583.01 417.04 584.02 419.87 585.12ZM450.46 605.84C447.78 607.98 443.12 607.86 440.05 606.48C438.36 603.39 438.42 588.57 440.05 585.38C441.77 584.39 443.3 584.29 445.3 584.19C452.41 583.82 450.85 590.77 450.91 595.75C450.95 598.99 451.46 602.77 450.46 605.84ZM389.91 586.38C391.6 589.4 391.49 602.6 390.32 606C388.39 607.31 386.88 607.32 384.55 607.35C382.72 607.36 380.42 607.42 379.09 605.89C377.17 603.66 377.16 590.5 378.06 587.69C380.92 585.72 386.71 584.92 389.91 586.38ZM506.9 587.82C508.61 591.53 508.76 606.24 506.37 609.37C503.09 610.12 498.63 610.4 495.56 609.02C493.77 605.49 494.42 591.22 496.28 587.84C499.37 586.4 503.88 586.26 506.9 587.82ZM534.48 587.3C536.86 590.37 536.89 605.36 534.48 608.4C531.12 609.37 526.08 609.61 523.3 607.28C522.06 603.85 521.89 590.93 523.67 587.79C526.86 586.51 531.15 586.41 534.48 587.3ZM563.31 587.51C565.84 590.54 565.59 605.01 564.02 608.72C561 610.46 556.01 610.58 552.99 608.72C551.48 605.43 551.29 590.83 553.22 587.81C556.01 586.3 560.35 586.38 563.31 587.51ZM316.27 688.01C317.56 691.52 317.55 706.3 315.72 709.64C312.66 710.93 308.96 711.28 305.97 709.64C304.36 706 304.28 691.81 305.53 688.01C308.41 686.08 313.4 685.96 316.27 688.01ZM286.52 688.37C289.02 691.4 288.99 707.16 286.52 710.16C283.43 711.13 278.8 711.16 275.92 709.64C274.2 705.83 274.15 692.21 276.29 688.73C279.24 687.43 283.49 687.32 286.52 688.37ZM343.5 688.73C345.37 692.22 345.39 706.02 343.7 709.64C340.6 711.09 337.06 711.2 334.09 709.42C332.38 705.11 333.69 699.9 333.42 695.32C333.31 693.35 332.82 690.89 334.23 689.21C336.29 686.75 340.98 687.82 343.5 688.73ZM419.87 709.39C416.78 711.22 411.47 711.42 408.34 709.71C407 706.89 406.65 694.27 407.66 691.28C408.11 689.94 409.22 688.96 410.63 688.74C412.89 688.38 417.87 688.4 419.63 690.05C421.52 691.83 420.96 706.7 419.87 709.39ZM448.3 689.45C450.28 692.26 450.44 707.86 448.7 710.81C445.6 712.27 439.82 712.46 436.98 710.36C435.7 707.28 435.67 693.09 437.17 689.96C440.21 688.16 445.01 688.39 448.3 689.45ZM391.04 689.69C393.19 692.82 392.89 706.59 391.79 710.36C388.65 712.47 382.79 712.39 379.68 710.36C378.61 707.23 379.39 692.91 380.91 690.17C383.53 688.58 388.29 688.48 391.04 689.69Z" fill="#ffffff" fill-rule="evenodd" stroke="#ffffff" stroke-width="0.25" stroke-linejoin="round"/>
<path d="M588.85 344.89C588.18 346.72 587.81 347.59 586.02 348.38C573.38 346.97 560.17 347.95 547.45 347.97C525.83 348.02 504.2 347.95 482.58 347.97C473.45 347.98 464.32 347.99 455.19 347.97C451.89 347.96 446.82 347.03 444.02 348.64C427.94 347.59 411.48 348.56 395.36 348.56C361.73 348.54 328.09 348.65 294.45 348.67C280.76 348.68 267.06 348.67 253.36 348.77C248.32 348.81 240.84 350.37 236.37 347.79C236.11 346.99 235.86 346.19 235.61 345.39C236.24 344.71 236.87 344.04 237.51 343.36C247.48 342.45 257.76 343.22 267.78 343.17C287.24 343.05 306.7 343.13 326.17 343.15C382.15 343.2 438.13 343.15 494.11 343.15C516.46 343.15 538.8 343.16 561.15 343.14C565.87 343.14 583.01 342.19 586.32 343.23C587.22 343.51 588.03 344.39 588.85 344.89ZM244.9 426.12C246.87 428.33 261.81 427.24 265.62 427.22C285.81 427.08 305.98 427.06 326.17 427.21C382.86 427.64 439.57 426.85 496.28 427.18C514.78 427.29 533.28 427.11 551.78 427.19C561.08 427.23 573.5 428.31 582.41 426.75C585.89 428.26 586.26 431.87 582.41 433.16C469.93 433.18 357.44 433.2 244.95 433.23C241.85 432.82 238.65 433.66 236.3 431.4C236.49 425.75 241.07 427.95 244.9 426.12ZM244.2 496.18C357 496.11 469.8 496.04 582.6 495.96C585.31 498.08 583.71 500.86 581.95 503C580.3 500.66 566.18 501.68 562.59 501.67C543.13 501.67 523.67 501.67 504.21 501.7C442.22 501.79 380.23 501.73 318.24 501.7C300.94 501.69 283.64 501.69 266.34 501.67C261 501.66 248.92 500.27 244.64 502.44C242.86 500.76 242.23 497.92 244.2 496.18ZM244.06 568.11C248.14 570.37 265.05 569.04 270.66 569.04C292.53 569.03 314.39 569.21 336.26 569.02C392.47 568.54 448.71 569.13 504.93 569.03C522.47 569 540.01 569.04 557.54 569.04C565.58 569.04 574.79 570.18 582.59 568.96C582.7 569 582.8 569.04 582.9 569.08C583.54 571.09 583.76 572.48 582.38 574.17C580.91 573.98 579.33 574.48 577.73 574.48C570.05 574.49 562.35 574.32 554.66 574.36C536.64 574.45 518.62 574.34 500.6 574.33C444.86 574.31 389.11 574.06 333.37 574.34C312.23 574.44 291.08 574.31 269.94 574.36C264.18 574.37 258.41 574.36 252.64 574.34C249.96 574.34 246.46 573.81 244.23 575.11C241.5 572.88 241.57 570.42 244.06 568.11ZM336.07 657.74C333.03 661.08 327.95 658.08 324.2 657.11C315.51 654.84 305.53 655.37 296.61 655.48C288.07 655.59 280.58 657.16 272.4 659.16C269.33 659.91 266.22 661.48 264.81 657.74C266.37 654.75 275.16 652.78 278.58 652.21C292.4 649.9 305.78 650.2 319.68 651.47C324.5 651.92 334.84 652.03 336.07 657.74ZM449.53 661.34C446.78 662.11 441.18 659.44 437.89 658.86C428.02 657.12 420.77 655.8 410.5 656.11C402.68 656.35 395.33 657.8 387.66 659.14C384.48 659.69 380.99 661.13 379.23 657.74C380.38 654.78 389.23 653.1 392.58 652.6C406.15 650.6 421.87 649.99 435.37 652.7C437.66 653.16 439.8 654.16 442.06 654.74C445.74 655.68 452.15 655.94 449.53 661.34ZM564.96 657.74C563.14 661.14 559.75 659.7 556.57 659.15C548.89 657.82 541.59 656.39 533.76 656.13C524.23 655.81 515.64 657.21 506.37 658.85C503.05 659.44 497.23 662.07 494.51 661.34C491.78 655.68 499.1 655.54 502.77 654.54C504.8 653.99 506.71 653.05 508.77 652.67C520.44 650.56 541.86 649.91 553.23 653.03C556.79 654.01 563.44 654.11 564.96 657.74Z" fill="#3a2604" fill-rule="evenodd" stroke="#3a2604" stroke-width="0.25" stroke-linejoin="round"/>
</svg>