<?xml version="1.0" encoding="UTF-8"?>
<svg xmlns="http://www.w3.org/2000/svg" viewBox="0 0 821 663" width="821" height="663">
<path d="M531.04 333.38C531.02 347.75 531 362.12 530.98 376.49C531.24 377.05 531.49 377.61 531.75 378.17C531.63 378.49 531.51 378.8 531.39 379.12C529.24 380.13 527.9 379.23 525.67 379.18C521.73 379.1 517.73 379.7 513.75 379.52C512.45 379.45 510.74 378.65 509.52 378.79C508.89 378.87 508.02 379.64 507.48 379.97C505.14 378.66 503.78 379.87 501.44 379.81C500.49 379.78 499.7 378.81 498.73 378.79C494.44 378.71 486.76 381.11 482.56 378.68C479.61 380.44 477.62 378.72 474.5 379.2C468.85 380.08 462 379.91 456.12 379.45C453.74 379.27 451.31 380.43 449.23 379.11C450.24 375.6 449.65 371.73 449.64 368.07C449.62 359.99 449.61 351.9 449.66 343.82C449.68 340.13 448.64 334.8 450.3 331.41C451.26 329.45 453 328.2 454.06 326.36C456.05 322.89 457.93 318.43 461.69 316.64C466.31 318.18 467.91 323.04 470.32 326.8C471.47 328.6 473.01 329.55 473.8 331.72C474.94 334.86 473.98 339.19 474.01 342.48C474.08 351 474.03 359.54 474.03 368.07C474.04 371.28 473.33 375.11 474.19 378.17C475.39 378.17 476.59 378.17 477.79 378.17C478.99 374.32 478.01 368.81 478.01 364.7C478.01 354.69 479.29 343.17 477.18 333.61C480.54 327.14 483.89 320.66 487.25 314.19C491.88 314.08 493.17 318.69 495.44 321.91C497.73 325.15 500.44 328.1 502.1 331.77C503.52 334.91 502.97 339.11 502.92 342.48C502.83 348.98 502.83 355.5 502.88 362.01C502.9 364.61 501.87 376.17 502.86 377.77C503.65 379.05 505.02 378.44 506.14 378.29C506.08 369.27 506.65 360.23 506.47 351.23C506.31 342.78 504.13 334.76 509.37 327.91C512.59 323.69 514.33 317.01 520.28 316.79C524.44 322.05 527.49 327.76 531.04 333.38ZM247.12 342.14C247.08 353.36 247.03 364.59 246.99 375.81C247.05 376.93 247.11 378.04 247.18 379.16C245.14 380.24 243.01 379.36 240.78 379.39C235.79 379.44 224.36 378.47 220.22 379.95C220.82 379.14 221.41 378.32 222 377.5C220.79 368.5 222.1 359.68 222.08 350.56C222.07 345.68 220.97 337.86 221.95 333.34C222.36 331.49 229.67 319.94 231.15 318.42C231.81 317.75 232.65 317.54 233.24 316.88C234.41 317.06 235.57 317.25 236.74 317.43C239.51 326.55 246.83 332.23 247.12 342.14ZM276.2 334.06C276.2 346.37 276.2 358.68 276.2 370.99C275.99 373.69 275.78 376.4 275.57 379.1C273.63 380.23 270.18 379.21 267.72 379.06C262.5 378.74 256.08 380.7 251.22 379.36C251.01 369.32 251.27 359.26 251.15 349.21C251.09 344.35 250 337.81 251.28 333.13C252.99 326.88 259.23 322.66 261.61 316.88C262.95 316.77 264.26 316.5 265.48 317.33C266.76 318.19 274.88 329.57 275.6 331.2C275.99 332.08 275.95 333.12 276.2 334.06ZM305.07 334.03C305.06 347.31 305.05 360.59 305.04 373.87C305.06 375.62 305.08 377.38 305.1 379.13C302.15 380.93 291.31 378.97 287.25 379.37C285.11 379.59 281.96 380.13 280.18 379.08C280 378.78 279.83 378.48 279.65 378.17C280.67 376.95 280.57 376.59 279.98 375.14C280 361.23 280.03 347.33 280.05 333.42C280.79 332.31 280.93 330.96 281.65 329.81C283.44 326.98 285.72 324.44 287.69 321.76C288.54 320.61 288.71 318.74 289.73 317.76C290.56 316.96 292.21 316.89 293.31 316.86C296.38 318.46 304.06 330.3 305.07 334.03ZM334.06 379.16C330.08 381.02 319.61 379.77 314.86 379.74C312.7 379.72 310.3 380.28 308.46 379.14C308.61 377.8 308.75 376.47 308.89 375.14C308.9 361.22 308.91 347.3 308.91 333.38C310.31 330.06 311.89 327.15 314 324.31C314.47 323.68 315.27 323.55 315.67 322.76C316.71 320.76 317.74 317.79 320.12 316.89C320.88 316.6 322.13 316.82 322.94 316.65C325.16 320.1 332.83 329.7 333.73 332.54C335.04 336.7 333.91 342.83 333.92 347.19C333.94 357.84 333.76 368.52 334.06 379.16ZM361.78 379.14C359.43 380.6 347.89 379.54 344.42 379.46C342.3 379.4 340.36 380.16 338.66 379.11C337.49 374.76 338.35 369.22 338.34 364.7C338.32 353.44 338.79 342.07 339.11 330.94C340.84 330.61 340.55 328.64 341.29 327.33C343.49 323.45 346.1 319.46 349.21 316.32C352.91 317.85 354.4 322.04 356.73 325.18C358.58 327.68 360.91 329.97 361.78 333.13C363.21 338.32 362.02 349.45 362.02 355.27C362.02 363.13 362.67 371.33 361.78 379.14ZM389.28 379.18C385.9 380.96 375.67 379.76 371.44 379.76C369.36 379.77 367.21 380.12 365.6 379.11C363.99 372.97 365.23 354.55 365.28 347.19C365.31 342.67 364.36 337.16 365.43 332.77C366.75 327.36 373.39 321.61 376.15 316.59C377.05 316.59 377.95 316.59 378.85 316.59C381.53 321.56 387.22 325.67 388.97 331.09C390.25 335.07 389.19 340.98 389.16 345.17C389.06 356.4 388.22 368 389.28 379.18ZM615.16 332.71C615.16 347.08 615.16 361.45 615.16 375.81C615.3 376.6 615.45 377.39 615.59 378.17C615.4 378.51 615.21 378.85 615.02 379.18C612.26 380.74 605.93 379.63 602.45 379.64C598.81 379.66 593.95 378.75 590.43 379.59C589.86 379.73 589.59 380.46 588.98 380.44C588.29 380.41 588.2 379.61 587.63 379.5C585.73 379.12 577.53 379.74 574.83 379.74C570.41 379.74 564.31 378.66 560.69 380.68C559.7 380.44 558.83 379.69 558 379.5C557.69 379.43 557.01 379.91 556.63 379.92C555.51 379.96 554.4 379.4 553.27 379.37C549.49 379.27 545.64 379.68 541.83 379.61C540.43 379.58 539.08 378.9 537.78 378.86C536.12 378.82 536.13 379.99 534.65 379.16C533.6 374.36 534.47 368.32 534.47 363.35C534.48 356.17 534.35 348.97 534.46 341.79C534.5 338.94 533.98 335.65 535.09 332.92C536.31 329.89 539.16 327.28 540.92 324.58C542.56 322.08 544.24 319.27 547.32 318.23C549.69 319.73 556.69 330.1 557.05 333.05C557.55 337.22 556.96 341.64 557.04 345.84C557.09 348.11 557.79 350.07 557.99 352.26C558.76 360.78 557.8 369.66 557.92 378.17C559.07 378.4 560.22 378.62 561.37 378.85C561.83 378.28 562.29 377.72 562.75 377.16C563.44 369.44 563.69 357.54 562.8 349.89C562.13 344.16 561.07 337.69 562.79 332.04C564.63 327.66 570.74 319.8 574.16 316.41C578.39 317.31 579.59 322.61 581.61 325.98C583.56 329.24 586.52 332.62 587.45 336.4C588.76 341.76 587.63 357.01 587.62 363.35C587.62 365.94 586.65 376.15 587.63 377.88C587.98 378.49 588.45 378.45 588.98 378.82C589.73 378.37 590.34 378.4 590.66 377.46C591.41 375.29 590.52 365.65 590.52 362.68C590.51 355.5 590.53 348.31 590.52 341.13C590.52 338.4 589.76 334.18 591 331.69C592.36 328.94 594.71 326.59 596.47 324.04C598.5 321.09 600.14 317.2 603.8 316.27C608.13 320.42 612.61 327.24 615.16 332.71ZM646.58 376.52C646.59 361.66 646.6 346.79 646.61 331.93C649.77 327.64 654.62 317.69 659.7 316.28C661.35 317.74 661.45 318.76 662.44 320.63C663.86 323.33 666.16 325.69 667.6 328.34C668.96 330.85 669.84 333.67 671.6 335.98C671.6 350.38 671.6 364.78 671.59 379.19C668.94 380.95 661.86 379.74 658.35 379.74C648.31 379.73 640.85 379.61 630.74 379.65C627.3 379.66 621.2 380.77 618.28 379.16C619.51 375.6 618.71 371.14 618.72 367.4C618.75 360.22 618.86 353.02 618.77 345.84C618.72 341.86 617.89 337 618.61 333.09C619.12 330.34 627.85 318.7 630.06 316.45C634.51 317.14 635.32 321.22 637.86 324.28C639.39 326.12 641.56 328.16 642.67 330.37C644.48 333.95 643.3 339.93 643.31 343.82C643.32 351.91 643.29 359.99 643.32 368.07C643.33 371.41 642.79 375.12 643.53 378.35C645.19 378.56 647.12 378.75 646.58 376.52ZM699.19 332.82C699.2 347.15 699.21 361.48 699.21 375.81C699.29 376.62 699.36 377.43 699.43 378.24C701.05 378.52 701.34 378.62 702.8 377.7C702.8 376.46 702.3 375.86 702.12 374.76C700.95 367.63 702.12 354.3 702.12 346.52C702.12 342.63 701.26 337.69 702.14 333.92C702.8 331.06 711.89 318.44 714.25 316.24C719.11 317.51 724.64 327.56 727.29 331.87C727.47 345.17 727.65 358.47 727.83 371.77C727.53 374.53 726.68 377.15 729.07 378.83C731.99 377.01 730.77 366.41 730.74 362.68C730.68 355.35 730.44 348.04 730.41 340.72C730.4 337.8 729.82 334.35 730.99 331.58C732.26 328.59 734.8 326.68 736.49 324.02C738.52 320.84 739.87 317.33 743.88 316.41C746.48 319.18 755.25 334.21 755.78 337.79C756.09 339.85 755.45 341.83 755.33 343.86C754.97 349.63 755.47 355.57 755.61 361.33C755.71 365.7 754.09 374.86 755.84 378.51C755.78 378.71 755.73 378.91 755.67 379.12C752.58 380.96 746.18 379.76 742.54 379.75C739.02 379.74 735.25 380.17 731.78 379.94C731.39 379.92 730.75 379.44 730.41 379.5C729.84 379.6 729.76 380.44 729.07 380.44C728.38 380.44 728.29 379.61 727.72 379.5C727.39 379.43 726.76 379.89 726.35 379.89C722.41 379.91 718.28 379.63 714.25 379.65C710.45 379.67 703.5 378.28 700.78 380.62C695.91 377.17 679.59 382.09 674.74 379.2C674.78 363.48 674.82 347.76 674.86 332.04C676.2 329.21 684.07 317.76 686.64 316.56C689.98 317.15 698 329.38 699.19 332.82ZM820.89 325.2C820.89 343.19 820.89 361.19 820.89 379.19C812.7 380.01 805.35 379.68 796.42 379.63C792.94 379.61 787.77 378.64 784.97 380.62C781.02 377.23 763.54 382.09 758.36 379.14C758.55 363.44 758.74 347.74 758.92 332.04C762.67 326.8 766.41 321.57 770.15 316.34C774.14 317.25 775.51 320.91 777.5 324.05C779.35 326.96 782.2 329.18 783.11 332.71C783.78 335.32 783.12 338.46 783.1 341.13C783.03 348.08 783.14 355.05 783.16 362.01C783.16 364.41 782.46 376.44 783.2 377.79C783.7 378.7 784.83 378.56 785.64 378.74C787.44 376.02 786.35 366.52 786.33 362.68C786.29 356.85 786.54 350.99 786.38 345.17C786.28 341.44 785.43 336.49 786.56 332.95C787.46 330.13 789.88 328.14 791.5 325.82C793.62 322.76 795.31 318.56 798.44 316.42C802.61 317.16 804.06 321.65 806.31 324.79C808.36 327.65 810.99 330.37 811.87 333.93C812.65 337.09 811.85 341.23 811.85 344.49C811.85 350.33 811.91 356.17 811.91 362.01C811.91 365.51 812.29 369.24 811.9 372.71C811.73 374.23 810.65 375.72 811.2 377.34C811.75 378.94 813.46 378.43 814.6 378.25C815.29 375.25 814.75 371.84 814.77 368.74C814.85 359.31 814.81 349.88 814.77 340.46C814.76 338.18 814.21 335.27 814.63 333.07C814.99 331.19 819.11 325.82 820.89 325.2ZM418.26 340.12C418.27 351.57 418.27 363.02 418.28 374.47C418.27 376.02 418.26 377.58 418.25 379.13C416.04 380.21 403.11 379.63 399.72 379.61C397.51 379.59 394.89 380.2 393.21 379.15C391.89 369.02 392.98 358.09 392.99 347.86C392.99 343.4 391.94 337.45 393.26 333.19C394.28 329.91 402.6 321.07 405.11 318.42C406.68 318.76 408.25 319.11 409.83 319.45C411.24 324.26 415.87 327.21 417.73 331.77C418.79 334.33 417.65 337.44 418.26 340.12ZM446.04 333.38C446.06 335.63 446.08 337.87 446.1 340.12C446.09 347.3 446.09 354.49 446.08 361.67C446.09 363.47 446.1 365.26 446.11 367.06C446.02 371.07 445.94 375.08 445.86 379.09C442.84 380.53 431.42 379.29 427.34 379.25C425.02 379.22 423.07 380.38 420.94 379.14C421.96 368.87 421.15 358.18 421.16 347.86C421.17 344.19 420.2 339.12 421.27 335.62C423.15 329.45 428.75 324 432.05 318.49C433.07 318.56 434.43 318.43 435.39 318.78C437.78 319.65 444.85 330.87 446.04 333.38ZM477.26 339.12C477.26 351.23 477.26 363.33 477.26 375.43C477.26 363.33 477.26 351.23 477.26 339.12ZM247.54 385.86C247.31 386.11 247.07 386.35 246.84 386.59C246.89 387.94 246.94 389.28 246.99 390.63C246.99 451.7 246.99 512.76 246.99 573.82C246.92 574.97 246.85 576.12 246.78 577.26C245.58 579.36 243.73 577.99 241.45 577.96C237.19 577.9 232.91 578.29 228.65 578.05C227.55 577.99 226.34 577.47 225.28 577.49C223.48 577.53 222.58 579.22 220.91 578.39C220.68 577.97 220.44 577.56 220.21 577.15C221.48 575.57 221.56 573.74 220.96 571.8C222.5 557.51 221.16 540.89 221.16 526.34C221.16 496.71 221.2 467.07 221.23 437.44C221.25 422.88 219.53 403.38 222.14 389.62C221.71 388.33 221.28 387.03 220.85 385.74C222.78 385.49 223.54 385.55 225.29 386.6C231.71 383.71 239.54 387.28 246.11 384.91C246.58 385.23 247.06 385.54 247.54 385.86ZM334.46 385.87C333.12 393.02 333.92 401.09 333.9 408.48C333.86 422.85 333.9 437.22 333.9 451.58C333.9 493.65 333.32 535.87 334.06 577.86C333.65 578.2 333.25 578.54 332.85 578.88C327.17 577.26 320.76 578.35 314.86 578.05C312.55 577.93 310.37 578.9 308.85 577.9C308.81 514.35 308.78 450.81 308.74 387.26C308.83 386.83 308.93 386.4 309.03 385.97C310.21 385.06 312.41 385.82 314.86 385.69C320.64 385.4 327.62 386.95 333.05 384.91C333.52 385.23 333.99 385.55 334.46 385.87ZM361.78 385.95C361.85 449.93 361.92 513.9 362 577.88C360.46 579.56 358.26 578.46 355.95 578.48C351.48 578.5 340.71 579.82 337.22 577.83C338.33 574.12 336.33 570.71 337.17 566.77C338.47 560.7 337.99 554.19 337.99 547.89C338 537.12 337.97 526.34 337.99 515.57C338.05 487.05 338.11 458.54 338.14 430.03C338.16 415.73 339.44 400.72 338.13 386.59C338.48 386.03 338.84 385.47 339.19 384.91C344.19 386.57 350.69 385.79 355.95 385.68C358.31 385.64 360.03 384.41 361.78 385.95ZM389.81 385.92C388.17 390.25 389.02 395.77 389.02 400.4C389.01 410.28 389.01 420.15 389.01 430.03C389.01 463.48 388.97 496.93 388.98 530.38C388.99 540.49 388.98 550.59 388.98 560.69C388.98 565.18 389.95 570.79 388 574.83C388.31 575.84 388.63 576.85 388.94 577.86C388.35 578.29 388.86 578.51 388.15 578.8C386.97 579.28 384.85 578.07 383.55 578.05C379.35 577.98 375 578.3 370.76 578.33C368.7 578.35 366.45 579.47 365.31 577.8C365.25 514.07 365.18 450.33 365.12 386.59C365.43 386 365.74 385.4 366.05 384.81C372.32 387.62 384.37 383.7 389.81 385.92ZM474.15 386.05C473.16 396.01 473.93 406.5 473.93 416.56C473.93 435.42 473.92 454.28 473.93 473.14C473.93 481.71 474.85 490.86 473.9 499.38C471.98 516.46 473.08 534.55 473.08 551.94C473.08 559.5 471.59 570.88 473.81 577.87C472.22 578.93 472.1 578.52 470.44 577.33C464.45 579.85 456.98 576.15 451.06 578.88C450.62 578.56 450.17 578.24 449.73 577.92C452.07 573.9 450.86 567.39 450.86 562.71C450.86 551.04 450.86 539.36 450.86 527.69C450.86 496.48 450.86 465.28 450.86 434.07C450.86 422.6 450.64 410.96 450.45 399.62C450.36 394.27 451.08 391.27 449.79 385.84C451.39 384.77 452.86 385.82 454.95 385.83C459.46 385.87 466.81 384.08 470.44 386.9C471.33 386.23 472.22 385.57 473.11 384.91C473.45 385.29 473.8 385.67 474.15 386.05ZM530.83 385.99C531.06 387.58 530.82 388.2 529.99 389.62C532.07 394.75 530.97 401.63 530.96 407.13C530.92 418.81 530.95 430.48 530.94 442.15C530.91 472.46 530.94 502.77 530.95 533.08C530.95 543.18 530.97 553.28 530.96 563.39C530.95 568.17 530.34 573.34 530.93 577.75C527.4 580.08 511.5 575.86 507.71 578.88C507.18 578.53 506.66 578.19 506.14 577.85C508.03 572.78 506.99 566.12 506.98 560.69C506.98 549.24 506.98 537.79 506.98 526.34C506.99 494.24 506.99 462.14 506.98 430.03C506.98 420.38 507 410.72 506.98 401.07C506.97 396.26 507.82 390.62 506.3 386.06C506.71 385.68 507.12 385.29 507.53 384.91C508.07 385.35 508.84 386.27 509.55 386.39C510.81 386.6 512.86 385.7 514.22 385.64C518.05 385.47 521.89 386.08 525.67 386.03C528.03 385.99 529.13 384.54 530.83 385.99ZM643.31 385.94C643.56 386.37 643.82 386.8 644.07 387.23C642.06 390.06 643.34 396.18 643.3 399.72C643.18 410.95 643.35 422.18 643.34 433.4C643.32 467.07 643.3 500.75 643.34 534.42C643.35 544.3 643.35 554.18 643.34 564.06C643.33 568.36 642.37 573.86 643.91 577.87C641.3 579.88 628.69 578.48 624.67 578.53C622.44 578.55 620.78 579.32 618.96 577.87C619.73 560.61 619.19 543.02 619.08 525.67C618.95 503.89 619.08 482.11 619.07 460.34C619.07 445.5 618.68 430.6 618.66 415.89C618.65 406.05 619.51 395.13 618 385.95C618.46 385.6 618.93 385.26 619.39 384.91C624.7 386.67 631.23 385.54 636.8 385.64C639 385.68 641.9 384.93 643.31 385.94ZM755.96 385.97C754.21 399.5 755.45 415.68 755.51 430.03C755.65 459.21 755.8 488.41 755.54 517.59C755.42 531.51 755.56 545.42 755.48 559.34C755.46 563.79 754.6 574.39 755.87 577.85C753.91 578.96 740.56 578.02 737.15 578.01C735 578.01 732.52 579.07 730.78 577.87C730.69 513.92 730.61 449.97 730.52 386.02C735.32 383.67 748.59 387.41 754.63 384.91C755.08 385.26 755.52 385.62 755.96 385.97ZM783.5 386.01C783.44 449.96 783.37 513.9 783.3 577.85C779.89 579.93 764.51 576.11 759.73 578.88C759.21 578.54 758.7 578.2 758.18 577.87C759.83 573.3 759.02 567.62 759.02 562.71C759.02 552.83 759.02 542.96 759.02 533.08C759.03 499.63 759.02 466.18 759.02 432.73C759.02 421.28 759.02 409.83 759.02 398.38C759.02 395.91 758.13 387.38 758.93 386.02C759.38 384.88 758.98 385.1 760.05 385.21C763.79 386.38 778.86 386.51 782.27 384.91C782.68 385.27 783.09 385.64 783.5 386.01ZM811.75 386.01C811.68 387.27 811.11 388.27 810.98 389.62C810.55 394 811 398.68 811.01 403.09C811.02 412.75 811.02 422.4 811.02 432.05C811.02 460.79 811.01 489.52 811.02 518.26C811.02 531.51 811.02 544.75 811.02 558C811.02 564.25 809.85 571.94 811.78 577.81C811.27 578.17 810.76 578.52 810.25 578.88C805.63 577.15 793.56 577.82 788.66 578.88C788.15 578.5 787.63 578.13 787.11 577.76C787.41 576.79 787.71 575.81 788.01 574.83C786.75 568.2 785.91 556.01 787.04 549.23C787.24 548.03 787.87 547.11 787.98 545.87C788.14 544.04 787.03 542.8 787.05 541.15C787.07 539.51 788.16 538.27 787.97 536.45C787.84 535.2 787.19 534.3 787 533.08C786.4 529.24 786.95 524.85 786.96 520.95C786.96 512.2 786.95 503.44 786.95 494.69C786.96 475.16 786.95 455.62 786.95 436.09C786.95 424.87 786.92 413.64 786.9 402.42C786.9 397.34 788 390.71 786.32 385.98C788.09 384.86 790.07 385.67 792.38 385.71C797.65 385.79 805.62 387.04 810.42 384.91C810.87 385.27 811.31 385.64 811.75 386.01ZM278.82 385.96C278.04 386.16 277.25 386.35 276.47 386.55C274.58 392.38 275.91 400.31 275.9 406.46C275.87 420.15 275.89 433.85 275.89 447.54C275.9 476.28 275.85 505.01 275.85 533.75C275.85 548.28 274.65 563.41 276.02 577.87C274.53 579.1 272.38 578.28 270.41 578.36C265.92 578.52 261.43 578.32 256.94 578.29C255.58 578.28 252.86 579.22 251.68 578.78C250.92 578.5 251.54 578.32 250.91 577.89C252.47 570.27 251.15 560.78 251.15 552.61C251.15 535.77 251.14 518.93 251.15 502.1C251.16 475.83 251.17 449.56 251.15 423.3C251.14 418.68 250.65 413.73 251.18 409.15C251.53 406.04 252.23 402.96 251.92 399.72C251.79 398.32 251.24 397.11 251.15 395.68C251.02 393.69 251.8 392.17 251.91 390.29C252 388.79 251.29 387.42 251.09 385.99C254.33 384.46 267.33 385.82 271.76 385.73C274.16 385.68 276.92 384.66 278.82 385.96ZM304.54 386.01C304.79 386.31 305.04 386.62 305.3 386.93C305.05 387.55 304.81 388.17 304.56 388.79C304.16 389.63 304.85 399.64 304.86 401.74C304.93 413.19 304.87 424.64 304.87 436.09C304.85 469.32 304.87 502.55 304.87 535.77C304.87 545.65 304.87 555.53 304.87 565.41C304.87 569.39 303.59 574.32 304.8 577.77C302.02 579.78 303.26 577.6 300.74 577.46C298.67 577.35 296.17 578.08 293.98 578.08C290.86 578.09 287.52 577.4 284.51 577.45C283.48 577.47 282.3 578.39 281.43 578.88C281.02 578.52 280.6 578.16 280.18 577.8C280.3 514.85 280.42 451.9 280.53 388.95C279.96 387.95 279.39 386.96 278.82 385.96C279.61 385.62 280.4 385.28 281.19 384.93C287.01 388.13 294.79 383.18 300.72 386.82C302.46 385.69 303.01 384.78 304.54 386.01ZM417.87 386C416.2 390.24 417.11 395.86 417.11 400.4C417.11 410.05 417.11 419.7 417.11 429.36C417.11 462.81 417.11 496.26 417.11 529.71C417.11 540.94 417.11 552.16 417.11 563.39C417.11 567.98 416 574.23 417.85 578.46C416.58 578.9 416.62 578.06 415.19 577.9C413.75 577.74 411.97 578.31 410.5 578.35C406.97 578.45 403.45 578.07 399.93 578.2C397.43 578.28 394.93 579.09 393 577.86C393.07 513.89 393.14 449.92 393.21 385.95C394.79 384.8 396.84 385.7 399.05 385.71C402.76 385.72 415.79 384.87 417.87 386ZM446.06 385.87C443.8 390.36 445.09 397.43 445.09 402.42C445.09 414.77 445.09 427.11 445.09 439.46C445.09 470.22 445.09 500.97 445.09 531.73C445.09 541.83 445.09 551.94 445.09 562.04C445.09 567.26 444.62 572.74 445.35 577.9C442.05 579.48 428.56 576.88 422.71 578.88C422.35 578.61 421.98 578.34 421.61 578.07C423.29 567.61 421.9 550.95 421.89 539.81C421.89 514.67 421.89 489.52 421.89 464.38C421.89 446.87 421.89 429.36 421.89 411.85C421.9 403.31 423.19 393.65 421.61 385.72C423.1 384.9 425.37 385.78 427.34 385.76C432.05 385.7 436.77 385.8 441.48 385.79C442.49 385.79 444.57 384.81 445.39 385.06C446.17 385.3 445.45 385.47 446.06 385.87ZM503.4 386.06C503.16 386.87 502.44 387.54 502.17 388.4C501.38 390.93 503.27 396.95 502.9 400.39C502.8 401.3 502.32 401.73 502.14 402.54C501.56 405.2 502.77 407.37 502.91 409.83C503.26 416.52 502.9 423.33 502.9 430.03C502.91 461.91 502.89 493.79 502.9 525.67C502.91 538.02 502.9 550.36 502.9 562.71C502.91 566.09 501.77 574.9 502.66 577.29C501.87 578.87 502.19 578.28 500.75 578.48C500.16 578.16 499.39 577.55 498.71 577.49C497.5 577.39 495.97 578.05 494.69 578.08C490.51 578.18 486.47 577.68 482.42 577.41C480.03 577.25 479.68 579.42 477.3 577.79C479.15 572.11 478.06 564.76 478.06 558.67C478.06 545.65 478.02 532.63 478.06 519.61C478.15 489.75 478.1 459.89 478.1 430.03C478.1 420.83 478.05 411.62 478.1 402.42C478.12 397.23 478.8 391.51 477.78 386.49C478.75 384.99 478.41 385.52 479.87 385.44C483.61 387.64 493.26 384.09 498.73 386.69C500.58 385.45 501.41 384.81 503.4 386.06ZM557.77 385.92C557.96 386.59 558.15 387.27 558.35 387.94C557.99 388.5 557.63 389.06 557.27 389.62C559.33 395.92 558.02 404.52 558.02 411.17C558.01 425.77 558.26 440.41 557.88 454.98C557.81 457.66 558.38 460.34 558.39 463.03C558.43 479.65 558.56 496.26 558.73 512.87C558.96 534.54 558.17 556.33 559.12 577.93C558.69 578.25 558.27 578.56 557.85 578.88C552.59 577.24 546.64 578.22 541.16 578.09C539.88 578.05 538.41 577.6 537.16 577.87C536.54 578.01 535.92 578.96 535.24 578.73C534.48 578.48 535.21 578.28 534.65 577.86C535.64 564.83 534.73 551.55 534.92 538.47C535.42 504.7 534.38 470.87 534.99 437.1C535.22 424.65 534.92 412.18 534.92 399.72C534.92 397.57 534.27 386.67 534.65 385.98C535.84 385.15 535.84 385.26 537.12 386.4C541.94 384.76 547.6 385.75 552.61 385.82C554.86 385.85 556.21 384.65 557.77 385.92ZM587.64 385.99C587.51 386.42 587.38 386.84 587.25 387.26C587.24 450.57 587.23 513.88 587.21 577.19C587.29 577.44 587.36 577.69 587.44 577.94C586.16 579.55 583.7 578.65 581.57 578.65C578.19 578.65 564.73 579.64 563.05 577.85C562.96 537.9 562.87 497.94 562.79 457.98C563.8 440.49 562.84 422.64 562.83 405.11C562.82 400.4 562.86 395.68 562.89 390.97C562.9 389.08 561.91 387.48 562.94 386C564.32 385.02 566.66 385.68 568.77 385.65C572.69 385.58 585.19 384.5 587.64 385.99ZM615.02 385.99C615.61 387.08 614.95 397.98 614.95 400.4C614.93 413.19 614.94 425.99 614.94 438.79C614.93 469.77 614.91 500.75 614.94 531.73C614.95 547.07 615.47 562.59 615.02 577.87C614.38 578.33 615.27 578.42 614.43 578.7C613.67 578.95 610.88 578.06 609.86 578.06C605.37 578.02 600.87 578.01 596.39 578.03C594.43 578.04 591.88 579.24 590.98 577.77C591.01 513.84 591.03 449.91 591.05 385.98C594.16 384.47 605.01 385.66 609.18 385.72C611.31 385.75 613.63 385 615.02 385.99ZM671.78 385.95C669.85 391.59 671.08 399.15 671.08 405.11C671.07 418.58 671.08 432.05 671.09 445.52C671.09 489.56 669.88 533.83 671.14 577.82C670.01 579.52 667.77 578.62 665.76 578.61C661.28 578.6 656.77 578.47 652.29 578.54C650.22 578.58 648.32 579.53 647.12 577.91C646.93 537.73 646.74 497.55 646.55 457.37C647.66 454.17 646.61 443.6 646.68 439.46C646.93 423.31 645.82 406.97 646.92 390.89C647.04 389.05 646.21 387.62 646.33 385.94C648.92 384.66 661.91 385.65 665.76 385.66C668.05 385.67 670.11 384.84 671.78 385.95ZM699.21 385.91C699.46 386.37 699.71 386.83 699.97 387.29C697.61 390.23 698.97 397.32 698.96 401.07C698.95 412.97 698.97 424.84 698.96 436.77C698.95 467.07 699.01 497.38 698.96 527.69C698.94 544.37 698.23 561.31 699.21 577.93C698.03 579.51 696.1 578.62 694.04 578.59C689.56 578.53 685.05 578.47 680.57 578.52C678.45 578.55 676.01 579.55 674.7 577.94C674.71 513.9 674.73 449.87 674.75 385.83C676.21 384.94 690.21 385.64 693.37 385.66C695.51 385.68 697.79 384.9 699.21 385.91ZM727.7 385.95C725.97 390.91 727.1 397.8 727.1 403.09C727.1 414.77 727.1 426.44 727.1 438.11C727.1 470.22 727.1 502.32 727.1 534.42C727.1 544.08 727.1 553.73 727.1 563.39C727.1 568.01 726.31 573.62 727.75 577.89C726.27 579.44 724.54 578.62 722.33 578.64C718.44 578.68 705.65 579.78 703.14 577.83C704.36 561.13 703.41 543.33 703.12 526.34C702.83 508.84 703.1 491.31 703.09 473.81C703.09 460.11 703.07 446.42 703.1 432.73C703.1 430.87 703.47 420.52 702.13 420.6C702.05 412.75 702.11 404.89 702.11 397.03C702.11 394.75 703.31 390.37 702.35 388.68C702.25 387.75 702.16 386.81 702.06 385.88C702.63 385.54 702.25 385.25 702.92 385.05C704.03 384.71 706.86 385.65 708.19 385.67C712.68 385.73 717.17 385.57 721.66 385.65C723.97 385.69 726.07 384.84 727.7 385.95ZM820.89 385.86C820.89 449.88 820.89 513.89 820.89 577.91C819.02 578.37 817.15 578.84 815.28 579.3C814.88 578.81 814.48 578.33 814.08 577.84C816.25 572.8 815.04 565.56 815.04 560.02C815.04 547 815.04 533.98 815.04 520.95C815.04 475.98 815.49 430.89 814.83 385.99C814.98 385.55 815.13 385.11 815.28 384.67C817.15 385.07 819.02 385.47 820.89 385.86ZM247.18 584.51C247.11 585.89 247.05 587.26 246.98 588.64C247.03 606.6 247.08 624.56 247.12 642.52C247.13 643.64 247.13 644.77 247.13 645.89C246.78 646.68 246.44 647.46 246.09 648.25C241.72 652.06 229.82 647.76 224.21 649.9C223.13 649.24 222.06 648.58 220.98 647.92C220.77 632.84 220.94 617.59 220.98 602.45C220.98 598.85 222.21 588.15 220.18 585.89C220.33 585.5 220.47 585.12 220.62 584.74C229.47 584.66 238.32 584.59 247.18 584.51ZM305.2 585.16C305.39 585.36 305.58 585.56 305.77 585.76C305.42 585.94 305.07 586.11 304.72 586.28C304.83 587.48 304.95 588.68 305.06 589.88C304.86 608.5 304.65 627.12 304.44 645.74C303.61 646.35 302.78 646.96 301.95 647.57C295.7 647.58 289.45 647.58 283.21 647.59C283.13 646.66 282.7 646.79 281.81 646.9C278.77 641.38 280.17 634.2 280.18 628.04C280.2 617.49 280.23 606.94 280.16 596.39C280.14 593.21 280.67 589.96 280.51 586.84C279.71 586.11 278.9 585.38 278.09 584.64C280.15 585.07 279.77 584.55 281.13 584.32C281.67 584.23 282.62 584.76 283.21 584.81C287.34 585.19 291.83 585.55 296 585.25C298.71 585.05 303.07 583.85 305.2 585.16ZM361.78 585.22C361.68 606.68 361.58 628.13 361.49 649.59C359.98 650 358.47 650.42 356.96 650.83C354.6 650.74 352.24 650.64 349.88 650.55C349.7 650.76 349.51 650.96 349.33 651.17C349.29 651.09 349.25 651.02 349.21 650.94C347.97 650.9 346.74 650.86 345.51 650.81C343.71 650.82 341.91 650.83 340.12 650.83C339.11 650.23 338.1 649.62 337.09 649.02C336.47 632.87 337.08 616.59 337.07 600.43C337.07 598.85 337.75 587.4 337.7 587.22C337.22 585.7 335.58 585.83 334.39 585.77C334.33 596.38 334.26 606.99 334.2 617.6C334.14 627.26 334.08 636.91 334.02 646.56C332.9 648.48 329.78 648.73 327.66 648.7C321.93 648.61 313.94 650.01 309.03 647.07C308.99 627.82 308.96 608.57 308.92 589.32C308.95 588.64 308.97 587.97 308.99 587.29C308.85 586.62 308.7 585.95 308.56 585.27C310.02 584.02 310.59 584.67 312.17 585.57C315.6 583.83 320.49 584.64 324.29 584.67C327.3 584.7 330.53 584.05 333.42 584.13C338.59 584.27 343.86 584.68 349.21 584.67C352.48 584.66 359.56 583.51 361.78 585.22ZM418.19 585.27C418.2 589.13 418.22 592.98 418.23 596.84C418.21 613.37 418.18 629.91 418.16 646.45C418.09 646.82 418.02 647.2 417.96 647.57C417.53 648.02 417.1 648.47 416.67 648.92C416.57 649.27 416.47 649.62 416.37 649.97C409.3 649.93 402.24 649.9 395.17 649.87C391.2 646.97 392.97 637.79 392.97 633.43C392.97 622.2 392.98 610.98 392.98 599.75C392.97 595.65 394.12 589.19 392.32 585.67C391.25 585.68 389.97 585.35 389.22 586.35C388.41 587.43 388.98 590.37 388.98 591.67C389 596.61 388.98 601.55 388.95 606.49C387.58 606.34 388.1 613.82 388.11 615.24C388.18 623.61 386.49 637.02 388.95 644.21C388.52 645.33 388.09 646.45 387.65 647.57C386.81 647.87 385.69 648.73 384.9 648.9C383.68 649.18 379.63 647.86 378.73 649.02C378.53 649.28 379.25 649.41 379.52 649.6C375.25 649.6 370.99 649.6 366.72 649.59C366.56 648.46 365.48 647.6 365.31 646.12C364.81 641.78 365.28 637.13 365.28 632.76C365.28 624.22 365.28 615.69 365.28 607.16C365.28 600.23 364.09 592.03 365.6 585.27C365.73 584.98 365.64 584.41 366.03 584.27C366.38 584.14 376.7 584.67 378.17 584.66C387.8 584.62 396.05 584.74 405.79 584.71C409 584.7 414.44 585.95 417.05 584.26C417.43 584.6 417.81 584.94 418.19 585.27ZM503.71 585.27C503.73 585.46 503.76 585.65 503.78 585.83C501.69 588.81 502.82 595.99 502.86 599.75C502.99 611.42 503.11 623.11 502.86 634.78C502.76 639.44 504.5 645.79 501.42 649.6C493.98 649.6 486.54 649.6 479.1 649.59C479.19 648.38 478.84 648.25 477.7 647.57C477.85 646.72 478.14 646.24 477.16 646.23C476.99 632.31 477.16 618.38 477.15 604.47C477.15 600.32 475.8 591.63 478.08 588.98C477.84 588.19 477.61 587.41 477.37 586.62C477.42 586.18 477.47 585.73 477.51 585.28C479.24 583.98 480.1 584.87 481.89 585.74C488.3 582.94 496.09 587.06 502.1 583.98C502.63 584.41 503.17 584.84 503.71 585.27ZM531.39 585.28C531.22 586.4 531.05 587.52 530.88 588.64C529.65 601.45 530.54 615.17 530.8 628.04C530.88 631.78 531.99 642.07 530.18 645C527.69 649.05 512 648.1 508 646.72C507.38 645.88 506.75 645.04 506.13 644.21C506.06 632.8 506.2 621.27 506.08 609.85C506.02 603.89 506.72 597.95 505.88 592.01C505.96 591 506.04 589.99 506.12 588.98C506.98 587.45 506.61 586.92 505.81 585.27C506.4 584.94 506.98 584.6 507.57 584.26C507.99 584.55 508.99 585.55 509.51 585.58C510.57 585.66 512.32 584.76 513.55 584.71C517.59 584.55 521.66 585.06 525.68 584.98C527.93 584.94 529.5 583.75 531.39 585.28ZM559.12 585.17C559.14 595.75 559.16 606.34 559.17 616.93C559.17 626.58 559.16 636.24 559.16 645.89C558.77 646.46 558.38 647.03 558 647.6C557.4 647.72 556.8 647.84 556.2 647.96C553.55 648.1 550.9 648.24 548.24 648.37C547 648.44 539.53 648.41 541.16 649.59C539.37 649.59 537.58 649.59 535.79 649.59C535.48 648.43 534.6 647.36 534.38 646.06C533.59 641.29 534.46 635.59 534.49 630.74C534.54 620.63 534.47 610.53 534.46 600.43C534.45 595.57 535.34 589.96 534.16 585.27C534.57 584.94 534.97 584.6 535.38 584.26C537.55 585.69 539.34 584.77 541.83 584.71C547.17 584.6 552.74 585.37 557.96 584.26C558.35 584.56 558.73 584.86 559.12 585.17ZM587.82 585.27C587 589.86 587.63 594.85 587.63 599.56C587.64 609.49 587.54 619.42 587.62 629.35C587.65 632.78 588.52 645.26 587.34 647.65C586.9 648.54 585.97 649.05 585.45 649.92C578.42 649.75 571.38 649.57 564.34 649.4C561.88 645.67 563.18 635.43 563.19 630.74C563.2 615.65 563.91 600.34 563.08 585.27C563.41 584.94 563.75 584.6 564.08 584.26C569.6 585.36 575.92 584.78 581.57 584.7C583.78 584.67 586.44 583.41 587.82 585.27ZM615.46 585.27C615.35 586.62 615.25 587.97 615.15 589.32C615.12 608.62 615.09 627.93 615.06 647.24C614.58 647.96 614.11 648.69 613.63 649.41C606.59 649.58 599.56 649.74 592.52 649.9C592.09 649.04 591.22 648.38 590.85 647.5C589.48 644.26 590.53 632.2 590.56 628.04C590.67 613.55 590.63 598.95 590.66 584.55C598.5 584.45 606.33 584.36 614.17 584.26C614.6 584.6 615.03 584.94 615.46 585.27ZM643.72 585.27C642.37 590 643.29 596.12 643.32 601.1C643.39 612.1 643.33 623.1 643.32 634.1C643.31 639.94 644.39 646.44 642.08 651.61C635.3 651.61 628.53 651.61 621.76 651.61C620.93 650.85 620.11 650.09 619.29 649.33C619.19 627.98 619.1 606.63 619.01 585.27C620.44 583.61 622.54 584.65 624.67 584.7C628.22 584.78 641.79 583.56 643.72 585.27ZM755.62 585.27C754.89 590.03 755.58 594.91 755.62 599.75C755.72 611.1 756.3 622.95 755.34 634.21C754.91 639.28 756.26 643.72 754.81 648.64C748.17 651.59 739.67 647.74 732.76 649.9C732.2 649.35 731.64 648.8 731.08 648.25C730.63 634.13 731.01 619.94 731.02 605.82C731.02 599.55 732.26 591.6 730.41 585.68C728.09 585.9 726.73 586.29 727.46 588.75C727.6 608.25 727.73 627.74 727.86 647.24C727.74 649.56 726.93 649.84 725.7 651.64C718.96 651.63 712.23 651.62 705.49 651.61C702.45 647.91 703.25 637.17 703.32 632.08C703.45 621.98 703.31 611.88 703.34 601.77C703.36 596.46 704.22 590.45 703.14 585.27C703.53 584.94 703.92 584.6 704.3 584.26C710.28 585.4 717.59 585.12 723.68 584.77C724.51 584.72 725.58 584.22 726.35 584.27C727.01 584.32 727.2 584.9 727.72 584.97C729.27 585.17 731.01 584.55 732.46 584.42C735.39 584.15 738.86 584.63 741.86 584.64C744.68 584.65 754.21 583.72 755.62 585.27ZM783.28 584.51C783.21 600.07 782.82 615.81 783.07 631.41C783.16 637.22 784.92 645.1 781.28 649.93C774.38 647.9 765.7 651.75 759.24 648.55C759.13 648.34 759.01 648.12 758.9 647.91C758.85 628.15 758.81 608.4 758.76 588.64C758.66 587.52 758.55 586.4 758.45 585.27C760.18 583.93 762.59 584.68 764.76 584.67C768.35 584.64 780.97 583.8 783.28 584.51ZM811.53 585.27C811.66 606.71 811.79 628.15 811.91 649.59C811.3 650.27 810.69 650.94 810.07 651.61C803.27 651.61 796.46 651.61 789.66 651.61C788.78 650.69 787.57 649.5 787.34 648.15C786.97 645.98 787.79 643.13 787.74 640.84C787.69 638.11 786.98 635.54 786.99 632.76C787.05 621.31 786.98 609.86 787.01 598.41C787.02 593.94 787.53 589.51 787.21 585.24C788.82 583.92 790.76 584.77 793.05 584.77C798.52 584.78 805.08 585.58 810.36 584.26C810.75 584.6 811.14 584.94 811.53 585.27ZM820.89 584.66C820.89 606.39 820.89 628.11 820.89 649.84C819.69 649.76 818.49 649.68 817.3 649.6C817.55 648.59 816.1 648.55 815.25 648.25C814.01 641.81 814.73 634.62 814.8 628.04C814.9 619.29 814.82 610.53 814.77 601.77C814.74 596.73 816.02 589.96 814.35 585.27C814.66 584.81 814.97 584.34 815.28 583.87C817.15 584.14 819.02 584.4 820.89 584.66ZM277.49 584.64C277.09 585.55 276.25 585.92 275.87 586.96C274.82 589.78 275.81 601.44 275.81 605.14C275.81 618.86 276.19 632.64 275.8 646.36C272.28 649.56 267.42 648.88 262.81 648.92C264.22 649.13 265.63 649.34 267.04 649.55C262.27 649.56 257.51 649.58 252.74 649.59C249.72 644.22 251.22 636.79 251.18 630.74C251.06 615.61 251.82 600.33 251.1 585.23C252.76 583.91 255.86 584.73 258.29 584.7C263.51 584.64 269.3 583.96 274.43 584.4C275.72 584.51 276.09 584.93 277.49 584.64ZM473.58 585.23C474.69 598.51 473.37 612.01 473.6 625.35C473.72 632.11 475.05 640.83 472.94 647.16C472.33 647.76 471.72 648.35 471.12 648.95C467.52 648.94 463.93 648.94 460.34 648.93C462.04 649.15 463.73 649.37 465.43 649.59C461.04 649.6 456.65 649.6 452.26 649.61C451.57 649.15 450.89 648.7 450.2 648.25C448.88 643.65 449.77 639 449.71 634.1C449.56 622.21 449.72 610.31 449.62 598.41C449.59 594.44 450.25 590.13 449.58 586.28C448.45 586.13 447.32 585.98 446.2 585.83C444.76 588.68 445.79 596.83 445.8 600.43C445.81 608.06 446.01 615.72 445.99 623.33C445.98 628.08 445.34 633.11 446.06 637.81C446.02 640.9 445.97 644 445.92 647.09C445.47 647.86 445.01 648.63 444.56 649.4C437.7 649.48 430.83 649.56 423.97 649.64C423.02 648.61 422.07 647.59 421.12 646.56C421.25 626.14 421.38 605.72 421.5 585.3C423.59 583.66 429.63 584.71 432.73 584.69C442.96 584.62 451.56 584.63 461.69 584.65C464.83 584.66 471.51 583.6 473.58 585.23ZM699.57 585.27C699.45 586.85 699.34 588.42 699.23 589.99C699.22 608.85 699.21 627.7 699.2 646.56C698.5 647.67 697.81 648.78 697.12 649.88C690.31 649.88 683.5 649.87 676.69 649.87C676.55 649.55 676.41 649.24 676.26 648.92C675.78 648.64 675.29 648.37 674.81 648.09C674.78 628.27 674.75 608.46 674.72 588.64C674.65 587.72 674.58 586.8 674.51 585.88C673.48 585.9 672.96 585.6 672.08 586.29C671.43 586.8 671.86 598.63 671.86 600.43C671.85 611.88 671.86 623.33 671.85 634.78C671.84 638.78 673.2 645.3 670.63 648.51C670.13 648.93 669.63 649.35 669.13 649.77C662.46 649.81 655.79 649.84 649.13 649.87C645.31 647.09 647.13 637.63 647.12 633.43C647.11 617.36 647.23 601.28 647.12 585.22C649.25 583.6 655.87 584.62 659.02 584.65C668.97 584.73 677.36 584.62 687.31 584.64C689.91 584.65 698.12 583.89 699.57 585.27ZM477.77 616.83C477.77 621.02 477.77 625.2 477.77 629.39C477.77 625.2 477.77 621.02 477.77 616.83Z" fill="#3ea446" fill-rule="evenodd" stroke="#3ea446" stroke-width="0.25" stroke-linejoin="round"/>
<path d="M531.39 379.12C532.48 379.13 533.56 379.15 534.65 379.16C536.13 379.99 536.12 378.82 537.78 378.86C539.08 378.9 540.43 379.58 541.83 379.61C545.64 379.68 549.49 379.27 553.27 379.37C554.4 379.4 555.51 379.96 556.63 379.92C557.01 379.91 557.69 379.43 558 379.5C558.83 379.69 559.7 380.44 560.69 380.68C564.31 378.66 570.41 379.74 574.83 379.74C577.53 379.74 585.73 379.12 587.63 379.5C588.2 379.61 588.29 380.41 588.98 380.44C589.59 380.46 589.86 379.73 590.43 379.59C593.95 378.75 598.81 379.66 602.45 379.64C605.93 379.63 612.26 380.74 615.02 379.18C616.11 379.17 617.19 379.17 618.28 379.16C621.2 380.77 627.3 379.66 630.74 379.65C640.85 379.61 648.31 379.73 658.35 379.74C661.86 379.74 668.94 380.95 671.59 379.19C672.64 379.19 673.69 379.19 674.74 379.2C679.59 382.09 695.91 377.17 700.78 380.62C703.5 378.28 710.45 379.67 714.25 379.65C718.28 379.63 722.41 379.91 726.35 379.89C726.76 379.89 727.39 379.43 727.72 379.5C728.29 379.61 728.38 380.44 729.07 380.44C729.76 380.44 729.84 379.6 730.41 379.5C730.75 379.44 731.39 379.92 731.78 379.94C735.25 380.17 739.02 379.74 742.54 379.75C746.18 379.76 752.58 380.96 755.67 379.12C756.57 379.13 757.47 379.13 758.36 379.14C763.54 382.09 781.02 377.23 784.97 380.62C787.77 378.64 792.94 379.61 796.42 379.63C805.35 379.68 812.7 380.01 820.89 379.19C820.89 381.41 820.89 383.64 820.89 385.86C819.02 385.47 817.15 385.07 815.28 384.67C815.13 385.11 814.98 385.55 814.83 385.99C813.8 385.99 812.77 386 811.75 386.01C811.31 385.64 810.87 385.27 810.42 384.91C805.62 387.04 797.65 385.79 792.38 385.71C790.07 385.67 788.09 384.86 786.32 385.98C785.38 385.99 784.44 386 783.5 386.01C783.09 385.64 782.68 385.27 782.27 384.91C778.86 386.51 763.79 386.38 760.05 385.21C758.98 385.1 759.38 384.88 758.93 386.02C757.94 386 756.95 385.99 755.96 385.97C755.52 385.62 755.08 385.26 754.63 384.91C748.59 387.41 735.32 383.67 730.52 386.02C729.58 386 728.64 385.97 727.7 385.95C726.07 384.84 723.97 385.69 721.66 385.65C717.17 385.57 712.68 385.73 708.19 385.67C706.86 385.65 704.03 384.71 702.92 385.05C702.25 385.25 702.63 385.54 702.06 385.88C701.11 385.89 700.16 385.9 699.21 385.91C697.79 384.9 695.51 385.68 693.37 385.66C690.21 385.64 676.21 384.94 674.75 385.83C673.76 385.87 672.77 385.91 671.78 385.95C670.11 384.84 668.05 385.67 665.76 385.66C661.91 385.65 648.92 384.66 646.33 385.94C646.27 385.82 646.2 385.7 646.14 385.58C645.2 385.7 644.25 385.82 643.31 385.94C641.9 384.93 639 385.68 636.8 385.64C631.23 385.54 624.7 386.67 619.39 384.91C618.93 385.26 618.46 385.6 618 385.95C617.01 385.96 616.01 385.98 615.02 385.99C613.63 385 611.31 385.75 609.18 385.72C605.01 385.66 594.16 384.47 591.05 385.98C589.91 385.98 588.78 385.99 587.64 385.99C585.19 384.5 572.69 385.58 568.77 385.65C566.66 385.68 564.32 385.02 562.94 386C561.04 385.07 559.73 385.08 557.77 385.92C556.21 384.65 554.86 385.85 552.61 385.82C547.6 385.75 541.94 384.76 537.12 386.4C535.84 385.26 535.84 385.15 534.65 385.98C533.38 385.98 532.1 385.99 530.83 385.99C529.13 384.54 528.03 385.99 525.67 386.03C521.89 386.08 518.05 385.47 514.22 385.64C512.86 385.7 510.81 386.6 509.55 386.39C508.84 386.27 508.07 385.35 507.53 384.91C507.12 385.29 506.71 385.68 506.3 386.06C505.33 386.06 504.36 386.06 503.4 386.06C501.41 384.81 500.58 385.45 498.73 386.69C493.26 384.09 483.61 387.64 479.87 385.44C478.41 385.52 478.75 384.99 477.78 386.49C477.79 386.41 477.79 386.33 477.8 386.25C476.58 386.19 475.36 386.12 474.15 386.05C473.8 385.67 473.45 385.29 473.11 384.91C472.22 385.57 471.33 386.23 470.44 386.9C466.81 384.08 459.46 385.87 454.95 385.83C452.86 385.82 451.39 384.77 449.79 385.84C448.54 385.85 447.3 385.86 446.06 385.87C445.45 385.47 446.17 385.3 445.39 385.06C444.57 384.81 442.49 385.79 441.48 385.79C436.77 385.8 432.05 385.7 427.34 385.76C425.37 385.78 423.1 384.9 421.61 385.72C420.37 385.82 419.12 385.91 417.87 386C415.79 384.87 402.76 385.72 399.05 385.71C396.84 385.7 394.79 384.8 393.21 385.95C392.08 385.94 390.94 385.93 389.81 385.92C384.37 383.7 372.32 387.62 366.05 384.81C365.74 385.4 365.43 386 365.12 386.59C364.98 386.25 364.84 385.92 364.71 385.58C363.73 385.7 362.76 385.82 361.78 385.95C360.03 384.41 358.31 385.64 355.95 385.68C350.69 385.79 344.19 386.57 339.19 384.91C338.84 385.47 338.48 386.03 338.13 386.59C338 386.3 337.88 386 337.76 385.71C336.66 385.76 335.56 385.81 334.46 385.87C333.99 385.55 333.52 385.23 333.05 384.91C327.62 386.95 320.64 385.4 314.86 385.69C312.41 385.82 310.21 385.06 309.03 385.97C307.53 385.98 306.03 385.99 304.54 386.01C303.01 384.78 302.46 385.69 300.72 386.82C294.79 383.18 287.01 388.13 281.19 384.93C280.4 385.28 279.61 385.62 278.82 385.96C276.92 384.66 274.16 385.68 271.76 385.73C267.33 385.82 254.33 384.46 251.09 385.99C249.91 385.94 248.72 385.9 247.54 385.86C247.06 385.54 246.58 385.23 246.11 384.91C239.54 387.28 231.71 383.71 225.29 386.6C223.54 385.55 222.78 385.49 220.85 385.74C220.31 385.57 219.77 385.41 219.23 385.24C219.23 383.67 219.23 382.1 219.23 380.53C219.56 380.34 219.89 380.15 220.22 379.95C224.36 378.47 235.79 379.44 240.78 379.39C243.01 379.36 245.14 380.24 247.18 379.16C248.52 379.23 249.87 379.29 251.22 379.36C256.08 380.7 262.5 378.74 267.72 379.06C270.18 379.21 273.63 380.23 275.57 379.1C277.25 379.75 278.49 379.69 280.18 379.08C281.96 380.13 285.11 379.59 287.25 379.37C291.31 378.97 302.15 380.93 305.1 379.13C306.22 379.13 307.34 379.13 308.46 379.14C310.3 380.28 312.7 379.72 314.86 379.74C319.61 379.77 330.08 381.02 334.06 379.16C335.74 379.96 336.95 379.74 338.66 379.11C340.36 380.16 342.3 379.4 344.42 379.46C347.89 379.54 359.43 380.6 361.78 379.14C363.06 379.13 364.33 379.12 365.6 379.11C367.21 380.12 369.36 379.77 371.44 379.76C375.67 379.76 385.9 380.96 389.28 379.18C390.72 379.88 391.73 379.83 393.21 379.15C394.89 380.2 397.51 379.59 399.72 379.61C403.11 379.63 416.04 380.21 418.25 379.13C419.14 379.13 420.04 379.14 420.94 379.14C423.07 380.38 425.02 379.22 427.34 379.25C431.42 379.29 442.84 380.53 445.86 379.09C446.98 379.1 448.1 379.11 449.23 379.11C451.31 380.43 453.74 379.27 456.12 379.45C462 379.91 468.85 380.08 474.5 379.2C477.62 378.72 479.61 380.44 482.56 378.68C486.76 381.11 494.44 378.71 498.73 378.79C499.7 378.81 500.49 379.78 501.44 379.81C503.78 379.87 505.14 378.66 507.48 379.97C508.02 379.64 508.89 378.87 509.52 378.79C510.74 378.65 512.45 379.45 513.75 379.52C517.73 379.7 521.73 379.1 525.67 379.18C527.9 379.23 529.24 380.13 531.39 379.12ZM246.78 577.26C247.98 578.71 249.28 578.8 250.91 577.89C251.54 578.32 250.92 578.5 251.68 578.78C252.86 579.22 255.58 578.28 256.94 578.29C261.43 578.32 265.92 578.52 270.41 578.36C272.38 578.28 274.53 579.1 276.02 577.87C277.56 578.82 278.53 578.62 280.18 577.8C280.6 578.16 281.02 578.52 281.43 578.88C282.3 578.39 283.48 577.47 284.51 577.45C287.52 577.4 290.86 578.09 293.98 578.08C296.17 578.08 298.67 577.35 300.74 577.46C303.26 577.6 302.02 579.78 304.8 577.77C306.15 577.81 307.5 577.86 308.85 577.9C310.37 578.9 312.55 577.93 314.86 578.05C320.76 578.35 327.17 577.26 332.85 578.88C333.25 578.54 333.65 578.2 334.06 577.86C335.32 578.5 336.02 578.6 337.22 577.83C340.71 579.82 351.48 578.5 355.95 578.48C358.26 578.46 360.46 579.56 362 577.88C363.24 578.62 364.08 578.57 365.31 577.8C366.45 579.47 368.7 578.35 370.76 578.33C375 578.3 379.35 577.98 383.55 578.05C384.85 578.07 386.97 579.28 388.15 578.8C388.86 578.51 388.35 578.29 388.94 577.86C390.41 578.7 391.54 578.7 393 577.86C394.93 579.09 397.43 578.28 399.93 578.2C403.45 578.07 406.97 578.45 410.5 578.35C411.97 578.31 413.75 577.74 415.19 577.9C416.62 578.06 416.58 578.9 417.85 578.46C419.38 578.85 420.22 578.81 421.61 578.07C421.98 578.34 422.35 578.61 422.71 578.88C428.56 576.88 442.05 579.48 445.35 577.9C446.08 578.22 446.81 578.53 447.54 578.85C448.27 578.54 449 578.23 449.73 577.92C450.17 578.24 450.62 578.56 451.06 578.88C456.98 576.15 464.45 579.85 470.44 577.33C472.1 578.52 472.22 578.93 473.81 577.87C474.97 577.84 476.14 577.82 477.3 577.79C479.68 579.42 480.03 577.25 482.42 577.41C486.47 577.68 490.51 578.18 494.69 578.08C495.97 578.05 497.5 577.39 498.71 577.49C499.39 577.55 500.16 578.16 500.75 578.48C502.19 578.28 501.87 578.87 502.66 577.29C503.85 578.2 504.68 578.16 506.14 577.85C506.66 578.19 507.18 578.53 507.71 578.88C511.5 575.86 527.4 580.08 530.93 577.75C532.17 577.78 533.41 577.82 534.65 577.86C535.21 578.28 534.48 578.48 535.24 578.73C535.92 578.96 536.54 578.01 537.16 577.87C538.41 577.6 539.88 578.05 541.16 578.09C546.64 578.22 552.59 577.24 557.85 578.88C558.27 578.56 558.69 578.25 559.12 577.93C560.65 578.64 561.58 578.66 563.05 577.85C564.73 579.64 578.19 578.65 581.57 578.65C583.7 578.65 586.16 579.55 587.44 577.94C588.62 577.88 589.8 577.83 590.98 577.77C591.88 579.24 594.43 578.04 596.39 578.03C600.87 578.01 605.37 578.02 609.86 578.06C610.88 578.06 613.67 578.95 614.43 578.7C615.27 578.42 614.38 578.33 615.02 577.87C616.53 578.49 617.51 578.6 618.96 577.87C620.78 579.32 622.44 578.55 624.67 578.53C628.69 578.48 641.3 579.88 643.91 577.87C645.12 578.59 645.79 578.55 647.12 577.91C648.32 579.53 650.22 578.58 652.29 578.54C656.77 578.47 661.28 578.6 665.76 578.61C667.77 578.62 670.01 579.52 671.14 577.82C672.32 577.86 673.51 577.9 674.7 577.94C676.01 579.55 678.45 578.55 680.57 578.52C685.05 578.47 689.56 578.53 694.04 578.59C696.1 578.62 698.03 579.51 699.21 577.93C700.72 578.56 701.68 578.55 703.14 577.83C705.65 579.78 718.44 578.68 722.33 578.64C724.54 578.62 726.27 579.44 727.75 577.89C728.99 578.56 729.61 578.5 730.78 577.87C732.52 579.07 735 578.01 737.15 578.01C740.56 578.02 753.91 578.96 755.87 577.85C755.93 577.97 756 578.09 756.06 578.2C756.72 578.21 757.37 578.21 758.03 578.22C758.08 578.1 758.13 577.98 758.18 577.87C758.7 578.2 759.21 578.54 759.73 578.88C764.51 576.11 779.89 579.93 783.3 577.85C784.76 578.56 785.68 578.57 787.11 577.76C787.63 578.13 788.15 578.5 788.66 578.88C793.56 577.82 805.63 577.15 810.25 578.88C810.76 578.52 811.27 578.17 811.78 577.81C812.55 577.82 813.31 577.83 814.08 577.84C814.48 578.33 814.88 578.81 815.28 579.3C817.15 578.84 819.02 578.37 820.89 577.91C820.89 580.16 820.89 582.41 820.89 584.66C819.02 584.4 817.15 584.14 815.28 583.87C814.97 584.34 814.66 584.81 814.35 585.27C813.14 584.66 812.75 584.64 811.53 585.27C811.14 584.94 810.75 584.6 810.36 584.26C805.08 585.58 798.52 584.78 793.05 584.77C790.76 584.77 788.82 583.92 787.21 585.24C785.9 585 784.59 584.76 783.28 584.51C780.97 583.8 768.35 584.64 764.76 584.67C762.59 584.68 760.18 583.93 758.45 585.27C757.23 584.61 756.86 584.6 755.62 585.27C754.21 583.72 744.68 584.65 741.86 584.64C738.86 584.63 735.39 584.15 732.46 584.42C731.01 584.55 729.27 585.17 727.72 584.97C727.2 584.9 727.01 584.32 726.35 584.27C725.58 584.22 724.51 584.72 723.68 584.77C717.59 585.12 710.28 585.4 704.3 584.26C703.92 584.6 703.53 584.94 703.14 585.27C701.65 584.41 700.95 584.42 699.57 585.27C698.12 583.89 689.91 584.65 687.31 584.64C677.36 584.62 668.97 584.73 659.02 584.65C655.87 584.62 649.25 583.6 647.12 585.22C645.7 584.38 645.04 584.47 643.72 585.27C641.79 583.56 628.22 584.78 624.67 584.7C622.54 584.65 620.44 583.61 619.01 585.27C617.56 584.4 616.86 584.39 615.46 585.27C615.03 584.94 614.6 584.6 614.17 584.26C606.33 584.36 598.5 584.45 590.66 584.55C589.88 584.59 589.09 584.64 588.3 584.68C588.14 584.88 587.98 585.08 587.82 585.27C586.44 583.41 583.78 584.67 581.57 584.7C575.92 584.78 569.6 585.36 564.08 584.26C563.75 584.6 563.41 584.94 563.08 585.27C561.63 584.35 560.66 584.31 559.12 585.17C558.73 584.86 558.35 584.56 557.96 584.26C552.74 585.37 547.17 584.6 541.83 584.71C539.34 584.77 537.55 585.69 535.38 584.26C534.97 584.6 534.57 584.94 534.16 585.27C533.24 585.27 532.32 585.28 531.39 585.28C529.5 583.75 527.93 584.94 525.68 584.98C521.66 585.06 517.59 584.55 513.55 584.71C512.32 584.76 510.57 585.66 509.51 585.58C508.99 585.55 507.99 584.55 507.57 584.26C506.98 584.6 506.4 584.94 505.81 585.27C505.7 585.13 505.58 584.98 505.46 584.83C504.88 584.98 504.29 585.13 503.71 585.27C503.17 584.84 502.63 584.41 502.1 583.98C496.09 587.06 488.3 582.94 481.89 585.74C480.1 584.87 479.24 583.98 477.51 585.28C476.08 584.57 475.06 584.53 473.58 585.23C471.51 583.6 464.83 584.66 461.69 584.65C451.56 584.63 442.96 584.62 432.73 584.69C429.63 584.71 423.59 583.66 421.5 585.3C420.4 585.29 419.29 585.28 418.19 585.27C417.81 584.94 417.43 584.6 417.05 584.26C414.44 585.95 409 584.7 405.79 584.71C396.05 584.74 387.8 584.62 378.17 584.66C376.7 584.67 366.38 584.14 366.03 584.27C365.64 584.41 365.73 584.98 365.6 585.27C364.15 584.53 363.23 584.44 361.78 585.22C359.56 583.51 352.48 584.66 349.21 584.67C343.86 584.68 338.59 584.27 333.42 584.13C330.53 584.05 327.3 584.7 324.29 584.67C320.49 584.64 315.6 583.83 312.17 585.57C310.59 584.67 310.02 584.02 308.56 585.27C307.44 585.24 306.32 585.2 305.2 585.16C303.07 583.85 298.71 585.05 296 585.25C291.83 585.55 287.34 585.19 283.21 584.81C282.62 584.76 281.67 584.23 281.13 584.32C279.77 584.55 280.15 585.07 278.09 584.64C277.89 584.64 277.69 584.64 277.49 584.64C276.09 584.93 275.72 584.51 274.43 584.4C269.3 583.96 263.51 584.64 258.29 584.7C255.86 584.73 252.76 583.91 251.1 585.23C249.79 584.99 248.49 584.75 247.18 584.51C238.32 584.59 229.47 584.66 220.62 584.74C219.22 582.56 219.26 580.33 220.91 578.39C222.58 579.22 223.48 577.53 225.28 577.49C226.34 577.47 227.55 577.99 228.65 578.05C232.91 578.29 237.19 577.9 241.45 577.96C243.73 577.99 245.58 579.36 246.78 577.26Z" fill="#052d0a" fill-rule="evenodd" stroke="#052d0a" stroke-width="0.25" stroke-linejoin="round"/>
<path d="M562.79 332.04C561.07 337.69 562.13 344.16 562.8 349.89C563.69 357.54 563.44 369.44 562.75 377.16C560.77 375.17 561.7 370.73 561.7 368.07C561.7 359.54 561.7 351.01 561.7 342.48C561.7 340 560.59 333.17 562.79 332.04ZM646.61 331.93C646.6 346.79 646.59 361.66 646.58 376.52C645.02 374.03 645.89 369.12 645.89 366.05C645.89 357.97 645.89 349.88 645.89 341.8C645.89 338.82 645.1 334.38 646.61 331.93ZM674.86 332.04C674.82 347.76 674.78 363.48 674.74 379.2C673.69 379.19 672.64 379.19 671.59 379.19C671.6 364.78 671.6 350.38 671.6 335.98C672.86 338.65 672.16 342.82 672.16 345.84C672.16 353.03 672.16 360.21 672.16 367.4C672.16 370.56 671.13 376.38 673.17 378.51C675.21 376.38 674.18 370.56 674.18 367.4C674.18 359.09 674.18 350.78 674.18 342.48C674.18 339.45 673.3 334.47 674.86 332.04ZM727.29 331.87C728.99 334.6 728.06 339.82 728.06 343.15C728.06 352.5 729.06 362.53 727.83 371.77C727.65 358.47 727.47 345.17 727.29 331.87ZM758.92 332.04C758.74 347.74 758.55 363.44 758.36 379.14C757.47 379.13 756.57 379.13 755.67 379.12C755.73 378.91 755.78 378.71 755.84 378.51C756.46 378.17 757.07 377.84 757.69 377.5C757.69 366.05 757.69 354.6 757.69 343.15C757.69 340.5 756.5 333.12 758.92 332.04ZM615.16 332.71C617.21 334.63 616.26 339.15 616.26 341.8C616.26 349.88 616.26 357.97 616.26 366.05C616.26 368.45 617.32 374.71 615.16 375.81C615.16 361.45 615.16 347.08 615.16 332.71ZM699.19 332.82C700.63 335.19 699.77 340.2 699.77 343.15C699.77 350.78 699.77 358.42 699.77 366.05C699.77 368.98 700.51 373.3 699.21 375.81C699.21 361.48 699.2 347.15 699.19 332.82ZM280.05 333.42C280.03 347.33 280 361.23 279.98 375.14C277.94 373.36 278.83 369.27 278.83 366.72C278.83 358.64 278.83 350.56 278.83 342.48C278.83 339.86 277.83 335.12 280.05 333.42ZM308.91 333.38C308.91 347.3 308.9 361.22 308.89 375.14C306.84 373.22 307.79 368.7 307.79 366.05C307.79 358.19 307.79 350.33 307.79 342.48C307.79 339.82 306.83 335.27 308.91 333.38ZM446.04 333.38C446.43 333.72 446.82 334.06 447.21 334.39C447.21 335.97 447.21 337.54 447.21 339.11C446.84 339.45 446.47 339.78 446.1 340.12C446.08 337.87 446.06 335.63 446.04 333.38ZM531.04 333.38C532.99 335.4 532.07 339.81 532.07 342.48C532.07 350.56 532.07 358.64 532.07 366.72C532.07 369.49 533.09 374.47 530.98 376.49C531 362.12 531.02 347.75 531.04 333.38ZM276.2 334.06C277.43 336.21 276.81 339.88 276.81 342.48C276.81 348.99 276.81 355.5 276.81 362.01C276.81 364.65 277.53 368.91 276.2 370.99C276.2 358.68 276.2 346.37 276.2 334.06ZM305.07 334.03C306.49 336.25 305.77 340.39 305.77 343.15C305.77 350.33 305.77 357.52 305.77 364.7C305.77 367.51 306.49 371.61 305.04 373.87C305.05 360.59 305.06 347.31 305.07 334.03ZM418.26 340.12C419.56 342.22 418.92 345.94 418.92 348.54C418.92 354.6 418.92 360.66 418.92 366.72C418.92 369.16 419.47 372.47 418.28 374.47C418.27 363.02 418.27 351.57 418.26 340.12ZM247.12 342.14C247.08 353.36 247.03 364.59 246.99 375.81C247.03 364.59 247.08 353.36 247.12 342.14ZM446.08 361.67C446.46 362.01 446.83 362.34 447.21 362.68C447.21 363.8 447.21 364.93 447.21 366.05C446.84 366.39 446.47 366.72 446.11 367.06C446.1 365.26 446.09 363.47 446.08 361.67ZM309.03 385.97C308.93 386.4 308.83 386.83 308.74 387.26C308.54 387.04 308.33 386.82 308.13 386.59C307.23 386.59 306.33 386.59 305.43 386.59C305.14 387.32 304.85 388.06 304.56 388.79C304.81 388.17 305.05 387.55 305.3 386.93C305.04 386.62 304.79 386.31 304.54 386.01C306.03 385.99 307.53 385.98 309.03 385.97ZM562.94 386C561.91 387.48 562.9 389.08 562.89 390.97C562.86 395.68 562.82 400.4 562.83 405.11C562.84 422.64 563.8 440.49 562.79 457.98C560.63 455.93 561.7 443.01 561.7 439.46C561.7 427.79 561.7 416.11 561.7 404.44C561.7 398.68 562.49 392.2 561.36 386.59C560.36 387.04 559.35 387.49 558.35 387.94C558.15 387.27 557.96 386.59 557.77 385.92C559.73 385.08 561.04 385.07 562.94 386ZM646.33 385.94C646.21 387.62 647.04 389.05 646.92 390.89C645.82 406.97 646.93 423.31 646.68 439.46C646.61 443.6 647.66 454.17 646.55 457.37C644.61 454.08 645.89 441.9 645.89 437.44C645.89 420.6 645.89 403.76 645.89 386.93C645.28 387.03 644.68 387.13 644.07 387.23C643.82 386.8 643.56 386.37 643.31 385.94C644.25 385.82 645.2 385.7 646.14 385.58C646.2 385.7 646.27 385.82 646.33 385.94ZM702.06 385.88C702.16 386.81 702.25 387.75 702.35 388.68C702.05 387.98 701.75 387.29 701.45 386.59C700.96 386.82 700.46 387.05 699.97 387.29C699.71 386.83 699.46 386.37 699.21 385.91C700.16 385.9 701.11 385.89 702.06 385.88ZM587.25 387.26C587.24 450.57 587.23 513.88 587.21 577.19C587.23 513.88 587.24 450.57 587.25 387.26ZM419.26 387.94C419.91 388.28 420.54 388.21 420.81 389.07C421.01 389.71 420.27 397.48 420.27 399.05C420.27 410.05 420.27 421.05 420.27 432.05C420.27 465.28 420.27 498.5 420.27 531.73C420.27 542.28 420.27 552.83 420.27 563.39C420.27 567.26 421.25 573.11 420.6 576.52C419.84 576.36 419.13 576.57 418.6 575.82C418.31 575.42 418.92 567.42 418.92 566.08C418.92 555.53 418.92 544.98 418.92 534.42C418.92 498.28 418.92 462.14 418.92 425.99C418.92 416.79 418.92 407.58 418.92 398.38C418.92 395.48 417.62 390.04 419.26 387.94ZM447.33 387.94C447.96 388.5 448.59 389.06 449.23 389.62C448.59 390.41 447.96 391.19 447.33 391.98C447.33 390.63 447.33 389.28 447.33 387.94ZM246.99 390.63C246.99 451.7 246.99 512.76 246.99 573.82C246.99 512.76 246.99 451.7 246.99 390.63ZM220.96 571.8C221.56 573.74 221.48 575.57 220.21 577.15C220.22 575.48 220.23 573.81 220.24 572.14C220.48 572.03 220.72 571.92 220.96 571.8ZM447.54 572.48C448.1 573.04 448.67 573.6 449.23 574.16C448.67 574.95 448.1 575.73 447.54 576.52C446.98 576.18 446.42 575.84 445.86 575.51C446.42 574.5 446.98 573.49 447.54 572.48ZM308.56 585.27C308.7 585.95 308.85 586.62 308.99 587.29C308.48 586.85 307.97 586.4 307.45 585.95C306.89 585.89 306.33 585.82 305.77 585.76C305.58 585.56 305.39 585.36 305.2 585.16C306.32 585.2 307.44 585.24 308.56 585.27ZM477.51 585.28C477.47 585.73 477.42 586.18 477.37 586.62C476.41 586.4 475.44 586.17 474.48 585.95C473.53 590.73 474.15 596.19 474.15 601.1C474.15 611.2 474.15 621.31 474.15 631.41C474.15 634.53 475.1 645.59 472.94 647.16C475.05 640.83 473.72 632.11 473.6 625.35C473.37 612.01 474.69 598.51 473.58 585.23C475.06 584.53 476.08 584.57 477.51 585.28ZM505.81 585.27C506.61 586.92 506.98 587.45 506.12 588.98C506.04 589.99 505.96 591 505.88 592.01C505.63 591.9 505.38 591.78 505.13 591.67C505.35 591 505.58 590.33 505.8 589.65C505.8 588.75 505.8 587.86 505.8 586.96C505.13 586.58 504.45 586.21 503.78 585.83C503.76 585.65 503.73 585.46 503.71 585.27C504.29 585.13 504.88 584.98 505.46 584.83C505.58 584.98 505.7 585.13 505.81 585.27ZM220.18 585.89C222.21 588.15 220.98 598.85 220.98 602.45C220.94 617.59 220.77 632.84 220.98 647.92C219.17 645.3 220.24 634.54 220.24 630.74C220.24 615.81 220.64 600.81 220.18 585.89ZM246.98 588.64C247.03 606.6 247.08 624.56 247.12 642.52C247.08 624.56 247.03 606.6 246.98 588.64ZM530.88 588.64C532.9 589.58 532.07 599.09 532.07 601.77C532.07 611.65 532.07 621.53 532.07 631.41C532.07 635.11 533.21 641.14 531.71 644.52C529.24 650.09 519.1 647.91 514.22 647.91C512.16 647.91 509.16 648.6 508 646.72C512 648.1 527.69 649.05 530.18 645C531.99 642.07 530.88 631.78 530.8 628.04C530.54 615.17 529.65 601.45 530.88 588.64ZM674.72 588.64C674.75 608.46 674.78 628.27 674.81 648.09C673.09 644.69 674.18 638.66 674.18 634.78C674.18 624.22 674.18 613.67 674.18 603.12C674.18 599.05 672.93 592.17 674.72 588.64ZM727.46 588.75C729.04 591.29 728.06 600.92 728.06 604.47C728.06 617.85 729.38 634.23 727.86 647.24C727.73 627.74 727.6 608.25 727.46 588.75ZM758.76 588.64C758.81 608.4 758.85 628.15 758.9 647.91C756.27 645.77 757.69 638.04 757.69 634.78C757.69 623.55 757.69 612.33 757.69 601.1C757.69 597.89 756.37 590.96 758.76 588.64ZM308.92 589.32C308.96 608.57 308.99 627.82 309.03 647.07C306.9 645.79 307.79 636.87 307.79 634.1C307.79 623.1 307.79 612.1 307.79 601.1C307.79 598.02 306.53 591.46 308.92 589.32ZM615.15 589.32C617.51 591.51 616.26 598.01 616.26 601.1C616.26 612.33 616.26 623.55 616.26 634.78C616.26 637.94 617.6 645.13 615.06 647.24C615.09 627.93 615.12 608.62 615.15 589.32ZM305.06 589.88C306.85 592.85 305.77 598.87 305.77 602.45C305.77 612.55 305.77 622.65 305.77 632.76C305.77 636.72 306.82 642.6 304.44 645.74C304.65 627.12 304.86 608.5 305.06 589.88ZM699.23 589.99C700.8 593.1 699.77 598.86 699.77 602.45C699.77 612.55 699.77 622.65 699.77 632.76C699.77 636.63 700.96 643.26 699.2 646.56C699.21 627.7 699.22 608.85 699.23 589.99ZM418.23 596.84C419.82 599.02 418.92 604.26 418.92 607.16C418.92 616.37 418.92 625.57 418.92 634.78C418.92 637.93 419.98 644.18 418.16 646.45C418.18 629.91 418.21 613.37 418.23 596.84ZM559.17 616.93C559.17 626.58 559.16 636.24 559.16 645.89C559.16 636.24 559.17 626.58 559.17 616.93ZM334.2 617.6C335.79 620.81 334.73 635 334.73 639.49C334.73 641.8 335.23 644.75 334.02 646.56C334.08 636.91 334.14 627.26 334.2 617.6ZM446.06 637.81C446.33 637.81 446.6 637.81 446.87 637.81C446.98 640.61 447.09 643.42 447.21 646.23C446.78 646.52 446.35 646.8 445.92 647.09C445.97 644 446.02 640.9 446.06 637.81ZM247.13 645.89C246.92 646.9 246.71 647.91 246.5 648.92C243.65 651.14 227.05 651.67 224.21 649.9C229.82 647.76 241.72 652.06 246.09 648.25C246.44 647.46 246.78 646.68 247.13 645.89ZM421.12 646.56C422.07 647.59 423.02 648.61 423.97 649.64C430.83 649.56 437.7 649.48 444.56 649.4C443.06 651.1 440.92 650.6 438.79 650.6C433.79 650.6 425.71 652.11 421.61 648.92C421.45 648.13 421.29 647.35 421.12 646.56ZM556.2 647.96C556.13 648.17 556.05 648.38 555.98 648.58C553.4 648.51 550.82 648.44 548.24 648.37C550.9 648.24 553.55 648.1 556.2 647.96ZM670.63 648.51C670.14 650.57 667.88 650.59 665.76 650.6C661.83 650.62 652.06 651.67 649.13 649.87C655.79 649.84 662.46 649.81 669.13 649.77C669.63 649.35 670.13 648.93 670.63 648.51ZM754.81 648.64C754.31 650.57 751.95 650.59 749.95 650.6C746.13 650.62 735.45 651.67 732.76 649.9C739.67 647.74 748.17 651.59 754.81 648.64ZM759.24 648.55C765.7 651.75 774.38 647.9 781.28 649.93C778.46 651.68 767.97 650.62 764.09 650.6C762 650.59 759.7 650.57 759.24 648.55ZM416.37 649.97C413.95 651.24 397.44 651.22 395.17 649.87C402.24 649.9 409.3 649.93 416.37 649.97ZM564.34 649.4C571.38 649.57 578.42 649.75 585.45 649.92C581.8 651.92 570.12 650.6 565.41 650.6C565.05 650.2 564.7 649.8 564.34 649.4ZM613.63 649.41C613.27 649.81 612.91 650.21 612.55 650.6C607.92 650.6 596.05 651.91 592.52 649.9C599.56 649.74 606.59 649.58 613.63 649.41ZM697.12 649.88C695.08 651.21 678.88 651.16 676.69 649.87C683.5 649.87 690.31 649.88 697.12 649.88ZM340.12 650.83C341.91 650.83 343.71 650.82 345.51 650.81C345.17 651.19 344.83 651.57 344.5 651.95C343.04 651.84 341.58 651.73 340.12 651.61C340.12 651.35 340.12 651.09 340.12 650.83ZM356.96 650.83C356.96 651.09 356.96 651.35 356.96 651.61C354.6 651.73 352.24 651.84 349.88 651.95C349.7 651.69 349.51 651.43 349.33 651.17C349.51 650.96 349.7 650.76 349.88 650.55C352.24 650.64 354.6 650.74 356.96 650.83Z" fill="#ffffff" fill-rule="evenodd" stroke="#ffffff" stroke-width="0.25" stroke-linejoin="round"/>
</svg>