<?xml version="1.0" encoding="UTF-8"?>
<svg xmlns="http://www.w3.org/2000/svg" viewBox="0 0 821 576" width="821" height="576">
<path d="M407.84 403.91C407.76 406.61 406.55 410.06 404.64 412.07C398.59 412.65 388.48 406.07 382.77 403.43C379.01 401.68 375.37 400.31 371.46 398.89C369.97 398.35 368.83 396.8 367.38 396.28C363.42 394.87 359.72 393.28 355.76 392C354.3 391.53 353.15 389.96 351.66 389.4C347.28 387.74 343.02 385.68 338.63 384.16C332.53 385.66 327.4 389.82 321.49 392.01C315.42 394.26 309.6 397.37 303.57 399.31C301.99 399.82 300.86 401.35 299.41 401.98C297.87 402.64 296 402.72 294.47 403.39C293.14 403.97 292.18 405.33 290.75 405.85C287.24 407.11 283.8 408.74 280.44 410.49C279.65 410.9 279.02 411.78 278.16 412.05C273.3 413.57 269.07 407.43 269.04 403.28C273.37 399.28 281.32 397.05 286.8 394.9C290.47 393.45 293.88 391.08 297.45 389.5C299.31 388.68 301.39 388.4 303.29 387.66C308.56 385.58 313.63 382.77 318.94 380.74C322.98 379.2 335.87 371.88 339.26 372.21C341.78 372.45 347.97 376.59 350.76 377.63C360.11 381.1 369.35 385.52 378.56 389.49C379.89 390.07 380.92 391.34 382.32 391.86C387.82 393.91 392.94 396.87 398.45 398.92C401.61 400.1 405.64 401.17 407.84 403.91ZM395.43 414.16C395.22 436.97 395.01 459.78 394.79 482.59C392.34 481.13 389.11 481.79 386.33 481.82C379.85 481.89 373.36 481.88 366.88 481.87C346.79 481.86 326.71 481.9 306.62 481.87C300.55 481.86 294.46 481.68 288.4 481.71C286.57 481.71 284.68 483.24 283.15 482.79C282.96 482.33 282.77 481.87 282.58 481.41C282.74 477.23 282.9 473.05 283.06 468.87C284.21 467.16 284.21 456.78 283.06 455.06C283.06 452.76 283.06 450.46 283.06 448.16C283.29 448.06 283.52 447.95 283.74 447.85C283.74 444.5 283.74 441.15 283.73 437.8C283.51 437.7 283.28 437.59 283.06 437.49C283.06 435.19 283.06 432.89 283.06 430.59C284.2 428.85 284.01 417.54 283.06 415.52C284.69 410.95 288.84 410.75 292.56 408.94C297.5 406.53 302.56 404.45 307.53 401.97C310.47 400.5 313.79 399.52 316.57 397.92C317.34 397.48 317.85 396.61 318.71 396.32C320.41 395.75 321.89 395.85 323.5 394.88C326.3 393.19 334.37 388.64 337.42 388.19C340.95 387.68 349.37 392.22 352.57 394.04C354.5 395.14 356.53 395.59 358.55 396.32C362.37 397.7 365.88 400.44 369.63 402.01C370.87 402.54 372.34 402.67 373.57 403.27C377.24 405.08 380.9 407.39 384.6 409.01C388.12 410.55 392.65 411.23 395.43 414.16ZM278.03 471.91C277.9 472.36 277.76 472.81 277.63 473.27C271.12 469.39 257.47 471.33 249.5 471.33C227.75 471.33 205.95 471.02 184.22 471.07C183.29 471.81 182.36 472.54 181.43 473.27C179.49 466.66 175.03 470.38 170.53 469.77C168.16 469.45 166.67 466.72 167.34 464.51C168.27 461.39 170.93 461.27 173.48 460.05C176.18 458.74 178.92 458.03 181.61 456.89C182.44 456.54 182.92 455.67 183.78 455.35C185.6 454.67 187.77 454.65 189.53 453.98C190.41 453.64 191.06 452.63 191.93 452.2C193.41 451.47 194.98 451.47 196.48 450.95C198.17 450.38 199.68 449.03 201.34 448.41C203.09 447.75 204.99 447.56 206.7 446.82C207.4 446.52 207.78 445.75 208.47 445.44C213.27 443.22 218.68 441.58 223.66 439.89C225.4 439.3 226.91 437.95 228.61 437.29C234.86 434.9 241.19 431.82 247.57 429.94C251.36 428.82 254.88 426.52 258.61 425.3C261.5 424.37 264.17 425.24 267.06 425.03C270.42 424.79 274.21 424.05 277.49 425.25C280.47 431.39 278.89 440.6 278.08 447.22C277.12 455.15 277.91 463.93 278.03 471.91ZM538.02 424.82C538.3 425.15 538.58 425.49 538.86 425.83C543.03 425.91 547.2 425.99 551.37 426.07C553.44 426.44 555.6 426.71 557.51 427.65C558.9 428.32 559.95 429.53 561.5 429.95C565.83 431.12 570.28 432.77 574.45 434.61C575.88 435.24 576.87 436.45 578.45 436.9C584.37 438.57 589.93 441.32 595.39 443.84C598.7 445.37 602.63 446.12 606.09 447.35C611.37 449.21 616.34 451.97 621.53 454.01C624.55 455.2 627.56 457.04 630.59 458.04C634.96 459.47 642.37 460.94 642.4 466.68C639.57 471.51 633.44 466.9 630.58 471.2C630.36 471.49 630.14 471.78 629.93 472.07C628.9 472.16 628.51 471.54 627.36 471.34C624.78 470.89 621.82 471.33 619.2 471.35C606.02 471.47 592.84 471.33 579.66 471.33C540.95 471.33 502.25 471.34 463.54 471.33C448.89 471.33 434.25 471.29 419.6 471.34C414.96 471.35 406.13 469.94 402.33 472.3C401.81 471.37 401.29 470.43 400.77 469.5C400.7 468.82 400.63 468.13 400.56 467.45C400.69 467.19 400.82 466.93 400.94 466.68C399.57 464.61 401.46 458.37 400.66 455.14C400.68 445.51 400.7 435.88 400.72 426.25C403.19 423.65 408.99 424.93 412.24 424.87C415.84 426.72 432.11 425.52 437.18 425.52C457.47 425.53 477.77 425.51 498.06 425.52C504.13 425.53 510.2 425.56 516.26 425.56C518.82 425.57 522.28 426.05 524.27 424.81C525.44 424.81 526.61 424.8 527.78 424.8C527.92 425.01 528.05 425.22 528.19 425.44C530.7 425.57 533.21 425.7 535.72 425.84C535.79 425.51 535.86 425.18 535.93 424.85C536.63 424.84 537.33 424.83 538.02 424.82ZM338.74 432.56C338.7 432.66 338.67 432.77 338.63 432.88C335.18 433.18 332.88 432.68 330.39 435.23C330.2 435.25 330.01 435.27 329.81 435.29C329.77 437.8 329.73 440.31 329.69 442.83C329.88 442.93 330.06 443.04 330.24 443.15C331.12 446.15 329.21 449.91 330.25 452.78C331.54 456.33 342.88 455.45 345.94 454.75C347.73 452.51 347.5 436.38 346.67 433.15C346.64 432.82 346.61 432.49 346.58 432.15C344.17 430.99 341.91 431.67 339.26 431.86C339.09 432.09 338.91 432.33 338.74 432.56ZM302.53 433.2C300.98 434.55 299.71 436.54 300.56 438.55C300.55 442.65 300.54 446.74 300.53 450.84C299.88 452.42 300.64 453.26 301.11 454.75C302.25 455.07 304.24 455.92 305.35 455.95C308.25 456.02 310.69 454.92 313.73 456.01C314.79 455.28 315.85 454.56 316.9 453.84C318.1 452.25 318.01 436.4 316.71 435.11C316.32 434.48 315.93 433.85 315.54 433.22C313.64 431.49 304.69 431.87 302.53 433.2ZM357.97 442.51C358.09 445.06 358.2 447.6 358.32 450.15C356.37 459.19 371.02 456.7 375.85 454.88C377.89 452.54 376.45 443.23 376.67 439.69C376.8 437.61 377.35 436.03 375.9 434.46C372.41 433.32 359.82 431 358.2 435.73C357.4 438.06 358.78 440.05 357.97 442.51ZM185.14 479.77C202.35 479.76 219.56 479.75 236.77 479.74C250.46 479.99 264.14 480.24 277.83 480.49C280.47 484.65 279.09 495.4 279.09 500.57C279.09 516.89 279.04 533.21 278.95 549.53C278.93 554.04 280.46 567.91 276.95 570.5C246.56 570.4 216.18 570.3 185.79 570.2C184.29 569.93 183.6 569.47 182.72 568.18C182.7 564.93 182.67 561.69 182.64 558.45C182.67 557.7 182.7 556.95 182.74 556.21C182.73 551.54 182.73 546.87 182.73 542.2C182.81 541.4 182.89 540.6 182.97 539.8C182.76 537.92 182.55 536.04 182.34 534.15C182.58 533.73 182.82 533.32 183.06 532.9C182.92 529.07 182.78 525.24 182.63 521.42C182.76 512.06 182.89 502.71 183.01 493.35C182.92 489.97 182.82 486.58 182.72 483.19C182.93 482.29 183.14 481.39 183.36 480.49C183.95 480.25 184.55 480.01 185.14 479.77ZM400.29 479.62C474.46 479.64 548.63 479.66 622.79 479.68C625.07 481.49 624.05 492.88 624.05 496.18C624.05 507.06 624.05 517.94 624.05 528.82C624.05 531.82 623.6 535.24 624.09 538.2C624.28 539.32 624.99 540.02 624.78 541.25C624.6 542.32 624.14 543.03 624.1 544.19C624.18 552.17 624.27 560.15 624.36 568.13C623.85 568.94 623.34 569.74 622.83 570.54C618.17 570.43 613.51 570.31 608.85 570.2C606.22 570.36 603.9 570.81 602.62 568.17C603.66 558.79 602.88 548.94 602.88 539.49C602.88 535.54 603.77 530.12 601.88 526.64C600.01 524.05 598.83 520.84 596.18 518.87C589.02 513.52 578.76 514.58 573.47 522.29C572.02 524.41 572.31 526.78 571.29 529.02C569.86 531.26 570.63 534.87 570.62 537.6C570.58 544.3 570.52 551 570.55 557.69C570.57 560.25 569.95 564.23 571.25 566.16C570.96 567.52 570.67 568.88 570.39 570.24C567.86 572.16 556.6 571.5 553.26 570.87C551.74 569.28 551.45 567.73 551.5 565.54C552.86 563.9 552.36 561.19 552.36 558.95C552.36 554.83 553.55 540.43 551.53 537.92C551.42 532.89 552.61 527.23 549.79 522.66C544.49 514.08 530.64 512.53 524.56 521.09C519.31 528.46 521 535.78 521.05 544.51C521.06 547.67 520.39 551.66 521.53 554.63C521.5 559.13 521.46 563.62 521.42 568.12C518.8 571.36 505.15 570.9 502.45 567.97C500.53 561.08 501.93 544.29 501.96 536.35C501.97 533.71 502.57 530.3 501.83 527.74C499.76 520.59 492.07 513.88 484.25 515.22C482.83 515.47 481.59 516.35 480.33 517C477.57 518.41 475.03 519.92 473.25 522.61C468.87 529.23 470.98 545.29 470.99 553.3C470.99 556.1 471.88 565.04 469.79 566.78C467.52 568.67 458.31 568.48 455.38 568C448.92 566.94 451.95 558.13 451.95 553.92C451.95 546.28 452.78 532.08 450.77 525.4C448.9 519.23 440.42 514.02 434.04 515.26C432.41 515.57 430.04 516.68 428.52 517.37C425.19 518.88 423.07 523.11 421.4 526.07C419.07 528.49 420.15 533.69 420.18 536.98C420.26 546.68 420.32 556.49 420.12 566.16C419.95 566.75 419.77 567.33 419.6 567.91C419.08 568.04 418.56 568.17 418.03 568.29C414.03 568.37 410.03 568.45 406.03 568.53C403.59 567.95 401.15 568.83 399.23 566.9C399.02 556.35 398.8 545.81 398.59 535.26C398.71 528.2 398.84 521.13 398.96 514.07C397.73 511.17 398.81 509.11 398.92 506.22C399.17 500.17 398.93 494.07 398.93 488.02C398.93 485.34 398.11 481.53 400.29 479.62ZM283.71 485.23C292.17 487.27 302.26 485.93 311.01 485.92C328.59 485.9 346.16 485.92 363.74 485.92C370.74 485.92 390.2 487.31 395.61 485.05C395.63 486.35 395.07 487.36 395.06 488.65C395.04 490.41 395.92 491.49 395.61 493.35C394.69 492.89 393.86 492.13 392.85 491.83C390.97 491.28 388.29 491.96 386.33 491.92C379.44 491.8 372.52 491.92 365.62 491.92C347.63 491.94 329.63 491.93 311.64 491.93C302.59 491.93 292.13 490.42 283.71 493.25C283.4 492.87 283.09 492.48 282.78 492.1C282.81 490.21 282.85 488.33 282.88 486.45C283.16 486.04 283.43 485.64 283.71 485.23ZM283.71 495.27C293.02 497.56 302.74 495.46 312.25 496.06C320.63 496.59 329.02 495.74 337.38 496.03C356.68 496.71 376.22 496.24 395.48 495.86C395.07 511.76 394.66 527.66 394.25 543.56C393.06 545.73 393.55 548.92 393.51 551.41C393.42 557.18 393.21 563.16 393.59 568.87C393.01 569.43 392.43 569.99 391.84 570.55C382.94 570.56 374.04 570.57 365.13 570.58C362.04 569.65 361.38 567.34 362.68 564.4C363.85 562.52 363.36 559.45 363.46 557.06C363.73 550.73 365.21 542.52 363.54 536.49C365.13 532.14 360.02 523.75 357.63 520.17C348.19 506.08 323.78 507.76 316.43 523.36C315.27 525.81 314.04 526.94 313.73 529.76C311.4 530.97 312.42 537.03 312.43 539.49C312.48 549.26 312.06 559.16 312.62 568.87C312.03 569.43 311.45 569.99 310.87 570.55C302.6 570.54 294.34 570.54 286.07 570.54C285.18 570.02 284.29 569.51 283.4 568.99C283.29 563.45 283.19 557.9 283.08 552.35C283.33 552.25 283.59 552.15 283.84 552.04C283.85 549.53 283.85 547.02 283.86 544.51C283.6 544.4 283.34 544.3 283.08 544.19C283.09 540.64 283.09 537.08 283.09 533.52C283.35 533.42 283.62 533.32 283.89 533.21C283.88 529.86 283.88 526.52 283.87 523.17C283.61 523.06 283.35 522.96 283.08 522.85C283.09 520.97 283.09 519.09 283.1 517.2C284.73 515.24 284.74 506.03 283.15 504.02C283.06 501.51 282.97 499 282.88 496.49C283.16 496.08 283.43 495.68 283.71 495.27ZM221.26 516.2C218.28 515.88 207.98 515.19 205.75 516.78C202.94 518.77 203.76 533.33 204.23 536.98C206.99 539.58 216.97 540.24 220.51 539C221.35 538.71 222.11 537.59 222.73 536.98C223.07 532.75 222.32 528.12 222.27 523.8C222.26 522.52 222.89 521.24 222.85 520.01C222.8 518.68 222.06 517.17 221.26 516.2ZM237.53 518.12C235.85 519.31 236.25 521.09 236.34 523.17C236.5 526.97 235.31 536.67 237.33 539.22C239.74 540.97 249.49 540.64 252.64 540.09C254.83 537.66 254.98 520 252.93 517.52C250.08 516.9 239.68 516.45 237.53 518.12Z" fill="#01b0cb" fill-rule="evenodd" stroke="#01b0cb" stroke-width="0.25" stroke-linejoin="round"/>
<path d="M589.97 438.07C586.56 436.4 573.99 432.25 572.51 429.51C571.3 427.26 572.31 423.3 572.34 420.86C572.43 414.12 572.63 407.48 573.03 400.77C574.08 382.79 574.71 364.74 576.17 346.79C576.75 339.78 578.9 332.12 578.16 325.13C579.4 320.87 579.13 315.66 579.63 311.18C580.42 304.01 581.44 296.47 582.8 289.4C583.46 285.96 583.49 279.18 587.82 278.91C590.17 281.58 589.58 285.66 590.23 288.98C591.96 297.76 592.74 306.54 593.87 315.41C597.79 345.94 599.48 376.9 600.27 407.68C600.46 415 600.81 422.34 601.17 429.64C601.34 432.95 602.32 437.31 600.89 440.31C596.53 442.43 594.06 438.78 589.97 438.07ZM551.52 310.77C551.59 311.16 551.66 311.56 551.72 311.95C552.7 320.09 553.69 328.23 554.67 336.37C554.72 336.6 554.76 336.83 554.81 337.06C554.44 346.48 556.5 356.25 557.41 365.62C558.44 376.28 558.03 387.11 558.98 397.78C559.56 404.21 559.94 410.64 560.14 417.09C560.22 419.71 561.09 421.58 559.7 424C555.33 425.19 552.84 421.95 548.87 421.31C545.17 420.71 536.09 423.01 533.61 420.13C531.96 418.21 533.34 404.7 533.43 401.4C533.66 392.68 533.97 383.71 534.83 375.04C535.77 365.4 537.29 355.54 537.23 345.85C537.31 345.2 537.4 344.56 537.48 343.91C538.11 341.1 537.92 338.12 538.25 335.25C538.93 329.46 539.91 323.73 540.46 317.92C541.22 309.77 543.24 301.87 544.13 293.75C544.21 293.54 544.29 293.33 544.36 293.12C545.04 292.71 545.72 292.3 546.39 291.89C550.6 294.69 550.27 306.09 551.52 310.77ZM647.57 333.82C647.62 334.06 647.68 334.31 647.73 334.55C647.74 341.02 649.22 347.43 650.01 353.83C651.67 367.28 652.4 380.99 653.5 394.49C655.98 424.91 656.28 455.64 656.4 486.13C656.45 497.59 656.21 508.94 655.61 520.38C655.28 526.82 654.72 534.48 650.52 539.74C649.4 541.15 647.72 541.66 646.42 542.75C645.98 543.22 645.54 543.69 645.09 544.16C641.99 549.66 646.52 564.14 642.99 568.99C641.76 569.03 640.52 569.07 639.29 569.11C637.35 567.02 638.09 564.14 638.18 561.46C638.38 555.16 640.43 544.55 634.09 541.04C632.81 538.96 631.52 536.87 630.24 534.78C629.85 531.29 628.75 527.91 628.31 524.42C627.09 514.69 627.06 504.72 627.1 494.92C627.11 490.6 625.92 484.4 627.77 480.49C629.42 479.76 631.07 479.04 632.72 478.32C633.66 476.77 634.59 475.23 635.52 473.68C638.06 472.72 642.11 473.66 644.11 471.82C645.36 470.68 645.23 468.97 645.5 467.44C646.4 462.25 644.71 458.76 639.1 458.13C636.72 457.06 634.35 455.99 631.97 454.92C629.24 453.61 628.13 452.41 627.25 449.45C627.25 449.04 627.26 448.63 627.26 448.22C628.26 429.99 629.26 411.77 630.26 393.55C630.3 393.31 630.35 393.06 630.39 392.82C631.36 386.88 631.22 380.55 631.71 374.53C632.46 365.32 633.42 355.99 634.42 346.79C635.18 339.89 637.57 332.68 637.16 325.76C638.81 321.32 637.52 313.69 642.43 311.13C645.81 313.71 646.53 329.01 647.57 333.82ZM277.63 473.27C276.38 475.62 274.22 475.49 271.78 475.85C269.08 473.73 261.87 475.05 258.29 475.01C245.53 474.89 232.76 475.05 220 474.98C216.66 474.97 206.79 474.08 204.62 475.79C203.37 475.79 202.11 475.79 200.86 475.79C199.17 474.45 186.91 474.51 185.16 475.86C184.16 475.61 183.17 475.36 182.17 475.1C181.92 474.49 181.67 473.88 181.43 473.27C182.36 472.54 183.29 471.81 184.22 471.07C205.95 471.02 227.75 471.33 249.5 471.33C257.47 471.33 271.12 469.39 277.63 473.27ZM629.93 472.07C629.87 472.99 629.81 473.91 629.75 474.84C625.31 477.22 618.8 474.9 613.87 475.79C611.75 474.11 602.37 474.99 599.12 474.99C585.94 475 572.75 475.03 559.57 475C526.1 474.92 492.62 475 459.14 475.01C440.45 475.01 421.58 474.58 402.97 475.09C401.57 474.52 401.39 474.14 401.21 472.64C401.48 472.85 401.76 473.06 402.03 473.27C402.13 472.94 402.23 472.62 402.33 472.3C406.13 469.94 414.96 471.35 419.6 471.34C434.25 471.29 448.89 471.33 463.54 471.33C502.25 471.34 540.95 471.33 579.66 471.33C592.84 471.33 606.02 471.47 619.2 471.35C621.82 471.33 624.78 470.89 627.36 471.34C628.51 471.54 628.9 472.16 629.93 472.07ZM394.79 482.59C395.01 482.85 395.22 483.11 395.44 483.37C395.55 483.46 395.66 483.54 395.77 483.62C395.72 484.1 395.66 484.58 395.61 485.05C390.2 487.31 370.74 485.92 363.74 485.92C346.16 485.92 328.59 485.9 311.01 485.92C302.26 485.93 292.17 487.27 283.71 485.23C283.54 485.11 283.38 485 283.21 484.88C283.19 484.18 283.17 483.48 283.15 482.79C284.68 483.24 286.57 481.71 288.4 481.71C294.46 481.68 300.55 481.86 306.62 481.87C326.71 481.9 346.79 481.86 366.88 481.87C373.36 481.88 379.85 481.89 386.33 481.82C389.11 481.79 392.34 481.13 394.79 482.59ZM395.61 493.35C395.57 494.19 395.53 495.03 395.48 495.86C376.22 496.24 356.68 496.71 337.38 496.03C329.02 495.74 320.63 496.59 312.25 496.06C302.74 495.46 293.02 497.56 283.71 495.27C283.71 494.6 283.71 493.93 283.71 493.25C292.13 490.42 302.59 491.93 311.64 491.93C329.63 491.93 347.63 491.94 365.62 491.92C372.52 491.92 379.44 491.8 386.33 491.92C388.29 491.96 390.97 491.28 392.85 491.83C393.86 492.13 394.69 492.89 395.61 493.35Z" fill="#010101" fill-rule="evenodd" stroke="#010101" stroke-width="0.25" stroke-linejoin="round"/>
<path d="M589.97 438.07C594.06 438.78 596.53 442.43 600.89 440.31C602.32 437.31 601.34 432.95 601.17 429.64C600.81 422.34 600.46 415 600.27 407.68C599.48 376.9 597.79 345.94 593.87 315.41C592.74 306.54 591.96 297.76 590.23 288.98C589.58 285.66 590.17 281.58 587.82 278.91C583.49 279.18 583.46 285.96 582.8 289.4C581.44 296.47 580.42 304.01 579.63 311.18C579.13 315.66 579.4 320.87 578.16 325.13C577.96 320.77 578.04 316.47 578.7 312.25C578.98 310.43 578.38 308.45 578.74 306.64C578.91 305.75 579.6 305.42 579.85 304.62C580.35 303.1 579.6 301.35 580.09 299.83C580.35 299.03 581.03 298.7 581.21 297.81C582.78 289.94 580.22 283.15 586.56 276.81C587.71 277.75 588.86 278.69 590.02 279.63C590.02 282.39 591.18 290.75 592.02 293.32C592.27 294.12 592.96 294.46 593.13 295.34C594.07 300 592.54 306.48 593.8 310.99C594.02 311.77 594.63 311.76 594.9 312.41C595.51 313.86 594.75 315.75 595.06 317.27C595.26 318.29 596.07 318.8 596.27 319.82C597.76 327.28 595.45 335.54 596.94 343.01C597.12 343.89 597.8 344.23 598.06 345.03C598.8 347.32 598.41 350.67 598.78 353.09C599.32 356.54 598.14 360.3 598.82 363.72C599.07 364.96 599.93 365.53 600.06 366.88C600.69 373.37 598.8 380.55 600.08 386.94C600.28 387.96 601.09 388.47 601.29 389.49C602.58 395.93 600.32 403.05 601.33 409.54C602.4 416.35 601.27 423.37 601.94 430.27C602.06 431.52 602.73 431.83 603.08 432.9C603.71 434.84 603.2 437.66 603.2 439.69C602.46 440.42 601.73 441.15 601 441.88C596.84 441.88 592.56 441.7 589.97 438.07ZM551.52 310.77C550.27 306.09 550.6 294.69 546.39 291.89C545.72 292.3 545.04 292.71 544.36 293.12C544.32 291.29 545.12 291.21 546.39 289.99C551.03 294.63 552.34 304.24 551.52 310.77ZM544.13 293.75C543.24 301.87 541.22 309.77 540.46 317.92C539.91 323.73 538.93 329.46 538.25 335.25C537.92 338.12 538.11 341.1 537.48 343.91C537.14 341.18 537.15 327.73 538.06 325.59C538.33 324.94 538.94 324.95 539.15 324.17C540.25 320.25 539.02 315.65 539.82 311.66C540.02 310.64 540.83 310.13 541.04 309.11C541.65 306.05 541.87 295.46 544.13 293.75ZM647.57 333.82C646.53 329.01 645.81 313.71 642.43 311.13C637.52 313.69 638.81 321.32 637.16 325.76C636.97 321.63 636.64 315.86 639.11 312.41C639.77 311.49 640.59 311.18 641.17 310.07C642.66 310.09 644.54 309.99 645.13 311.76C646.06 314.55 645.32 318.14 645.9 321.04C646.08 321.93 646.71 322.26 647.02 323.06C648.22 326.23 648 330.5 647.57 333.82ZM551.72 311.95C554.19 312.95 552.22 315.65 553.12 317.78C553.31 318.24 553.91 318.22 554.1 318.68C554.96 320.73 555.01 333.77 554.67 336.37C553.69 328.23 552.7 320.09 551.72 311.95ZM578.16 325.13C578.9 332.12 576.75 339.78 576.17 346.79C574.71 364.74 574.08 382.79 573.03 400.77C572.63 407.48 572.43 414.12 572.34 420.86C572.31 423.3 571.3 427.26 572.51 429.51C573.99 432.25 586.56 436.4 589.97 438.07C584.69 438.23 582.14 434.35 576.52 434.35C574.83 432.66 571.91 431.44 571.3 428.9C570.25 424.49 571.81 414.58 571.81 409.56C571.81 404.83 570.7 394.17 571.83 390.12C572.08 389.24 572.8 389.08 573.05 388.2C574.14 384.28 573.04 379.07 573.68 375.02C574.34 370.76 572.87 366.1 573.72 361.87C573.89 360.99 574.57 360.65 574.83 359.85C575.52 357.75 574.95 354.65 574.95 352.44C574.95 349.72 574.03 345.03 575.09 342.53C575.36 341.89 575.97 341.9 576.19 341.12C576.91 338.55 576.39 335.01 576.81 332.33C577.19 329.95 575.68 326.09 578.16 325.13ZM637.16 325.76C637.57 332.68 635.18 339.89 634.42 346.79C633.42 355.99 632.46 365.32 631.71 374.53C631.22 380.55 631.36 386.88 630.39 392.82C629.58 386.95 629.89 380.15 630.79 374.39C631.05 372.77 630.51 371.01 630.83 369.41C631.04 368.39 631.85 367.88 632.05 366.86C633.22 361 631.55 354.54 632.72 348.69C633.06 346.99 633.94 346.25 633.95 344.28C633.98 339.87 635.15 336.57 635.82 332.33C636.19 329.96 634.91 327.23 637.16 325.76ZM647.73 334.55C650.27 336.28 648.3 339.7 649.13 342.28C649.33 342.88 649.96 343.17 650.15 343.77C651.6 348.24 650.01 353.51 650.92 358.07C651.17 359.31 652.02 359.89 652.16 361.23C652.49 364.72 651.63 368.41 652.17 371.88C652.71 375.3 652.12 379.15 652.8 382.55C653.01 383.57 653.81 384.08 654.02 385.1C654.43 387.17 653.34 389.88 654.18 391.85C654.45 392.49 655.06 392.48 655.27 393.26C656.27 396.82 655.29 402.08 655.29 405.79C655.29 409.66 655.58 413.34 655.92 417.09C656.41 422.48 655.4 428.02 655.92 433.41C656.05 434.75 656.91 435.33 657.16 436.57C658.31 442.34 657.14 452.29 657.18 458.52C657.18 460.11 657.66 461.38 657.8 462.91C658.85 474.41 657.8 486.51 657.8 498.06C657.8 502.34 657.55 506.46 657.18 510.61C656.88 513.86 657.8 517.45 657.16 520.64C656.95 521.66 656.14 522.17 655.94 523.19C655.19 526.96 656.11 530.7 654.37 534.17C652.42 538.07 651.4 542.29 646.42 542.75C647.72 541.66 649.4 541.15 650.52 539.74C654.72 534.48 655.28 526.82 655.61 520.38C656.21 508.94 656.45 497.59 656.4 486.13C656.28 455.64 655.98 424.91 653.5 394.49C652.4 380.99 651.67 367.28 650.01 353.83C649.22 347.43 647.74 341.02 647.73 334.55ZM554.81 337.06C555.28 337.24 555.66 336.96 555.98 337.51C557.12 339.42 555.8 350.91 556.87 354.21C557.06 354.81 557.69 355.09 557.89 355.7C559.25 359.9 556.84 365.13 558.02 369.37C558.27 370.25 558.99 370.41 559.24 371.29C560.58 376.09 558.5 382 559.28 386.94C559.91 391 558.81 396.21 559.91 400.12C560.12 400.9 560.73 400.89 561 401.54C561.75 403.29 561.14 406.41 561.14 408.3C561.14 413.28 563.07 422.69 559.57 426.19C559.21 426.17 551.85 424.3 551.55 424.17C550.43 423.7 549.76 422.55 548.26 422.45C543.32 422.12 536.76 425.18 532.58 421.17C531.4 415.27 532.36 408.52 532.9 402.65C533.48 396.22 532.27 389.62 532.9 383.2C533.03 381.85 533.88 381.28 534.13 380.04C535.09 375.23 534 369.82 534.76 364.97C535.08 362.95 534.4 360.75 534.8 358.74C534.98 357.85 535.66 357.52 535.92 356.72C536.38 355.29 536.04 353.3 536.04 351.81C536.04 349.71 535.43 347.21 537.23 345.85C537.29 355.54 535.77 365.4 534.83 375.04C533.97 383.71 533.66 392.68 533.43 401.4C533.34 404.7 531.96 418.21 533.61 420.13C536.09 423.01 545.17 420.71 548.87 421.31C552.84 421.95 555.33 425.19 559.7 424C561.09 421.58 560.22 419.71 560.14 417.09C559.94 410.64 559.56 404.21 558.98 397.78C558.03 387.11 558.44 376.28 557.41 365.62C556.5 356.25 554.44 346.48 554.81 337.06ZM630.26 393.55C629.26 411.77 628.26 429.99 627.26 448.22C626.63 443.32 626.15 427.96 627.07 423.39C627.27 422.37 628.08 421.86 628.28 420.84C629.16 416.43 628.22 411.47 628.91 407.03C629.45 403.58 627.12 395.59 630.26 393.55ZM627.25 449.45C628.13 452.41 629.24 453.61 631.97 454.92C631.06 454.97 630.15 455.02 629.25 455.06C628.51 454.33 627.78 453.6 627.05 452.87C627.12 451.73 627.19 450.59 627.25 449.45ZM639.1 458.13C644.71 458.76 646.4 462.25 645.5 467.44C645.23 468.97 645.36 470.68 644.11 471.82C642.11 473.66 638.06 472.72 635.52 473.68C634.59 475.23 633.66 476.77 632.72 478.32C632.71 476.22 633.62 474.28 634.89 472.64C637.57 471.36 640.95 472.95 643.37 471.07C644 468.98 644.62 466.89 645.25 464.79C644.48 463.26 643.8 460.66 642.09 459.79C640.67 459.06 639.89 459.63 639.1 458.13ZM399.94 470.76C399.91 471.07 399.87 471.38 399.84 471.7C400.29 472.01 400.75 472.33 401.21 472.64C401.39 474.14 401.57 474.52 402.97 475.09C405 477.71 412.42 476.39 415.84 476.39C427.97 476.39 440.11 476.39 452.24 476.39C489.9 476.39 527.56 476.39 565.22 476.39C576.31 476.39 587.4 476.39 598.49 476.39C603.2 476.39 609.57 477.44 613.87 475.79C618.8 474.9 625.31 477.22 629.75 474.84C629.81 473.91 629.87 472.99 629.93 472.07C630.14 471.78 630.36 471.49 630.58 471.2C630.83 473.06 631.05 474.26 629.87 475.78C625.98 477.64 619.19 476.41 614.81 476.41C603.09 476.41 591.38 476.41 579.66 476.41C537.81 476.41 495.97 476.41 454.12 476.41C441.15 476.41 428.18 476.41 415.21 476.41C410.86 476.41 403.53 477.79 400.14 475.15C400.08 473.69 400.01 472.22 399.94 470.76ZM278.03 471.91C278.76 473.24 278.11 474.5 277.12 475.78C272.83 477.83 261.01 476.41 255.78 476.41C238.62 476.41 221.46 476.41 204.31 476.41C198.87 476.41 193.43 476.41 187.99 476.41C185.91 476.41 183.2 477.09 182.17 475.1C183.17 475.36 184.16 475.61 185.16 475.86C188.99 477.15 197.11 477.23 200.86 475.79C202.11 475.79 203.37 475.79 204.62 475.79C209.7 477.73 217.58 476.39 223.14 476.39C234.02 476.39 244.9 476.38 255.78 476.39C260.71 476.39 267.22 477.44 271.78 475.85C274.22 475.49 276.38 475.62 277.63 473.27C277.76 472.81 277.9 472.36 278.03 471.91ZM632.72 478.32C631.07 479.04 629.42 479.76 627.77 480.49C625.92 484.4 627.11 490.6 627.1 494.92C627.06 504.72 627.09 514.69 628.31 524.42C628.75 527.91 629.85 531.29 630.24 534.78C628.07 533.34 627.05 522.35 627.05 519.4C627.05 517.19 627.61 514.09 626.93 511.99C626.67 511.19 625.99 510.85 625.81 509.97C625.31 507.47 625.79 504.38 625.79 501.83C625.79 494.92 625.79 488.02 625.79 481.11C627.83 479.08 629.8 478.3 632.72 478.32ZM282.58 481.41C282.77 481.87 282.96 482.33 283.15 482.79C283.17 483.48 283.19 484.18 283.21 484.88C283.38 485 283.54 485.11 283.71 485.23C283.43 485.64 283.16 486.04 282.88 486.45C282.53 486.13 282.18 485.82 281.83 485.51C281.83 484.25 281.83 483 281.83 481.74C282.08 481.63 282.33 481.52 282.58 481.41ZM282.78 492.1C283.09 492.48 283.4 492.87 283.71 493.25C283.71 493.93 283.71 494.6 283.71 495.27C283.43 495.68 283.16 496.08 282.88 496.49C282.53 496.18 282.18 495.86 281.83 495.55C281.83 494.71 281.83 493.88 281.83 493.04C282.14 492.73 282.46 492.41 282.78 492.1ZM634.09 541.04C640.43 544.55 638.38 555.16 638.18 561.46C638.09 564.14 637.35 567.02 639.29 569.11C640.52 569.07 641.76 569.03 642.99 568.99C646.52 564.14 641.99 549.66 645.09 544.16C645.67 550.05 645.25 556.16 645.25 562.08C645.25 564.5 645.83 567.35 644.31 569.3C642.27 570.27 639.44 570.27 637.4 569.3C637.3 561.04 637.2 552.77 637.09 544.51C636.09 543.35 635.09 542.2 634.09 541.04Z" fill="#ffffff" fill-rule="evenodd" stroke="#ffffff" stroke-width="0.25" stroke-linejoin="round"/>
<path d="M395.43 414.16C397.33 416.72 396.22 427.7 396.21 431.53C396.21 442.83 396.2 454.12 396.18 465.42C396.18 471.25 397.04 477.77 395.44 483.37C395.22 483.11 395.01 482.85 394.79 482.59C395.01 459.78 395.22 436.97 395.43 414.16ZM283.06 415.52C284.01 417.54 284.2 428.85 283.06 430.59C283.06 425.56 283.06 420.54 283.06 415.52ZM524.27 424.81C522.28 426.05 518.82 425.57 516.26 425.56C510.2 425.56 504.13 425.53 498.06 425.52C477.77 425.51 457.47 425.53 437.18 425.52C432.11 425.52 415.84 426.72 412.24 424.87C449.58 424.85 486.93 424.83 524.27 424.81ZM527.78 424.8C530.5 424.82 533.21 424.83 535.93 424.85C535.86 425.18 535.79 425.51 535.72 425.84C533.21 425.7 530.7 425.57 528.19 425.44C528.05 425.22 527.92 425.01 527.78 424.8ZM538.02 424.82C542.36 424.96 546.69 425.11 551.03 425.25C551.14 425.52 551.26 425.79 551.37 426.07C547.2 425.99 543.03 425.91 538.86 425.83C538.58 425.49 538.3 425.15 538.02 424.82ZM400.72 426.25C400.7 435.88 400.68 445.51 400.66 455.14C398.55 452.39 399.86 437.24 399.81 432.78C399.78 430.51 399.29 427.75 400.72 426.25ZM346.67 433.15C346.29 432.92 345.91 432.69 345.54 432.46C343.27 432.49 341 432.53 338.74 432.56C338.91 432.33 339.09 432.09 339.26 431.86C341.91 431.67 344.17 430.99 346.58 432.15C346.61 432.49 346.64 432.82 346.67 433.15ZM315.54 433.22C311.21 433.21 306.87 433.21 302.53 433.2C304.69 431.87 313.64 431.49 315.54 433.22ZM375.9 434.46C377.35 436.03 376.8 437.61 376.67 439.69C376.45 443.23 377.89 452.54 375.85 454.88C375.87 448.07 375.89 441.27 375.9 434.46ZM316.71 435.11C318.01 436.4 318.1 452.25 316.9 453.84C316.84 447.59 316.77 441.35 316.71 435.11ZM330.39 435.23C330.34 437.87 330.29 440.51 330.24 443.15C330.06 443.04 329.88 442.93 329.69 442.83C329.73 440.31 329.77 437.8 329.81 435.29C330.01 435.27 330.2 435.25 330.39 435.23ZM283.06 437.49C283.28 437.59 283.51 437.7 283.73 437.8C283.74 441.15 283.74 444.5 283.74 447.85C283.52 447.95 283.29 448.06 283.06 448.16C283.06 444.6 283.06 441.05 283.06 437.49ZM300.56 438.55C300.78 438.72 301.01 438.89 301.23 439.06C301.23 442.83 301.23 446.59 301.23 450.36C301 450.52 300.76 450.68 300.53 450.84C300.54 446.74 300.55 442.65 300.56 438.55ZM357.97 442.51C359.94 444.03 359.17 447.44 359.15 449.73C358.87 449.87 358.6 450.01 358.32 450.15C358.2 447.6 358.09 445.06 357.97 442.51ZM283.06 455.06C284.21 456.78 284.21 467.16 283.06 468.87C283.06 464.27 283.06 459.67 283.06 455.06ZM400.56 467.45C400.63 468.13 400.7 468.82 400.77 469.5C401.29 470.43 401.81 471.37 402.33 472.3C402.23 472.62 402.13 472.94 402.03 473.27C401.76 473.06 401.48 472.85 401.21 472.64C400.75 472.33 400.29 472.01 399.84 471.7C399.87 471.38 399.91 471.07 399.94 470.76C399.92 469.82 399.89 468.87 399.87 467.93C400.1 467.77 400.33 467.61 400.56 467.45ZM200.86 475.79C197.11 477.23 188.99 477.15 185.16 475.86C186.91 474.51 199.17 474.45 200.86 475.79ZM271.78 475.85C267.22 477.44 260.71 476.39 255.78 476.39C244.9 476.38 234.02 476.39 223.14 476.39C217.58 476.39 209.7 477.73 204.62 475.79C206.79 474.08 216.66 474.97 220 474.98C232.76 475.05 245.53 474.89 258.29 475.01C261.87 475.05 269.08 473.73 271.78 475.85ZM402.97 475.09C421.58 474.58 440.45 475.01 459.14 475.01C492.62 475 526.1 474.92 559.57 475C572.75 475.03 585.94 475 599.12 474.99C602.37 474.99 611.75 474.11 613.87 475.79C609.57 477.44 603.2 476.39 598.49 476.39C587.4 476.39 576.31 476.39 565.22 476.39C527.56 476.39 489.9 476.39 452.24 476.39C440.11 476.39 427.97 476.39 415.84 476.39C412.42 476.39 405 477.71 402.97 475.09ZM236.77 479.74C219.56 479.75 202.35 479.76 185.14 479.77C187.44 477.87 193.56 478.92 196.78 478.92C206.4 478.93 216.03 478.92 225.65 478.94C228.87 478.95 234.32 478.06 236.77 479.74ZM622.79 479.68C548.63 479.66 474.46 479.64 400.29 479.62C403.34 477.74 410.15 478.92 413.95 478.92C425.04 478.92 436.13 478.91 447.22 478.92C488.85 478.93 530.49 478.9 572.13 478.92C584.26 478.92 596.4 478.92 608.53 478.92C612.39 478.92 619.81 477.64 622.79 479.68ZM182.72 483.19C182.82 486.58 182.92 489.97 183.01 493.35C182.66 493.25 182.31 493.14 181.96 493.04C181.91 489.9 181.87 486.76 181.83 483.62C182.12 483.48 182.42 483.33 182.72 483.19ZM283.15 504.02C284.74 506.03 284.73 515.24 283.1 517.2C283.11 512.81 283.13 508.42 283.15 504.02ZM398.96 514.07C398.84 521.13 398.71 528.2 398.59 535.26C396.31 529.64 397.87 521.07 397.85 515.01C398.22 514.69 398.59 514.38 398.96 514.07ZM237.53 518.12C237.46 525.15 237.39 532.18 237.33 539.22C235.31 536.67 236.5 526.97 236.34 523.17C236.25 521.09 235.85 519.31 237.53 518.12ZM182.63 521.42C182.78 525.24 182.92 529.07 183.06 532.9C180.61 530.87 181.8 524.9 181.8 521.91C182.08 521.75 182.36 521.58 182.63 521.42ZM283.08 522.85C283.35 522.96 283.61 523.06 283.87 523.17C283.88 526.52 283.88 529.86 283.89 533.21C283.62 533.32 283.35 533.42 283.09 533.52C283.09 529.97 283.09 526.41 283.08 522.85ZM421.4 526.07C420.41 535.98 421.15 546.43 421.17 556.43C421.17 558.76 422.22 565.17 420.12 566.16C420.32 556.49 420.26 546.68 420.18 536.98C420.15 533.69 419.07 528.49 421.4 526.07ZM601.88 526.64C603.77 530.12 602.88 535.54 602.88 539.49C602.88 548.94 603.66 558.79 602.62 568.17C600.84 565.77 601.81 560.24 601.82 557.06C601.82 547.01 601.09 536.64 601.88 526.64ZM571.29 529.02C571.28 541.4 571.26 553.78 571.25 566.16C569.95 564.23 570.57 560.25 570.55 557.69C570.52 551 570.58 544.3 570.62 537.6C570.63 534.87 569.86 531.26 571.29 529.02ZM313.73 529.76C311.94 535.04 313.21 551.78 313.22 558.32C313.23 561.49 314.01 566.22 312.62 568.87C312.06 559.16 312.48 549.26 312.43 539.49C312.42 537.03 311.4 530.97 313.73 529.76ZM398.59 535.26C398.8 545.81 399.02 556.35 399.23 566.9C397.02 565.43 397.79 562.06 397.79 559.57C397.79 553.92 397.8 548.28 397.85 542.63C397.87 540.21 397.39 537.08 398.59 535.26ZM363.54 536.49C365.21 542.52 363.73 550.73 363.46 557.06C363.36 559.45 363.85 562.52 362.68 564.4C362.87 558 362.81 551.55 362.82 545.14C362.82 542.42 362.23 538.61 363.54 536.49ZM551.53 537.92C553.55 540.43 552.36 554.83 552.36 558.95C552.36 561.19 552.86 563.9 551.5 565.54C551.51 556.33 551.52 547.12 551.53 537.92ZM182.73 542.2C182.73 546.87 182.73 551.54 182.74 556.21C180.93 554.11 180.96 544.31 182.73 542.2ZM394.25 543.56C394.85 544.67 394.23 547.8 394.22 549.53C394.21 554.16 395.47 565.31 393.59 568.87C393.21 563.16 393.42 557.18 393.51 551.41C393.55 548.92 393.06 545.73 394.25 543.56ZM283.08 544.19C283.34 544.3 283.6 544.4 283.86 544.51C283.85 547.02 283.85 549.53 283.84 552.04C283.59 552.15 283.33 552.25 283.08 552.35C283.08 549.63 283.08 546.91 283.08 544.19ZM624.1 544.19C625.77 545.01 625.13 547.73 625.12 549.53C625.12 553.47 626.23 565.61 624.36 568.13C624.27 560.15 624.18 552.17 624.1 544.19ZM521.53 554.63C522.85 557.01 523.1 565.92 521.42 568.12C521.46 563.62 521.5 559.13 521.53 554.63ZM182.64 558.45C182.67 561.69 182.7 564.93 182.72 568.18C182.42 568.03 182.11 567.88 181.81 567.73C181.81 564.8 181.81 561.87 181.81 558.95C182.08 558.78 182.36 558.61 182.64 558.45ZM418.03 568.29C417.93 568.64 417.82 568.99 417.72 569.33C414.52 569.41 408.4 570.35 406.03 568.53C410.03 568.45 414.03 568.37 418.03 568.29ZM185.79 570.2C216.18 570.3 246.56 570.4 276.95 570.5C274.51 572.52 262.24 571.43 258.29 571.43C240.92 571.43 223.56 571.49 206.19 571.43C201.17 571.42 196.15 571.39 191.13 571.43C189.21 571.44 186.71 572.08 185.79 570.2ZM608.85 570.2C613.51 570.31 618.17 570.43 622.83 570.54C620.15 572.64 612.75 571.59 609.16 571.27C609.05 570.92 608.95 570.56 608.85 570.2ZM286.07 570.54C294.34 570.54 302.6 570.54 310.87 570.55C308.27 572.55 296.21 571.44 292.18 571.44C289.95 571.44 287.69 571.83 286.07 570.54ZM365.13 570.58C374.04 570.57 382.94 570.56 391.84 570.55C390.2 571.82 387.95 571.43 385.71 571.43C381.43 571.44 367.88 572.64 365.13 570.58Z" fill="#75bac5" fill-rule="evenodd" stroke="#75bac5" stroke-width="0.25" stroke-linejoin="round"/>
</svg>